<svg width="28" height="34" viewBox="0 0 28 34" fill="none" xmlns="http://www.w3.org/2000/svg">
<path d="M27.2287 11.4131C26.1488 11.7856 25.2489 12.6502 24.5289 14.007C23.809 15.3638 23.449 16.7074 23.449 18.0376C23.449 19.687 23.8604 21.2167 24.6832 22.6268C25.506 24.0368 26.6116 24.928 28 25.3005C27.5886 26.7371 26.9073 28.2136 25.9559 29.73C25.0046 31.2465 24.0404 32.3772 23.0634 33.1221C22.2406 33.7074 21.2121 34 19.978 34C19.1552 34 18.2039 33.7872 17.124 33.3615C16.1983 32.8826 15.4013 32.6432 14.7328 32.6432C14.2185 32.6432 13.1901 32.9624 11.6474 33.6009C10.7218 33.867 10.0533 34 9.64187 34C8.40771 34 7.14784 33.4679 5.86226 32.4038C4.01102 30.5947 2.57117 28.4397 1.5427 25.939C0.514233 23.4382 0 20.831 0 18.1174C0 15.2973 0.784206 12.8099 2.35262 10.6549C3.92103 8.5 5.91368 7.42254 8.33058 7.42254C9.66759 7.42254 10.9017 7.71518 12.0331 8.30047C12.9073 8.88576 13.7815 9.1784 14.6556 9.1784C15.4784 9.1784 16.2755 9.01878 17.0468 8.69953C19.0523 7.8482 20.3893 7.42254 21.0579 7.42254C22.8577 7.42254 24.4261 8.03443 25.7631 9.25822C26.3802 9.89671 26.8687 10.615 27.2287 11.4131ZM13.8072 7.66197C13.8072 5.95931 14.45 4.28326 15.7355 2.6338C17.0211 1.19718 18.5895 0.319249 20.4408 0C20.4408 2.02191 19.8237 3.80438 18.5895 5.34742C17.2011 6.89045 15.607 7.66197 13.8072 7.66197Z" fill="white"/>
</svg>
