<?xml version="1.0" encoding="UTF-8"?>
<svg width="200px" height="63px" viewBox="0 0 200 63" version="1.1" xmlns="http://www.w3.org/2000/svg" xmlns:xlink="http://www.w3.org/1999/xlink">
    <!-- Generator: Sketch 57.1 (83088) - https://sketch.com -->
    <title>logo</title>
    <desc>Created with Sketch.</desc>
    <defs>
        <path d="M4.331,19.826 L6.31,15.3888 L16.351,15.3888 L18.36,19.826 L22.261,19.826 L13.196,0.6522 L9.523,0.6522 L0.486,19.826 L4.331,19.826 Z M15.118,12.5948 L7.573,12.5948 L11.331,4.2131 L15.118,12.5948 Z M29.501,19.826 L29.501,0.6522 L25.771,0.6522 L25.771,19.826 L29.501,19.826 Z M39.609,19.826 L39.609,14.2383 L44.307,14.2376 C44.57,14.235 44.773,14.2261 44.916,14.2109 L49.019,19.826 L53.035,19.826 L48.416,13.5261 C49.793,13.0148 50.85,12.2388 51.586,11.1979 C52.323,10.157 52.691,8.9153 52.691,7.4727 C52.691,6.0666 52.347,4.8522 51.658,3.8296 C50.97,2.807 49.98,2.0218 48.689,1.474 C47.398,0.9261 45.882,0.6522 44.142,0.6522 L35.879,0.6522 L35.879,19.826 L39.609,19.826 Z M43.969,11.3074 L39.609,11.3074 L39.609,3.6653 L43.969,3.6653 C45.595,3.6653 46.829,3.994 47.67,4.6514 C48.512,5.3087 48.933,6.2492 48.933,7.4727 C48.933,8.6961 48.512,9.6411 47.67,10.3077 C46.829,10.9742 45.595,11.3074 43.969,11.3074 Z M65.324,19.826 L65.324,3.6653 L71.98,3.6653 L71.98,0.6522 L54.938,0.6522 L54.938,3.6653 L61.594,3.6653 L61.594,19.826 L65.324,19.826 Z M75.747,19.826 L77.727,15.3888 L87.768,15.3888 L89.776,19.826 L93.678,19.826 L84.612,0.6522 L80.94,0.6522 L71.903,19.826 L75.747,19.826 Z M86.534,12.5948 L78.989,12.5948 L82.748,4.2131 L86.534,12.5948 Z M100.917,19.826 L100.917,14.2931 L105.45,14.2931 C107.191,14.2931 108.706,14.0192 109.997,13.4714 C111.288,12.9235 112.278,12.1338 112.967,11.102 C113.655,10.0703 113.999,8.8605 113.999,7.4727 C113.999,6.0666 113.655,4.8522 112.967,3.8296 C112.278,2.807 111.288,2.0218 109.997,1.474 C108.706,0.9261 107.191,0.6522 105.45,0.6522 L97.188,0.6522 L97.188,19.826 L100.917,19.826 Z M105.278,11.2801 L100.917,11.2801 L100.917,3.6653 L105.278,3.6653 C106.904,3.6653 108.137,3.994 108.979,4.6514 C109.82,5.3087 110.241,6.2492 110.241,7.4727 C110.241,8.6961 109.82,9.6366 108.979,10.294 C108.137,10.9514 106.904,11.2801 105.278,11.2801 Z" id="path-1"></path>
        <path d="M32.433,0 C42.119,0 50.813,4.124 56.757,10.6628 C55.871,10.5552 54.97,10.5 54.055,10.5 C42.113,10.5 32.433,19.902 32.433,31.5 C32.433,43.098 42.113,52.5 54.055,52.5 C54.97,52.5 55.871,52.445 56.757,52.338 C50.813,58.876 42.119,63 32.433,63 C14.521,63 0,48.897 0,31.5 C0,14.103 14.521,0 32.433,0 Z" id="path-3"></path>
        <path d="M18.405,36.304 C28.108,36.304 35.973,28.333 35.973,18.5 C35.973,8.6669 28.108,0.6957 18.405,0.6957 C8.703,0.6957 0.838,8.6669 0.838,18.5 C0.838,28.333 8.703,36.304 18.405,36.304 Z" id="path-5"></path>
    </defs>
    <g id="Page-1" stroke="none" stroke-width="1" fill="none" fill-rule="evenodd">
        <g id="Artboard">
            <g id="logo">
                <g id="Clipped" transform="translate(86.000000, 24.000000)">
                    <mask id="mask-2" fill="white">
                        <use xlink:href="#path-1"></use>
                    </mask>
                    <g id="Shape"></g>
                    <polygon id="Path" fill="#FFFFFF" mask="url(#mask-2)" points="-4.295 -3.913 118.781 -3.913 118.781 24.391 -4.295 24.391"></polygon>
                </g>
                <g id="Clipped">
                    <mask id="mask-4" fill="white">
                        <use xlink:href="#path-3"></use>
                    </mask>
                    <g id="Path"></g>
                    <polygon id="Path" fill="#FFFFFF" mask="url(#mask-4)" points="-4.9141 -4.7728 61.671 -4.7728 61.671 67.773 -4.9141 67.773"></polygon>
                </g>
                <g id="Clipped" transform="translate(37.000000, 13.000000)">
                    <mask id="mask-6" fill="white">
                        <use xlink:href="#path-5"></use>
                    </mask>
                    <g id="Path"></g>
                    <polygon id="Path" fill="#FFFFFF" mask="url(#mask-6)" points="-4.041 -4.25 40.854 -4.25 40.854 41.25 -4.041 41.25"></polygon>
                </g>
            </g>
        </g>
    </g>
</svg>