<?xml version="1.0" encoding="UTF-8"?>
<svg width="267px" height="438px" viewBox="0 0 267 438" version="1.1" xmlns="http://www.w3.org/2000/svg" xmlns:xlink="http://www.w3.org/1999/xlink">
    <!-- Generator: Sketch 57.1 (83088) - https://sketch.com -->
    <title>ui</title>
    <desc>Created with Sketch.</desc>
    <defs>
        <path d="M175.171,0 L191.63,22.852 L250.36,22.852 C259.45,22.852 266.819,30.391 266.819,39.69 L266.819,422.162 C266.819,431.461 259.45,439 250.36,439 L16.459,439 C7.369,439 0,431.461 0,422.162 L0,39.69 C0,30.391 7.369,22.852 16.459,22.852 L158.712,22.852 L175.171,0 Z" id="path-1"></path>
        <linearGradient x1="50.0001878%" y1="0.000686324629%" x2="50.0001878%" y2="100.001621%" id="linearGradient-3">
            <stop stop-color="#E2A68F" offset="0%"></stop>
            <stop stop-color="#E9A68F" offset="100%"></stop>
        </linearGradient>
        <linearGradient x1="49.9998924%" y1="0.000686324629%" x2="49.9998924%" y2="100.001621%" id="linearGradient-4">
            <stop stop-color="#E585A1" offset="0%"></stop>
            <stop stop-color="#F0646E" offset="100%"></stop>
        </linearGradient>
        <polygon id="path-5" points="7.064 0.89 7.064 11.715 4.418 9.009 0.01 9.009 0.01 3.596 4.418 3.596"></polygon>
        <polygon id="path-7" points="1.013 12.616 0.129 11.724 10.71 0.89 11.591 1.792"></polygon>
        <polygon id="path-9" points="6.301 0.427 6.301 11.252 3.656 8.546 0.129 8.546 0.129 3.134 3.656 3.134"></polygon>
        <path d="M1.407,0.738 L0.77,1.39 C1.878,2.532 2.564,4.104 2.564,5.841 C2.564,7.578 1.878,9.149 0.77,10.291 L1.407,10.943 C2.684,9.637 3.473,7.833 3.473,5.84 C3.473,3.848 2.684,2.044 1.407,0.738 Z" id="path-11"></path>
        <path d="M1.174,0.028 L0.551,0.666 C1.34,1.482 1.829,2.602 1.829,3.84 C1.829,5.079 1.34,6.199 0.551,7.015 L1.174,7.653 C2.123,6.674 2.711,5.328 2.711,3.84 C2.711,2.353 2.123,1.007 1.174,0.028 Z" id="path-13"></path>
        <path d="M0.927,0.303 L0.303,0.941 C0.774,1.429 1.065,2.1 1.065,2.84 C1.065,3.58 0.774,4.25 0.303,4.739 L0.926,5.376 C1.557,4.725 1.946,3.829 1.946,2.84 C1.946,1.851 1.557,0.954 0.927,0.303 Z" id="path-15"></path>
        <polygon id="path-17" points="6.301 0.159 6.301 10.984 3.656 8.277 0.129 8.277 0.129 2.865 3.656 2.865"></polygon>
        <path d="M1.407,0.469 L0.77,1.122 C1.878,2.264 2.564,3.836 2.564,5.572 C2.564,7.309 1.878,8.881 0.77,10.023 L1.407,10.675 C2.684,9.369 3.473,7.565 3.473,5.572 C3.473,3.579 2.684,1.775 1.407,0.469 Z" id="path-19"></path>
        <path d="M1.174,0.76 L0.551,1.398 C1.34,2.213 1.829,3.334 1.829,4.572 C1.829,5.81 1.34,6.931 0.551,7.746 L1.174,8.384 C2.123,7.406 2.711,6.06 2.711,4.572 C2.711,3.085 2.123,1.738 1.174,0.76 Z" id="path-21"></path>
        <path d="M0.927,0.035 L0.303,0.673 C0.774,1.161 1.065,1.831 1.065,2.571 C1.065,3.311 0.774,3.981 0.303,4.47 L0.926,5.108 C1.557,4.456 1.946,3.56 1.946,2.571 C1.946,1.582 1.557,0.686 0.927,0.035 Z" id="path-23"></path>
        <linearGradient x1="50%" y1="0%" x2="50%" y2="100%" id="linearGradient-25">
            <stop stop-color="#B83CF1" offset="0%"></stop>
            <stop stop-color="#6532B9" offset="100%"></stop>
        </linearGradient>
        <linearGradient x1="50%" y1="0%" x2="50%" y2="100%" id="linearGradient-26">
            <stop stop-color="#B83CF1" offset="0%"></stop>
            <stop stop-color="#6532B9" offset="100%"></stop>
        </linearGradient>
        <linearGradient x1="50%" y1="0%" x2="50%" y2="100%" id="linearGradient-27">
            <stop stop-color="#B83CF1" offset="0%"></stop>
            <stop stop-color="#6532B9" offset="100%"></stop>
        </linearGradient>
        <path d="M11.022,15.569 L12.526,14.012 C11.366,13.912 10.531,13.52 9.931,12.907 C8.269,11.21 8.269,8.809 9.921,7.132 L13.185,3.787 C14.846,2.1 17.186,2.09 18.848,3.787 C20.519,5.495 20.499,7.885 18.858,9.573 L17.186,11.27 C17.501,12.013 17.609,12.917 17.432,13.701 L20.244,10.838 C22.662,8.377 22.672,4.862 20.234,2.371 C17.786,-0.13 14.365,-0.11 11.946,2.361 L8.525,5.856 C6.106,8.327 6.097,11.833 8.535,14.324 C9.105,14.916 9.891,15.358 11.022,15.569 Z M11.012,20.3 L14.433,16.795 C16.852,14.324 16.862,10.818 14.424,8.327 C13.853,7.745 13.077,7.303 11.936,7.082 L10.432,8.639 C11.592,8.749 12.428,9.131 13.028,9.743 C14.699,11.441 14.689,13.841 13.037,15.529 L9.774,18.864 C8.112,20.561 5.772,20.561 4.121,18.864 C2.449,17.156 2.459,14.776 4.111,13.088 L5.772,11.381 C5.458,10.647 5.359,9.743 5.526,8.95 L2.715,11.823 C0.296,14.283 0.286,17.789 2.725,20.28 C5.173,22.781 8.594,22.761 11.012,20.3 Z" id="path-28"></path>
        <path d="M2.102,9.137 L2.963,7.189 L7.331,7.189 L8.204,9.137 L9.902,9.137 L5.958,0.718 L4.361,0.718 L0.43,9.137 L2.102,9.137 Z M6.794,5.962 L3.512,5.962 L5.147,2.281 L6.794,5.962 Z M13.051,9.137 L13.051,0.718 L11.428,0.718 L11.428,9.137 L13.051,9.137 Z M17.447,9.137 L17.447,6.683 L19.491,6.683 C19.605,6.682 19.694,6.678 19.756,6.671 L21.541,9.137 L23.288,9.137 L21.279,6.371 C21.878,6.146 22.337,5.805 22.658,5.348 C22.978,4.891 23.138,4.346 23.138,3.713 C23.138,3.095 22.988,2.562 22.689,2.113 C22.389,1.664 21.959,1.319 21.397,1.079 C20.836,0.838 20.176,0.718 19.419,0.718 L15.825,0.718 L15.825,9.137 L17.447,9.137 Z M19.344,5.397 L17.447,5.397 L17.447,2.041 L19.344,2.041 C20.052,2.041 20.588,2.185 20.954,2.474 C21.32,2.763 21.503,3.175 21.503,3.713 C21.503,4.25 21.32,4.665 20.954,4.958 C20.588,5.25 20.052,5.397 19.344,5.397 Z M28.633,9.137 L28.633,2.041 L31.528,2.041 L31.528,0.718 L24.116,0.718 L24.116,2.041 L27.011,2.041 L27.011,9.137 L28.633,9.137 Z M33.167,9.137 L34.028,7.189 L38.396,7.189 L39.27,9.137 L40.967,9.137 L37.024,0.718 L35.426,0.718 L31.495,9.137 L33.167,9.137 Z M37.86,5.962 L34.578,5.962 L36.212,2.281 L37.86,5.962 Z M44.116,9.137 L44.116,6.708 L46.088,6.708 C46.845,6.708 47.504,6.587 48.066,6.347 C48.627,6.106 49.058,5.759 49.357,5.306 C49.657,4.853 49.807,4.322 49.807,3.713 C49.807,3.095 49.657,2.562 49.357,2.113 C49.058,1.664 48.627,1.319 48.066,1.079 C47.504,0.838 46.845,0.718 46.088,0.718 L42.494,0.718 L42.494,9.137 L44.116,9.137 Z M46.013,5.385 L44.116,5.385 L44.116,2.041 L46.013,2.041 C46.72,2.041 47.257,2.185 47.623,2.474 C47.989,2.763 48.172,3.175 48.172,3.713 C48.172,4.25 47.989,4.663 47.623,4.952 C47.257,5.24 46.72,5.385 46.013,5.385 Z" id="path-30"></path>
        <path d="M14.918,0.893 C19.132,0.893 22.914,2.704 25.499,5.575 C25.114,5.528 24.722,5.504 24.324,5.504 C19.129,5.504 14.918,9.632 14.918,14.725 C14.918,19.817 19.129,23.946 24.324,23.946 C24.722,23.946 25.114,23.921 25.499,23.874 C22.914,26.745 19.132,28.556 14.918,28.556 C7.127,28.556 0.811,22.364 0.811,14.725 C0.811,7.086 7.127,0.893 14.918,0.893 Z" id="path-32"></path>
        <path d="M7.911,16.542 C12.132,16.542 15.553,13.042 15.553,8.725 C15.553,4.407 12.132,0.907 7.911,0.907 C3.691,0.907 0.27,4.407 0.27,8.725 C0.27,13.042 3.691,16.542 7.911,16.542 Z" id="path-34"></path>
    </defs>
    <g id="Page-1" stroke="none" stroke-width="1" fill="none" fill-rule="evenodd">
        <g id="Artboard" transform="translate(-98.000000, -59.000000)">
            <g id="ui" transform="translate(98.000000, 58.000000)">
                <path d="M175.171,1.014 L191.333,23.454 L250.36,23.454 C254.742,23.454 258.71,25.271 261.582,28.21 C264.454,31.148 266.231,35.207 266.231,39.691 L266.231,422.162 C266.231,426.646 264.454,430.705 261.582,433.643 C258.71,436.582 254.742,438.399 250.36,438.399 L16.459,438.399 C12.076,438.399 8.109,436.582 5.236,433.643 C2.364,430.705 0.588,426.646 0.588,422.162 L0.588,39.691 C0.588,35.207 2.364,31.148 5.236,28.21 C8.109,25.271 12.076,23.454 16.459,23.454 L159.009,23.454 L175.171,1.014 Z" id="Path" stroke-opacity="0.296493" stroke="#CCC9CB" fill="#FFFFFF"></path>
                <g id="Clipped">
                    <mask id="mask-2" fill="white">
                        <use xlink:href="#path-1"></use>
                    </mask>
                    <g id="Path"></g>
                    <g id="Group" mask="url(#mask-2)" stroke-linecap="square" stroke-width="2">
                        <g transform="translate(-47.000000, 136.000000)" id="Path">
                            <path d="M47.588,13.375 L58.331,17.363 C65.911,20.176 74.27,19.812 81.588,16.349 L104.563,5.478 C112.934,1.516 122.607,1.634 130.884,5.798 L154.486,17.672 C163.076,21.994 173.149,21.949 181.702,17.55 L207.764,4.148 C216.638,-0.416 227.127,-0.283 235.889,4.503 L255.187,15.045 C262.991,19.307 272.217,19.902 280.482,16.676 L313.871,3.642" stroke="url(#linearGradient-3)"></path>
                            <path d="M325.914,16.842 L308.738,7.11 C299.971,2.142 289.425,1.702 280.291,5.923 L258.767,15.87 C250.68,19.607 241.405,19.565 233.352,15.754 L211.634,5.478 C203.263,1.516 193.591,1.634 185.314,5.798 L161.712,17.672 C153.121,21.994 143.048,21.949 134.495,17.55 L108.434,4.148 C99.559,-0.416 89.07,-0.283 80.308,4.503 L57.945,16.719 C51.969,19.984 45.1021,21.124 38.4232,19.962 L0.5627,13.375" stroke="url(#linearGradient-4)"></path>
                        </g>
                    </g>
                </g>
                <path d="M70.142,388.654 C72.497,388.654 73.93,387.477 73.93,385.624 L73.93,385.617 C73.93,384.045 73.049,383.192 70.996,382.748 L69.907,382.516 C68.667,382.241 68.103,381.776 68.103,381.015 L68.103,381.008 C68.103,380.12 68.888,379.521 70.121,379.514 C71.299,379.514 72.098,380.085 72.236,381.029 L72.243,381.128 L73.744,381.128 L73.737,381.008 C73.634,379.302 72.215,378.147 70.142,378.147 C68.041,378.147 66.546,379.338 66.539,381.071 L66.539,381.078 C66.539,382.586 67.483,383.503 69.432,383.925 L70.514,384.158 C71.829,384.454 72.373,384.898 72.373,385.715 L72.373,385.722 C72.373,386.674 71.533,387.287 70.204,387.287 C68.874,387.287 67.958,386.702 67.82,385.765 L67.806,385.673 L66.305,385.673 L66.312,385.779 C66.436,387.569 67.91,388.654 70.142,388.654 Z M77.863,388.633 C78.166,388.633 78.449,388.598 78.621,388.57 L78.621,387.393 C78.511,387.407 78.38,387.421 78.221,387.421 C77.595,387.421 77.264,387.195 77.264,386.441 L77.264,382.283 L78.621,382.283 L78.621,381.071 L77.264,381.071 L77.264,379.14 L75.742,379.14 L75.742,381.071 L74.701,381.071 L74.701,382.283 L75.742,382.283 L75.742,386.533 C75.742,388.013 76.43,388.633 77.863,388.633 Z M82.954,388.633 C84.71,388.633 85.826,387.562 86.06,386.385 L86.074,386.307 L84.662,386.307 L84.641,386.364 C84.455,386.92 83.87,387.386 82.988,387.386 C81.803,387.386 81.052,386.568 81.025,385.166 L86.157,385.166 L86.157,384.651 C86.157,382.424 84.91,380.93 82.878,380.93 C80.846,380.93 79.537,382.481 79.537,384.799 L79.537,384.806 C79.537,387.146 80.825,388.633 82.954,388.633 Z M84.683,384.087 L81.045,384.087 C81.176,382.847 81.92,382.178 82.885,382.178 C83.856,382.178 84.559,382.805 84.683,384.087 Z M88.981,390.951 L88.981,387.238 L89.015,387.238 C89.442,388.097 90.276,388.633 91.302,388.633 C93.121,388.633 94.312,387.146 94.312,384.785 L94.312,384.778 C94.312,382.41 93.128,380.93 91.281,380.93 C90.248,380.93 89.449,381.466 89.015,382.347 L88.981,382.347 L88.981,381.071 L87.493,381.071 L87.493,390.951 L88.981,390.951 Z M90.896,387.322 C89.773,387.322 88.974,386.321 88.974,384.785 L88.974,384.778 C88.974,383.235 89.766,382.234 90.896,382.234 C92.06,382.234 92.797,383.199 92.797,384.778 L92.797,384.785 C92.797,386.35 92.067,387.322 90.896,387.322 Z M97.191,388.485 L97.191,384.193 C97.191,383.037 97.873,382.234 98.9,382.234 C99.947,382.234 100.553,382.967 100.553,384.193 L100.553,388.485 L102.041,388.485 L102.041,383.904 C102.041,382.114 101.021,380.93 99.472,380.93 C98.39,380.93 97.612,381.431 97.226,382.29 L97.191,382.29 L97.191,378.316 L95.703,378.316 L95.703,388.485 L97.191,388.485 Z M113.062,388.485 L113.062,387.125 L108.433,387.125 L108.433,378.316 L106.89,378.316 L106.89,388.485 L113.062,388.485 Z M114.556,390.959 C115.975,390.959 116.733,390.367 117.27,388.83 L119.971,381.071 L118.4,381.071 L116.575,387.104 L116.526,387.104 L114.701,381.071 L113.089,381.071 L115.727,388.492 L115.603,388.844 C115.355,389.563 114.97,389.753 114.267,389.753 C114.067,389.753 113.895,389.725 113.778,389.697 L113.778,390.888 C113.957,390.923 114.267,390.959 114.556,390.959 Z M123.483,388.633 C124.586,388.633 125.323,388.118 125.702,387.371 L125.736,387.371 L125.736,388.485 L127.231,388.485 L127.231,381.071 L125.736,381.071 L125.736,385.398 C125.736,386.554 125.061,387.322 124.014,387.322 C122.981,387.322 122.471,386.702 122.471,385.581 L122.471,381.071 L120.983,381.071 L120.983,385.877 C120.983,387.583 121.892,388.633 123.483,388.633 Z" id="Shape" fill="#000000" fill-rule="nonzero"></path>
                <g id="Clipped" transform="translate(236.000000, 390.000000)">
                    <mask id="mask-6" fill="white">
                        <use xlink:href="#path-5"></use>
                    </mask>
                    <g id="Path"></g>
                    <polygon id="Path" fill="#000000" mask="url(#mask-6)" points="-5.867 -5.123 12.943 -5.123 12.943 17.729 -5.867 17.729"></polygon>
                </g>
                <g id="Clipped" transform="translate(235.000000, 390.000000)">
                    <mask id="mask-8" fill="white">
                        <use xlink:href="#path-7"></use>
                    </mask>
                    <g id="Path"></g>
                    <polygon id="Path" fill="#000000" mask="url(#mask-8)" points="-5.75 -5.123 17.469 -5.123 17.469 18.629 -5.75 18.629"></polygon>
                </g>
                <g id="Clipped" transform="translate(235.000000, 275.000000)">
                    <mask id="mask-10" fill="white">
                        <use xlink:href="#path-9"></use>
                    </mask>
                    <g id="Path"></g>
                    <polygon id="Path" fill="#000000" mask="url(#mask-10)" points="-5.75 -5.586 12.179 -5.586 12.179 17.266 -5.75 17.266"></polygon>
                </g>
                <g id="Clipped" transform="translate(244.000000, 275.000000)">
                    <mask id="mask-12" fill="white">
                        <use xlink:href="#path-11"></use>
                    </mask>
                    <g id="Path"></g>
                    <polygon id="Path" fill="#000000" mask="url(#mask-12)" points="-5.109 -5.276 9.351 -5.276 9.351 16.956 -5.109 16.956"></polygon>
                </g>
                <g id="Clipped" transform="translate(243.000000, 277.000000)">
                    <mask id="mask-14" fill="white">
                        <use xlink:href="#path-13"></use>
                    </mask>
                    <g id="Path"></g>
                    <polygon id="Path" fill="#000000" mask="url(#mask-14)" points="-5.328 -5.987 8.588 -5.987 8.588 13.665 -5.328 13.665"></polygon>
                </g>
                <g id="Clipped" transform="translate(242.000000, 278.000000)">
                    <mask id="mask-16" fill="white">
                        <use xlink:href="#path-15"></use>
                    </mask>
                    <g id="Path"></g>
                    <polygon id="Path" fill="#000000" mask="url(#mask-16)" points="-5.574 -5.711 7.826 -5.711 7.826 11.39 -5.574 11.39"></polygon>
                </g>
                <g id="Clipped" transform="translate(235.000000, 333.000000)">
                    <mask id="mask-18" fill="white">
                        <use xlink:href="#path-17"></use>
                    </mask>
                    <g id="Path"></g>
                    <polygon id="Path" fill="#000000" mask="url(#mask-18)" points="-5.75 -5.855 12.179 -5.855 12.179 16.997 -5.75 16.997"></polygon>
                </g>
                <g id="Clipped" transform="translate(244.000000, 333.000000)">
                    <mask id="mask-20" fill="white">
                        <use xlink:href="#path-19"></use>
                    </mask>
                    <g id="Path"></g>
                    <polygon id="Path" fill="#000000" mask="url(#mask-20)" points="-5.109 -5.545 9.351 -5.545 9.351 16.688 -5.109 16.688"></polygon>
                </g>
                <g id="Clipped" transform="translate(243.000000, 334.000000)">
                    <mask id="mask-22" fill="white">
                        <use xlink:href="#path-21"></use>
                    </mask>
                    <g id="Path"></g>
                    <polygon id="Path" fill="#000000" mask="url(#mask-22)" points="-5.328 -5.255 8.588 -5.255 8.588 14.397 -5.328 14.397"></polygon>
                </g>
                <g id="Clipped" transform="translate(242.000000, 336.000000)">
                    <mask id="mask-24" fill="white">
                        <use xlink:href="#path-23"></use>
                    </mask>
                    <g id="Path"></g>
                    <polygon id="Path" fill="#000000" mask="url(#mask-24)" points="-5.574 -5.979 7.826 -5.979 7.826 11.121 -5.574 11.121"></polygon>
                </g>
                <path d="M133.435,193.641 C153.239,193.641 169.292,177.217 169.292,156.957 C169.292,136.698 153.239,120.274 133.435,120.274 C113.632,120.274 97.578,136.698 97.578,156.957 C97.578,177.217 113.632,193.641 133.435,193.641 Z" id="Path" fill="url(#linearGradient-25)" fill-rule="nonzero"></path>
                <path d="M132.202,167.181 C133.261,167.181 134.023,166.503 134.023,165.533 C134.023,165.215 133.953,164.897 133.783,164.44 L127.853,148.658 C127.345,147.316 126.526,146.734 125.185,146.734 C123.858,146.734 123.039,147.343 122.545,148.672 L116.629,164.44 C116.459,164.869 116.389,165.257 116.389,165.533 C116.389,166.544 117.109,167.181 118.224,167.181 C119.17,167.181 119.707,166.724 120.045,165.644 L121.387,161.851 L128.997,161.851 L130.338,165.672 C130.663,166.738 131.214,167.181 132.202,167.181 Z M128.145,158.762 L122.267,158.762 L125.142,150.342 L125.241,150.342 L128.145,158.762 Z M147.664,167.181 C148.652,167.181 149.307,166.593 149.307,165.654 C149.307,164.716 148.639,164.128 147.664,164.128 L139.966,164.128 L139.966,148.611 C139.966,147.42 139.298,146.734 138.17,146.734 C137.057,146.734 136.375,147.42 136.375,148.611 L136.375,165.304 C136.375,166.481 137.057,167.181 138.17,167.181 L147.664,167.181 Z" id="Shape" fill="#FFFFFF" fill-rule="nonzero"></path>
                <path d="M37.621,299.482 C48.009,299.482 56.431,290.866 56.431,280.238 C56.431,269.61 48.009,260.995 37.621,260.995 C27.232,260.995 18.811,269.61 18.811,280.238 C18.811,290.866 27.232,299.482 37.621,299.482 Z" id="Path" fill="url(#linearGradient-26)" fill-rule="nonzero"></path>
                <path d="M37.621,357.214 C48.009,357.214 56.431,348.598 56.431,337.97 C56.431,327.342 48.009,318.726 37.621,318.726 C27.232,318.726 18.811,327.342 18.811,337.97 C18.811,348.598 27.232,357.214 37.621,357.214 Z" id="Path" fill="url(#linearGradient-27)" fill-rule="nonzero"></path>
                <path d="M37.621,413.743 C48.009,413.743 56.431,405.127 56.431,394.499 C56.431,383.871 48.009,375.255 37.621,375.255 C27.232,375.255 18.811,383.871 18.811,394.499 C18.811,405.127 27.232,413.743 37.621,413.743 Z" id="Path" fill="url(#linearGradient-27)" fill-rule="nonzero"></path>
                <path d="M36.527,286.252 C37.162,286.252 37.62,285.853 37.62,285.283 C37.62,285.096 37.578,284.908 37.476,284.64 L33.918,275.357 C33.613,274.567 33.122,274.225 32.317,274.225 C31.52,274.225 31.029,274.583 30.733,275.365 L27.183,284.64 C27.081,284.892 27.039,285.12 27.039,285.283 C27.039,285.878 27.471,286.252 28.14,286.252 C28.708,286.252 29.03,285.983 29.233,285.348 L30.038,283.117 L34.604,283.117 L35.409,285.365 C35.604,285.992 35.934,286.252 36.527,286.252 Z M34.093,281.441 L30.566,281.441 L32.291,276.63 L32.351,276.63 L34.093,281.441 Z M46.129,286.252 C46.668,286.252 47.025,285.906 47.025,285.354 C47.025,284.802 46.661,284.456 46.129,284.456 L41.93,284.456 L41.93,275.329 C41.93,274.628 41.566,274.225 40.951,274.225 C40.343,274.225 39.971,274.628 39.971,275.329 L39.971,285.148 C39.971,285.84 40.343,286.252 40.951,286.252 L46.129,286.252 Z" id="Shape" fill="#FFFFFF" fill-rule="nonzero"></path>
                <polygon id="Path" fill="#D2D4D6" fill-rule="nonzero" points="266.871 87.8 0 87.8 0 89.003 266.871 89.003"></polygon>
                <g id="Clipped" transform="translate(226.000000, 44.000000)">
                    <mask id="mask-29" fill="white">
                        <use xlink:href="#path-28"></use>
                    </mask>
                    <g id="Shape"></g>
                    <polygon id="Path" fill="#000000" mask="url(#mask-29)" points="-0.021 -0.44 22.98 -0.44 22.98 23.091 -0.021 23.091"></polygon>
                </g>
                <g id="Clipped" transform="translate(56.000000, 51.000000)">
                    <mask id="mask-31" fill="white">
                        <use xlink:href="#path-30"></use>
                    </mask>
                    <g id="Shape"></g>
                    <polygon id="Path" fill="#35395B" mask="url(#mask-31)" points="-1.65 -1.287 51.886 -1.287 51.886 11.142 -1.65 11.142"></polygon>
                </g>
                <g id="Clipped" transform="translate(18.000000, 40.000000)">
                    <mask id="mask-33" fill="white">
                        <use xlink:href="#path-32"></use>
                    </mask>
                    <g id="Path"></g>
                    <polygon id="Path" fill="#35395B" mask="url(#mask-33)" points="-1.328 -1.203 27.636 -1.203 27.636 30.652 -1.328 30.652"></polygon>
                </g>
                <g id="Clipped" transform="translate(35.000000, 46.000000)">
                    <mask id="mask-35" fill="white">
                        <use xlink:href="#path-34"></use>
                    </mask>
                    <g id="Path"></g>
                    <polygon id="Path" fill="#35395B" mask="url(#mask-35)" points="-1.854 -1.265 17.675 -1.265 17.675 18.714 -1.854 18.714"></polygon>
                </g>
                <path d="M56.873,227.318 L57.853,224.251 L62.169,224.251 L63.15,227.318 L65.328,227.318 L61.181,215.454 L58.85,215.454 L54.703,227.318 L56.873,227.318 Z M61.647,222.615 L58.376,222.615 L59.991,217.567 L60.039,217.567 L61.647,222.615 Z M68.414,227.318 L68.414,215.454 L66.412,215.454 L66.412,227.318 L68.414,227.318 Z M73.862,227.49 C76.089,227.49 77.342,226.142 77.608,224.802 L77.632,224.711 L75.759,224.711 L75.743,224.769 C75.55,225.353 74.899,225.895 73.903,225.895 C72.601,225.895 71.781,224.991 71.749,223.462 L77.712,223.462 L77.712,222.804 C77.712,220.173 76.201,218.422 73.766,218.422 C71.331,218.422 69.764,220.231 69.764,222.977 L69.764,222.985 C69.764,225.756 71.307,227.49 73.862,227.49 Z M75.767,222.097 L71.773,222.097 C71.934,220.757 72.729,220.025 73.79,220.025 C74.851,220.025 75.622,220.716 75.767,222.097 Z M81.087,227.318 L81.087,224.292 L81.762,223.569 L84.455,227.318 L86.761,227.318 L83.249,222.352 L86.625,218.603 L84.31,218.603 L81.128,222.22 L81.087,222.22 L81.087,215.454 L79.086,215.454 L79.086,227.318 L81.087,227.318 Z M90.86,227.49 C92.949,227.49 94.436,226.389 94.436,224.744 L94.436,224.736 C94.436,223.47 93.753,222.763 91.993,222.36 L90.571,222.039 C89.687,221.834 89.357,221.505 89.357,221.003 L89.357,220.995 C89.357,220.354 89.912,219.935 90.796,219.935 C91.728,219.935 92.274,220.444 92.363,221.143 L92.371,221.209 L94.235,221.209 L94.227,221.119 C94.155,219.614 92.917,218.422 90.796,218.422 C88.738,218.422 87.38,219.499 87.38,221.094 L87.38,221.102 C87.38,222.393 88.2,223.207 89.831,223.577 L91.246,223.898 C92.13,224.103 92.427,224.399 92.427,224.925 L92.427,224.933 C92.427,225.575 91.84,225.978 90.868,225.978 C89.855,225.978 89.301,225.534 89.148,224.785 L89.132,224.711 L87.163,224.711 L87.171,224.785 C87.348,226.405 88.626,227.49 90.86,227.49 Z M98.221,227.466 C99.347,227.466 100.295,226.89 100.785,225.978 L100.833,225.978 L100.833,227.318 L102.834,227.318 L102.834,221.324 C102.834,219.573 101.46,218.422 99.331,218.422 C97.169,218.422 95.859,219.581 95.738,221.127 L95.73,221.225 L97.587,221.225 L97.603,221.151 C97.731,220.51 98.31,220.058 99.258,220.058 C100.271,220.058 100.833,220.592 100.833,221.472 L100.833,222.072 L98.607,222.212 C96.542,222.344 95.368,223.273 95.368,224.818 L95.368,224.835 C95.368,226.389 96.518,227.466 98.221,227.466 Z M98.816,225.904 C97.94,225.904 97.362,225.468 97.362,224.753 L97.362,224.744 C97.362,224.054 97.9,223.618 98.888,223.552 L100.833,223.429 L100.833,224.087 C100.833,225.123 99.965,225.904 98.816,225.904 Z M106.443,227.318 L106.443,222.261 C106.443,221.003 107.174,220.148 108.323,220.148 C109.465,220.148 110.027,220.847 110.027,222.089 L110.027,227.318 L112.028,227.318 L112.028,221.678 C112.028,219.655 110.96,218.422 109.087,218.422 C107.793,218.422 106.925,219.03 106.483,219.967 L106.443,219.967 L106.443,218.603 L104.442,218.603 L104.442,227.318 L106.443,227.318 Z M116.794,227.49 C118.024,227.49 118.964,226.866 119.446,225.838 L119.494,225.838 L119.494,227.318 L121.496,227.318 L121.496,215.454 L119.494,215.454 L119.494,220.099 L119.446,220.099 C118.964,219.055 117.992,218.422 116.786,218.422 C114.648,218.422 113.274,220.14 113.274,222.952 L113.274,222.96 C113.274,225.764 114.64,227.49 116.794,227.49 Z M117.397,225.764 C116.111,225.764 115.315,224.695 115.315,222.96 L115.315,222.952 C115.315,221.217 116.119,220.148 117.397,220.148 C118.626,220.148 119.494,221.25 119.494,222.952 L119.494,222.96 C119.494,224.67 118.634,225.764 117.397,225.764 Z M125.176,227.318 L125.176,222.261 C125.176,220.971 125.859,220.239 126.993,220.239 C127.33,220.239 127.636,220.288 127.804,220.354 L127.804,218.504 C127.652,218.463 127.419,218.422 127.169,218.422 C126.189,218.422 125.482,219.055 125.216,220.107 L125.176,220.107 L125.176,218.603 L123.175,218.603 L123.175,227.318 L125.176,227.318 Z M133.189,217.353 C133.816,217.353 134.298,216.843 134.298,216.235 C134.298,215.61 133.816,215.108 133.189,215.108 C132.562,215.108 132.072,215.61 132.072,216.235 C132.072,216.843 132.562,217.353 133.189,217.353 Z M134.185,227.318 L134.185,218.603 L132.184,218.603 L132.184,227.318 L134.185,227.318 Z M139.208,227.49 C141.298,227.49 142.785,226.389 142.785,224.744 L142.785,224.736 C142.785,223.47 142.101,222.763 140.341,222.36 L138.919,222.039 C138.035,221.834 137.705,221.505 137.705,221.003 L137.705,220.995 C137.705,220.354 138.26,219.935 139.144,219.935 C140.076,219.935 140.623,220.444 140.711,221.143 L140.719,221.209 L142.584,221.209 L142.576,221.119 C142.503,219.614 141.266,218.422 139.144,218.422 C137.087,218.422 135.728,219.499 135.728,221.094 L135.728,221.102 C135.728,222.393 136.548,223.207 138.18,223.577 L139.594,223.898 C140.478,224.103 140.775,224.399 140.775,224.925 L140.775,224.933 C140.775,225.575 140.189,225.978 139.216,225.978 C138.204,225.978 137.649,225.534 137.496,224.785 L137.48,224.711 L135.511,224.711 L135.519,224.785 C135.696,226.405 136.974,227.49 139.208,227.49 Z M150.677,227.49 C152.766,227.49 154.253,226.389 154.253,224.744 L154.253,224.736 C154.253,223.47 153.57,222.763 151.81,222.36 L150.387,222.039 C149.503,221.834 149.174,221.505 149.174,221.003 L149.174,220.995 C149.174,220.354 149.728,219.935 150.612,219.935 C151.544,219.935 152.091,220.444 152.179,221.143 L152.187,221.209 L154.052,221.209 L154.044,221.119 C153.972,219.614 152.734,218.422 150.612,218.422 C148.555,218.422 147.197,219.499 147.197,221.094 L147.197,221.102 C147.197,222.393 148.016,223.207 149.648,223.577 L151.062,223.898 C151.946,224.103 152.244,224.399 152.244,224.925 L152.244,224.933 C152.244,225.575 151.657,225.978 150.685,225.978 C149.672,225.978 149.117,225.534 148.965,224.785 L148.949,224.711 L146.98,224.711 L146.988,224.785 C147.165,226.405 148.442,227.49 150.677,227.49 Z M157.524,230.195 L157.524,225.846 L157.564,225.846 C158.046,226.866 159.019,227.49 160.232,227.49 C162.37,227.49 163.736,225.764 163.736,222.968 L163.736,222.96 C163.736,220.148 162.37,218.422 160.208,218.422 C158.986,218.422 158.054,219.063 157.564,220.107 L157.524,220.107 L157.524,218.603 L155.523,218.603 L155.523,230.195 L157.524,230.195 Z M159.613,225.764 C158.376,225.764 157.508,224.67 157.508,222.968 L157.508,222.96 C157.508,221.25 158.376,220.148 159.613,220.148 C160.891,220.148 161.695,221.217 161.695,222.96 L161.695,222.968 C161.695,224.687 160.891,225.764 159.613,225.764 Z M168.767,227.49 C170.993,227.49 172.247,226.142 172.512,224.802 L172.536,224.711 L170.664,224.711 L170.648,224.769 C170.455,225.353 169.804,225.895 168.807,225.895 C167.505,225.895 166.685,224.991 166.653,223.462 L172.617,223.462 L172.617,222.804 C172.617,220.173 171.106,218.422 168.671,218.422 C166.235,218.422 164.668,220.231 164.668,222.977 L164.668,222.985 C164.668,225.756 166.211,227.49 168.767,227.49 Z M170.672,222.097 L166.677,222.097 C166.838,220.757 167.634,220.025 168.695,220.025 C169.755,220.025 170.527,220.716 170.672,222.097 Z M176.418,227.466 C177.543,227.466 178.491,226.89 178.982,225.978 L179.03,225.978 L179.03,227.318 L181.031,227.318 L181.031,221.324 C181.031,219.573 179.657,218.422 177.527,218.422 C175.365,218.422 174.055,219.581 173.935,221.127 L173.926,221.225 L175.783,221.225 L175.799,221.151 C175.928,220.51 176.506,220.058 177.455,220.058 C178.467,220.058 179.03,220.592 179.03,221.472 L179.03,222.072 L176.804,222.212 C174.738,222.344 173.565,223.273 173.565,224.818 L173.565,224.835 C173.565,226.389 174.714,227.466 176.418,227.466 Z M177.013,225.904 C176.137,225.904 175.558,225.468 175.558,224.753 L175.558,224.744 C175.558,224.054 176.096,223.618 177.085,223.552 L179.03,223.429 L179.03,224.087 C179.03,225.123 178.162,225.904 177.013,225.904 Z M184.728,227.318 L184.728,224.292 L185.403,223.569 L188.095,227.318 L190.402,227.318 L186.89,222.352 L190.265,218.603 L187.95,218.603 L184.768,222.22 L184.728,222.22 L184.728,215.454 L182.727,215.454 L182.727,227.318 L184.728,227.318 Z M192.234,217.353 C192.861,217.353 193.343,216.843 193.343,216.235 C193.343,215.61 192.861,215.108 192.234,215.108 C191.607,215.108 191.117,215.61 191.117,216.235 C191.117,216.843 191.607,217.353 192.234,217.353 Z M193.23,227.318 L193.23,218.603 L191.229,218.603 L191.229,227.318 L193.23,227.318 Z M196.927,227.318 L196.927,222.261 C196.927,221.003 197.659,220.148 198.808,220.148 C199.949,220.148 200.512,220.847 200.512,222.089 L200.512,227.318 L202.513,227.318 L202.513,221.678 C202.513,219.655 201.444,218.422 199.571,218.422 C198.277,218.422 197.409,219.03 196.967,219.967 L196.927,219.967 L196.927,218.603 L194.926,218.603 L194.926,227.318 L196.927,227.318 Z M207.954,230.368 C210.421,230.368 211.972,229.044 211.972,227.071 L211.972,218.603 L209.971,218.603 L209.971,220.083 L209.923,220.083 C209.44,219.08 208.508,218.422 207.303,218.422 C205.149,218.422 203.758,220.115 203.758,222.87 L203.758,222.878 C203.758,225.591 205.133,227.269 207.27,227.269 C208.492,227.269 209.456,226.677 209.931,225.747 L209.971,225.747 L209.971,227.005 C209.971,228.115 209.255,228.822 207.954,228.822 C206.909,228.822 206.226,228.444 206.009,227.943 L205.985,227.877 L204.016,227.877 L204.032,227.951 C204.273,229.316 205.695,230.368 207.954,230.368 Z M207.897,225.69 C206.611,225.69 205.8,224.629 205.8,222.911 L205.8,222.903 C205.8,221.209 206.611,220.148 207.897,220.148 C209.135,220.148 209.979,221.225 209.979,222.911 L209.979,222.919 C209.979,224.613 209.143,225.69 207.897,225.69 Z" id="Shape" fill="#000000" fill-rule="nonzero"></path>
                <path d="M67.634,274.225 L68.551,271.476 L72.381,271.476 L73.29,274.225 L74.909,274.225 L71.299,264.055 L69.632,264.055 L66.016,274.225 L67.634,274.225 Z M71.96,270.208 L68.964,270.208 L70.452,265.74 L70.479,265.74 L71.96,270.208 Z M77.368,274.225 L77.368,264.055 L75.88,264.055 L75.88,274.225 L77.368,274.225 Z M81.99,274.373 C83.747,274.373 84.863,273.301 85.097,272.125 L85.111,272.047 L83.699,272.047 L83.678,272.103 C83.492,272.66 82.906,273.125 82.025,273.125 C80.84,273.125 80.089,272.308 80.061,270.905 L85.193,270.905 L85.193,270.391 C85.193,268.164 83.946,266.67 81.914,266.67 C79.882,266.67 78.573,268.22 78.573,270.539 L78.573,270.546 C78.573,272.886 79.862,274.373 81.99,274.373 Z M83.719,269.827 L80.082,269.827 C80.213,268.587 80.957,267.917 81.921,267.917 C82.893,267.917 83.595,268.545 83.719,269.827 Z M87.914,274.225 L87.914,271.554 L88.534,270.927 L90.993,274.225 L92.722,274.225 L89.63,270.01 L92.605,266.811 L90.856,266.811 L87.949,269.975 L87.914,269.975 L87.914,264.055 L86.426,264.055 L86.426,274.225 L87.914,274.225 Z M96.174,274.373 C97.882,274.373 99.122,273.442 99.122,272.089 L99.122,272.082 C99.122,271.018 98.557,270.419 97.076,270.067 L95.898,269.792 C95.12,269.602 94.823,269.292 94.823,268.833 L94.823,268.826 C94.823,268.234 95.326,267.847 96.125,267.847 C96.966,267.847 97.462,268.298 97.551,268.946 L97.558,268.996 L98.957,268.996 L98.95,268.911 C98.874,267.65 97.841,266.67 96.125,266.67 C94.458,266.67 93.329,267.579 93.329,268.904 L93.329,268.911 C93.329,269.989 94.011,270.666 95.388,270.99 L96.573,271.265 C97.352,271.455 97.613,271.73 97.613,272.209 L97.613,272.216 C97.613,272.815 97.076,273.196 96.181,273.196 C95.264,273.196 94.768,272.794 94.631,272.11 L94.617,272.04 L93.143,272.04 L93.15,272.103 C93.301,273.456 94.362,274.373 96.174,274.373 Z M102.401,274.359 C103.358,274.359 104.199,273.851 104.619,273.055 L104.647,273.055 L104.647,274.225 L106.141,274.225 L106.141,269.115 C106.141,267.628 105.019,266.67 103.248,266.67 C101.464,266.67 100.383,267.65 100.279,268.925 L100.272,269.003 L101.678,269.003 L101.691,268.939 C101.815,268.347 102.346,267.931 103.207,267.931 C104.13,267.931 104.647,268.425 104.647,269.242 L104.647,269.799 L102.676,269.919 C100.961,270.024 99.983,270.814 99.983,272.103 L99.983,272.118 C99.983,273.449 100.954,274.359 102.401,274.359 Z M102.807,273.139 C102.008,273.139 101.485,272.731 101.485,272.082 L101.485,272.068 C101.485,271.441 101.981,271.039 102.876,270.983 L104.647,270.87 L104.647,271.448 C104.647,272.413 103.854,273.139 102.807,273.139 Z M109.069,274.225 L109.069,269.905 C109.069,268.749 109.744,267.974 110.791,267.974 C111.824,267.974 112.334,268.601 112.334,269.714 L112.334,274.225 L113.829,274.225 L113.829,269.425 C113.829,267.72 112.913,266.67 111.322,266.67 C110.226,266.67 109.482,267.177 109.103,267.931 L109.069,267.931 L109.069,266.811 L107.581,266.811 L107.581,274.225 L109.069,274.225 Z M117.969,274.373 C119.009,274.373 119.808,273.837 120.242,272.97 L120.27,272.97 L120.27,274.225 L121.765,274.225 L121.765,264.055 L120.27,264.055 L120.27,268.072 L120.242,268.072 C119.808,267.198 118.982,266.67 117.955,266.67 C116.137,266.67 114.938,268.15 114.938,270.511 L114.938,270.518 C114.938,272.879 116.123,274.373 117.969,274.373 Z M118.362,273.062 C117.184,273.062 116.46,272.096 116.46,270.518 L116.46,270.511 C116.46,268.946 117.191,267.974 118.362,267.974 C119.478,267.974 120.277,268.974 120.277,270.511 L120.277,270.518 C120.277,272.061 119.484,273.062 118.362,273.062 Z M124.775,274.225 L124.775,269.806 C124.775,268.7 125.367,268.058 126.325,268.058 C126.614,268.058 126.876,268.093 126.993,268.143 L126.993,266.726 C126.876,266.705 126.69,266.67 126.476,266.67 C125.65,266.67 125.044,267.213 124.809,268.079 L124.775,268.079 L124.775,266.811 L123.287,266.811 L123.287,274.225 L124.775,274.225 Z M137.126,274.225 L137.126,272.865 L132.497,272.865 L132.497,264.055 L130.954,264.055 L130.954,274.225 L137.126,274.225 Z M139.075,265.669 C139.565,265.669 139.943,265.275 139.943,264.795 C139.943,264.309 139.565,263.914 139.075,263.914 C138.593,263.914 138.208,264.309 138.208,264.795 C138.208,265.275 138.593,265.669 139.075,265.669 Z M139.819,274.225 L139.819,266.811 L138.331,266.811 L138.331,274.225 L139.819,274.225 Z M143.897,274.373 C144.201,274.373 144.483,274.337 144.655,274.309 L144.655,273.132 C144.545,273.146 144.414,273.161 144.256,273.161 C143.629,273.161 143.298,272.935 143.298,272.181 L143.298,268.023 L144.655,268.023 L144.655,266.811 L143.298,266.811 L143.298,264.88 L141.776,264.88 L141.776,266.811 L140.736,266.811 L140.736,268.023 L141.776,268.023 L141.776,272.273 C141.776,273.752 142.465,274.373 143.897,274.373 Z M147.369,274.225 L147.369,269.806 C147.369,268.7 147.962,268.058 148.919,268.058 C149.208,268.058 149.47,268.093 149.587,268.143 L149.587,266.726 C149.47,266.705 149.284,266.67 149.071,266.67 C148.244,266.67 147.638,267.213 147.404,268.079 L147.369,268.079 L147.369,266.811 L145.881,266.811 L145.881,274.225 L147.369,274.225 Z M153.603,274.373 C155.36,274.373 156.476,273.301 156.71,272.125 L156.724,272.047 L155.312,272.047 L155.291,272.103 C155.105,272.66 154.52,273.125 153.638,273.125 C152.453,273.125 151.702,272.308 151.675,270.905 L156.807,270.905 L156.807,270.391 C156.807,268.164 155.56,266.67 153.528,266.67 C151.495,266.67 150.187,268.22 150.187,270.539 L150.187,270.546 C150.187,272.886 151.475,274.373 153.603,274.373 Z M155.332,269.827 L151.695,269.827 C151.826,268.587 152.57,267.917 153.535,267.917 C154.506,267.917 155.208,268.545 155.332,269.827 Z M161.05,274.373 C162.806,274.373 163.922,273.301 164.157,272.125 L164.17,272.047 L162.758,272.047 L162.738,272.103 C162.552,272.66 161.966,273.125 161.084,273.125 C159.9,273.125 159.149,272.308 159.121,270.905 L164.253,270.905 L164.253,270.391 C164.253,268.164 163.006,266.67 160.974,266.67 C158.942,266.67 157.633,268.22 157.633,270.539 L157.633,270.546 C157.633,272.886 158.921,274.373 161.05,274.373 Z M162.779,269.827 L159.142,269.827 C159.273,268.587 160.017,267.917 160.981,267.917 C161.952,267.917 162.655,268.545 162.779,269.827 Z M168.992,274.225 L171.589,266.811 L170.039,266.811 L168.221,272.738 L168.186,272.738 L166.368,266.811 L164.783,266.811 L167.394,274.225 L168.992,274.225 Z" id="Shape" fill="#000000" fill-rule="nonzero"></path>
                <path d="M88.173,281.441 L69.363,281.441 C67.415,281.441 65.836,283.056 65.836,285.049 L65.836,294.671 C65.836,296.664 67.415,298.279 69.363,298.279 L88.173,298.279 C90.121,298.279 91.7,296.664 91.7,294.671 L91.7,285.049 C91.7,283.056 90.121,281.441 88.173,281.441 Z" id="Path" fill="#FFFFFF" fill-rule="nonzero"></path>
                <path d="M88.173,339.173 L69.363,339.173 C67.415,339.173 65.836,340.788 65.836,342.781 L65.836,352.403 C65.836,354.395 67.415,356.011 69.363,356.011 L88.173,356.011 C90.121,356.011 91.7,354.395 91.7,352.403 L91.7,342.781 C91.7,340.788 90.121,339.173 88.173,339.173 Z" id="Path" fill="#FFFFFF" fill-rule="nonzero"></path>
                <path d="M88.173,395.701 L69.363,395.701 C67.415,395.701 65.836,397.317 65.836,399.31 L65.836,408.931 C65.836,410.924 67.415,412.54 69.363,412.54 L88.173,412.54 C90.121,412.54 91.7,410.924 91.7,408.931 L91.7,399.31 C91.7,397.317 90.121,395.701 88.173,395.701 Z" id="Path" fill="#FFFFFF" fill-rule="nonzero"></path>
                <path d="M110.51,281.441 L98.753,281.441 C96.806,281.441 95.227,283.056 95.227,285.049 L95.227,294.671 C95.227,296.664 96.806,298.279 98.753,298.279 L110.51,298.279 C112.458,298.279 114.037,296.664 114.037,294.671 L114.037,285.049 C114.037,283.056 112.458,281.441 110.51,281.441 Z" id="Path" fill="#FFFFFF" fill-rule="nonzero"></path>
                <path d="M110.51,339.173 L98.753,339.173 C96.806,339.173 95.227,340.788 95.227,342.781 L95.227,352.403 C95.227,354.395 96.806,356.011 98.753,356.011 L110.51,356.011 C112.458,356.011 114.037,354.395 114.037,352.403 L114.037,342.781 C114.037,340.788 112.458,339.173 110.51,339.173 Z" id="Path" fill="#FFFFFF" fill-rule="nonzero"></path>
                <path d="M110.51,395.701 L98.753,395.701 C96.806,395.701 95.227,397.317 95.227,399.31 L95.227,408.931 C95.227,410.924 96.806,412.54 98.753,412.54 L110.51,412.54 C112.458,412.54 114.037,410.924 114.037,408.931 L114.037,399.31 C114.037,397.317 112.458,395.701 110.51,395.701 Z" id="Path" fill="#FFFFFF" fill-rule="nonzero"></path>
                <path d="M82.425,293.453 C82.709,293.453 82.936,293.231 82.936,292.95 C82.936,292.67 82.709,292.448 82.425,292.448 L80.756,292.448 C80.611,292.448 80.524,292.39 80.467,292.269 L77.899,286.449 C77.729,286.074 77.413,285.857 77.016,285.857 L75.109,285.857 C74.82,285.857 74.598,286.079 74.598,286.359 C74.598,286.645 74.82,286.862 75.109,286.862 L76.783,286.862 C76.907,286.862 77,286.92 77.052,287.036 L79.635,292.866 C79.816,293.273 80.084,293.453 80.513,293.453 L82.425,293.453 Z M82.425,286.856 C82.714,286.856 82.931,286.64 82.931,286.354 C82.931,286.074 82.714,285.857 82.425,285.857 L79.971,285.857 C79.681,285.857 79.464,286.074 79.464,286.354 C79.464,286.64 79.681,286.856 79.971,286.856 L82.425,286.856 Z" id="Shape" fill="#888888" fill-rule="nonzero"></path>
                <path d="M82.425,351.184 C82.709,351.184 82.936,350.962 82.936,350.682 C82.936,350.402 82.709,350.18 82.425,350.18 L80.756,350.18 C80.611,350.18 80.524,350.122 80.467,350 L77.899,344.181 C77.729,343.806 77.413,343.589 77.016,343.589 L75.109,343.589 C74.82,343.589 74.598,343.811 74.598,344.091 C74.598,344.376 74.82,344.593 75.109,344.593 L76.783,344.593 C76.907,344.593 77,344.651 77.052,344.768 L79.635,350.598 C79.816,351.005 80.084,351.184 80.513,351.184 L82.425,351.184 Z M82.425,344.588 C82.714,344.588 82.931,344.371 82.931,344.086 C82.931,343.806 82.714,343.589 82.425,343.589 L79.971,343.589 C79.681,343.589 79.464,343.806 79.464,344.086 C79.464,344.371 79.681,344.588 79.971,344.588 L82.425,344.588 Z" id="Shape" fill="#888888" fill-rule="nonzero"></path>
                <path d="M82.425,407.713 C82.709,407.713 82.936,407.491 82.936,407.211 C82.936,406.931 82.709,406.709 82.425,406.709 L80.756,406.709 C80.611,406.709 80.524,406.651 80.467,406.529 L77.899,400.71 C77.729,400.335 77.413,400.118 77.016,400.118 L75.109,400.118 C74.82,400.118 74.598,400.34 74.598,400.62 C74.598,400.905 74.82,401.122 75.109,401.122 L76.783,401.122 C76.907,401.122 77,401.18 77.052,401.296 L79.635,407.126 C79.816,407.533 80.084,407.713 80.513,407.713 L82.425,407.713 Z M82.425,401.117 C82.714,401.117 82.931,400.9 82.931,400.615 C82.931,400.334 82.714,400.118 82.425,400.118 L79.971,400.118 C79.681,400.118 79.464,400.334 79.464,400.615 C79.464,400.9 79.681,401.117 79.971,401.117 L82.425,401.117 Z" id="Shape" fill="#888888" fill-rule="nonzero"></path>
                <polygon id="Path" fill="#888888" fill-rule="nonzero" points="105.686 293.469 105.686 285.842 104.777 285.842 102.793 287.3 102.793 288.257 104.767 286.851 104.787 286.851 104.787 293.469"></polygon>
                <path d="M106.793,351.004 L106.793,350.217 L103.403,350.217 L103.403,350.197 L105.052,348.466 C106.326,347.132 106.677,346.547 106.677,345.77 L106.677,345.76 C106.677,344.648 105.759,343.787 104.504,343.787 C103.21,343.787 102.172,344.697 102.172,345.927 L102.172,345.957 L103.009,345.957 L103.009,345.932 C103.009,345.17 103.653,344.56 104.518,344.56 C105.273,344.56 105.807,345.081 105.812,345.804 L105.812,345.814 C105.812,346.404 105.595,346.788 104.658,347.787 L102.215,350.394 L102.215,351.004 L106.793,351.004 Z" id="Path" fill="#888888" fill-rule="nonzero"></path>
                <path d="M32.772,344.02 C33.419,344.02 33.802,343.619 33.802,342.925 L33.802,333.051 C33.802,332.356 33.419,331.956 32.772,331.956 C32.133,331.956 31.742,332.356 31.742,333.051 L31.742,342.925 C31.742,343.619 32.133,344.02 32.772,344.02 Z M44.236,344.02 C44.835,344.02 45.266,343.619 45.266,343.048 C45.266,342.86 45.226,342.672 45.131,342.402 L41.778,333.091 C41.49,332.299 41.027,331.956 40.269,331.956 C39.518,331.956 39.055,332.315 38.776,333.1 L35.431,342.402 C35.335,342.656 35.295,342.884 35.295,343.048 C35.295,343.644 35.702,344.02 36.333,344.02 C36.868,344.02 37.171,343.75 37.363,343.113 L38.121,340.875 L42.424,340.875 L43.183,343.129 C43.366,343.758 43.678,344.02 44.236,344.02 Z M41.921,339.209 L38.608,339.209 L40.229,334.178 L40.285,334.178 L41.921,339.209 Z" id="Shape" fill="#FFFFFF" fill-rule="nonzero"></path>
                <path d="M104.582,407.488 C105.949,407.488 106.952,406.627 106.952,405.46 L106.952,405.451 C106.952,404.458 106.275,403.824 105.282,403.737 L105.282,403.718 C106.133,403.534 106.729,402.943 106.729,402.082 L106.729,402.072 C106.729,401.012 105.873,400.272 104.572,400.272 C103.295,400.272 102.415,401.032 102.306,402.169 L102.301,402.217 L103.12,402.217 L103.124,402.169 C103.195,401.462 103.768,401.027 104.572,401.027 C105.405,401.027 105.873,401.448 105.873,402.179 L105.873,402.188 C105.873,402.885 105.305,403.398 104.492,403.398 L103.673,403.398 L103.673,404.134 L104.53,404.134 C105.485,404.134 106.086,404.613 106.086,405.47 L106.086,405.48 C106.086,406.22 105.476,406.733 104.582,406.733 C103.673,406.733 103.058,406.259 102.987,405.572 L102.983,405.523 L102.164,405.523 L102.169,405.581 C102.259,406.685 103.172,407.488 104.582,407.488 Z" id="Path" fill="#888888" fill-rule="nonzero"></path>
                <path d="M33.151,401.035 C35.895,401.035 37.611,399.627 37.611,397.394 C37.611,395.662 36.599,394.675 34.194,394.166 L32.969,393.907 C31.545,393.599 30.976,393.089 30.976,392.297 C30.976,391.318 31.877,390.703 33.143,390.703 C34.21,390.703 35.025,391.123 35.412,392.11 C35.626,392.564 35.919,392.774 36.393,392.774 C36.923,392.774 37.279,392.426 37.279,391.916 C37.279,391.722 37.255,391.568 37.208,391.439 C36.741,389.894 35.175,388.971 33.158,388.971 C30.683,388.971 28.919,390.363 28.919,392.418 C28.919,394.125 29.987,395.225 32.273,395.703 L33.498,395.962 C34.985,396.277 35.555,396.795 35.555,397.637 C35.555,398.607 34.59,399.303 33.214,399.303 C31.996,399.303 31.015,398.85 30.659,397.839 C30.438,397.37 30.153,397.183 29.702,397.183 C29.165,397.183 28.801,397.556 28.801,398.138 C28.801,398.332 28.84,398.543 28.912,398.737 C29.354,400.064 30.873,401.035 33.151,401.035 Z M45.764,400.841 C46.326,400.841 46.697,400.501 46.697,399.959 C46.697,399.417 46.318,399.077 45.764,399.077 L41.391,399.077 L41.391,390.112 C41.391,389.424 41.011,389.028 40.371,389.028 C39.738,389.028 39.35,389.424 39.35,390.112 L39.35,399.756 C39.35,400.436 39.738,400.841 40.371,400.841 L45.764,400.841 Z" id="Shape" fill="#FFFFFF" fill-rule="nonzero"></path>
                <path d="M68.295,331.956 L68.295,321.787 L66.752,321.787 L66.752,331.956 L68.295,331.956 Z M71.677,331.956 L71.677,321.787 L70.189,321.787 L70.189,331.956 L71.677,331.956 Z M74.246,334.43 C75.665,334.43 76.423,333.838 76.96,332.301 L79.66,324.542 L78.09,324.542 L76.264,330.575 L76.216,330.575 L74.391,324.542 L72.779,324.542 L75.417,331.963 L75.293,332.316 C75.045,333.034 74.659,333.225 73.957,333.225 C73.757,333.225 73.585,333.197 73.468,333.168 L73.468,334.359 C73.647,334.395 73.957,334.43 74.246,334.43 Z M82.684,332.09 C83.642,332.09 84.482,331.583 84.902,330.786 L84.93,330.786 L84.93,331.956 L86.425,331.956 L86.425,326.847 C86.425,325.36 85.302,324.401 83.531,324.401 C81.747,324.401 80.666,325.381 80.562,326.657 L80.555,326.734 L81.961,326.734 L81.975,326.671 C82.099,326.079 82.629,325.663 83.49,325.663 C84.413,325.663 84.93,326.156 84.93,326.974 L84.93,327.53 L82.96,327.65 C81.244,327.756 80.266,328.545 80.266,329.835 L80.266,329.849 C80.266,331.181 81.237,332.09 82.684,332.09 Z M83.09,330.871 C82.291,330.871 81.768,330.462 81.768,329.814 L81.768,329.8 C81.768,329.172 82.264,328.771 83.159,328.714 L84.93,328.602 L84.93,329.18 C84.93,330.145 84.138,330.871 83.09,330.871 Z M92.155,331.956 L93.071,329.208 L96.901,329.208 L97.811,331.956 L99.429,331.956 L95.82,321.787 L94.153,321.787 L90.536,331.956 L92.155,331.956 Z M96.481,327.939 L93.485,327.939 L94.972,323.471 L95,323.471 L96.481,327.939 Z M102.019,331.956 L102.019,327.636 C102.019,326.48 102.694,325.705 103.741,325.705 C104.775,325.705 105.284,326.332 105.284,327.446 L105.284,331.956 L106.779,331.956 L106.779,327.157 C106.779,325.452 105.863,324.401 104.272,324.401 C103.176,324.401 102.432,324.909 102.054,325.663 L102.019,325.663 L102.019,324.542 L100.531,324.542 L100.531,331.956 L102.019,331.956 Z M111.105,332.104 C112.145,332.104 112.944,331.569 113.378,330.702 L113.405,330.702 L113.405,331.956 L114.9,331.956 L114.9,321.787 L113.405,321.787 L113.405,325.804 L113.378,325.804 C112.944,324.93 112.117,324.401 111.091,324.401 C109.272,324.401 108.074,325.881 108.074,328.242 L108.074,328.249 C108.074,330.61 109.259,332.104 111.105,332.104 Z M111.497,330.793 C110.319,330.793 109.596,329.828 109.596,328.249 L109.596,328.242 C109.596,326.678 110.326,325.705 111.497,325.705 C112.613,325.705 113.412,326.706 113.412,328.242 L113.412,328.249 C113.412,329.793 112.62,330.793 111.497,330.793 Z M118.096,331.956 L118.096,327.538 C118.096,326.431 118.689,325.79 119.646,325.79 C119.935,325.79 120.197,325.825 120.314,325.874 L120.314,324.458 C120.197,324.437 120.011,324.401 119.798,324.401 C118.971,324.401 118.365,324.944 118.131,325.811 L118.096,325.811 L118.096,324.542 L116.608,324.542 L116.608,331.956 L118.096,331.956 Z M124.206,332.104 C125.963,332.104 127.079,331.033 127.313,329.856 L127.326,329.779 L125.914,329.779 L125.894,329.835 C125.708,330.392 125.122,330.857 124.24,330.857 C123.056,330.857 122.305,330.039 122.277,328.637 L127.409,328.637 L127.409,328.122 C127.409,325.896 126.162,324.401 124.13,324.401 C122.098,324.401 120.789,325.952 120.789,328.27 L120.789,328.277 C120.789,330.617 122.077,332.104 124.206,332.104 Z M125.935,327.559 L122.298,327.559 C122.429,326.318 123.173,325.649 124.137,325.649 C125.108,325.649 125.811,326.276 125.935,327.559 Z M131.838,332.104 C133.595,332.104 134.711,331.033 134.945,329.856 L134.959,329.779 L133.546,329.779 L133.526,329.835 C133.34,330.392 132.754,330.857 131.873,330.857 C130.688,330.857 129.937,330.039 129.909,328.637 L135.041,328.637 L135.041,328.122 C135.041,325.896 133.794,324.401 131.762,324.401 C129.73,324.401 128.421,325.952 128.421,328.27 L128.421,328.277 C128.421,330.617 129.71,332.104 131.838,332.104 Z M133.567,327.559 L129.93,327.559 C130.061,326.318 130.805,325.649 131.769,325.649 C132.741,325.649 133.443,326.276 133.567,327.559 Z M139.691,331.956 L142.288,324.542 L140.738,324.542 L138.919,330.469 L138.885,330.469 L137.066,324.542 L135.482,324.542 L138.093,331.956 L139.691,331.956 Z" id="Shape" fill="#000000" fill-rule="nonzero"></path>
            </g>
        </g>
    </g>
</svg>