<?xml version="1.0" standalone="no"?>
<!DOCTYPE svg PUBLIC "-//W3C//DTD SVG 1.1//EN" "http://www.w3.org/Graphics/SVG/1.1/DTD/svg11.dtd" >
<svg xmlns="http://www.w3.org/2000/svg" xmlns:xlink="http://www.w3.org/1999/xlink" version="1.1">
<metadata>
Created by FontForge 20190801 at Tue Dec  4 14:48:21 2018
 By root
Copyright 2018 The Manrope Project Authors \(https://github.com/sharanda/manrope\)
</metadata>
<defs>
<font id="Manrope-Regular" horiz-adv-x="594" >
  <font-face 
    font-family="Manrope"
    font-weight="400"
    font-stretch="semi-condensed"
    units-per-em="960"
    panose-1="0 0 5 6 0 0 0 0 0 0"
    ascent="768"
    descent="-192"
    x-height="540"
    cap-height="720"
    bbox="-25 -255.176 1085 956"
    underline-thickness="50"
    underline-position="-100"
    unicode-range="U+0020-FB02"
  />
<missing-glyph horiz-adv-x="740" 
d="M640 720v-13h-540v13h540zM640 665v-16h-540v16h540zM640 610v-18h-540v18h540zM640 554v-21h-540v21h540zM640 498v-22h-540v22h540zM640 443v-24h-540v24h540zM640 388v-28h-540v28h540zM640 333v-30h-540v30h540zM640 278v-33h-540v33h540zM640 222v-35h-540v35h540z
M640 167v-37h-540v37h540zM640 112v-40h-540v40h540zM640 0h-540v57h540v-57z" />
    <glyph glyph-name="f_f" unicode="ff" horiz-adv-x="710" 
d="M616 666c-51 -10 -70 -40 -70 -91v-35h154v-63h-154v-477h-73v477h-267v-477h-73v477h-123v63h123v31c0 45 11 92 49 125c49 40 112 43 178 36v-65c-28 4 -58 5 -84 -1c-51 -10 -70 -40 -70 -91v-35h267v31c0 45 11 92 49 125c49 40 112 43 178 36v-65
c-28 4 -58 5 -84 -1z" />
    <glyph glyph-name="f_f_l" unicode="ffl" horiz-adv-x="914" 
d="M771 735h73v-735h-73v477h-260v-477h-73v477h-232v-477h-73v477h-123v63h123v31c0 45 11 92 49 125c49 40 112 43 178 36v-65c-28 4 -58 5 -84 -1c-51 -10 -70 -40 -70 -91v-35h232v31c0 45 12 92 49 125c49 40 112 43 178 36v-65c-28 4 -57 5 -83 -1
c-52 -10 -71 -40 -71 -91v-35h260v195z" />
    <glyph glyph-name="fl" unicode="fl" horiz-adv-x="609" 
d="M466 735h73v-735h-73v477h-260v-477h-73v477h-123v63h123v31c0 45 11 92 49 125c49 40 112 43 178 36v-65c-28 4 -58 5 -84 -1c-51 -10 -70 -40 -70 -91v-35h260v195z" />
    <glyph glyph-name="t_t" unicode="tt" horiz-adv-x="741" 
d="M539 477v-279c0 -45 -2 -73 11 -97c12 -25 38 -38 65 -41c29 -2 62 -1 90 4v-64c-36 -9 -82 -10 -116 -5c-48 7 -83 27 -105 68c-21 38 -18 80 -18 133v281h-267v-279c0 -45 -3 -73 11 -97c11 -25 37 -38 65 -41c28 -2 61 -1 89 4v-64c-35 -9 -81 -10 -116 -5
c-48 7 -82 27 -105 68c-20 38 -18 80 -18 133v281h-115v63h115v150h74v-150h267v150h73v-150h166v-63h-166z" />
    <glyph glyph-name="hyphen_greater.liga" unicode="&#x2d;&#x3e;" horiz-adv-x="1001" 
d="M626 550l235 -235l-235 -235l-39 40l163 163l-610 1v63l611 -1l-164 164z" />
    <glyph glyph-name="parenleft_greater_parenright.liga" unicode="&#x28;&#x3e;&#x29;" horiz-adv-x="1070" 
d="M535 -135c273 0 495 222 495 495s-222 495 -495 495s-495 -222 -495 -495s222 -495 495 -495zM536 -63c-236 0 -424 188 -424 424c0 234 188 422 424 422c234 0 422 -188 422 -422c0 -236 -188 -424 -422 -424zM470 520l192 -160l-192 -160v320z" />
    <glyph glyph-name="parenleft_c_parenright.liga" unicode="&#x28;c&#x29;" horiz-adv-x="823" 
d="M412 -72c205 0 371 166 371 371c0 206 -166 372 -371 372c-206 0 -372 -166 -372 -372c0 -205 166 -371 372 -371zM412 -1c-167 0 -301 134 -301 301c0 165 134 299 301 299c165 0 299 -134 299 -299c0 -167 -134 -301 -299 -301zM587 396l-62 -18c-8 21 -23 41 -42 55
c-19 13 -43 19 -66 19c-39 0 -72 -16 -94 -44c-23 -29 -30 -69 -30 -108s8 -78 30 -107c20 -30 55 -45 94 -45c23 0 47 6 67 19c19 13 31 31 40 52l63 -17c-13 -33 -35 -64 -64 -83c-32 -21 -64 -30 -106 -30c-61 0 -111 21 -145 65c-34 43 -46 94 -46 146
c1 53 12 105 46 146c36 44 84 65 145 65c39 0 69 -6 101 -25c32 -20 58 -51 69 -90z" />
    <glyph glyph-name="space_less_three_space.liga" unicode="&#x20;&#x3c;&#x33;&#x20;" horiz-adv-x="1209" 
d="M724 555c48 0 93 -20 130 -60c37 -38 54 -87 55 -136c1 -50 -18 -100 -55 -139l-204 -215c-12 -13 -28 -20 -45 -20c-18 0 -35 7 -47 20l-204 215c-36 39 -53 88 -54 137c-1 50 18 99 54 138c42 44 88 60 130 60c40 0 80 -15 121 -45c39 31 81 45 119 45zM724 492
c-38 0 -80 -21 -119 -65c-43 44 -83 65 -121 65c-30 0 -59 -13 -83 -40c-25 -26 -37 -59 -37 -93c-1 -35 11 -69 37 -96l204 -215l204 215c25 27 36 61 36 96c0 34 -12 67 -36 93c-26 27 -54 40 -85 40z" />
    <glyph glyph-name="less_hyphen.liga" unicode="&#x3c;&#x2d;" horiz-adv-x="1001" 
d="M861 347v-63l-610 -1l163 -163l-39 -40l-235 235l235 235l39 -40l-164 -164z" />
    <glyph glyph-name=".notdef" horiz-adv-x="740" 
d="M640 720v-13h-540v13h540zM640 665v-16h-540v16h540zM640 610v-18h-540v18h540zM640 554v-21h-540v21h540zM640 498v-22h-540v22h540zM640 443v-24h-540v24h540zM640 388v-28h-540v28h540zM640 333v-30h-540v30h540zM640 278v-33h-540v33h540zM640 222v-35h-540v35h540z
M640 167v-37h-540v37h540zM640 112v-40h-540v40h540zM640 0h-540v57h540v-57z" />
    <glyph glyph-name="A" unicode="A" horiz-adv-x="634" 
d="M537 0l-61 175h-319l-60 -175h-77l248 720h98l248 -720h-77zM181 244h271l-136 393z" />
    <glyph glyph-name="Aacute" unicode="&#xc1;" horiz-adv-x="634" 
d="M429 880l-227 -94l-23 56l227 94zM537 0l-61 175h-319l-60 -175h-77l248 720h98l248 -720h-77zM181 244h271l-136 393z" />
    <glyph glyph-name="Abreve" unicode="&#x102;" horiz-adv-x="634" 
d="M317 780c-71 0 -129 58 -129 129h61c0 -37 31 -68 68 -68c38 0 68 31 68 68h61c0 -71 -57 -129 -129 -129zM537 0l-61 175h-319l-60 -175h-77l248 720h98l248 -720h-77zM181 244h271l-136 393z" />
    <glyph glyph-name="Acircumflex" unicode="&#xc2;" horiz-adv-x="634" 
d="M317 858l-110 -72l-32 52l142 92l142 -92l-31 -52zM537 0l-61 175h-319l-60 -175h-77l248 720h98l248 -720h-77zM181 244h271l-136 393z" />
    <glyph glyph-name="Adieresis" unicode="&#xc4;" horiz-adv-x="634" 
d="M262 920v-80h-80v80h80zM453 920v-80h-80v80h80zM537 0l-61 175h-319l-60 -175h-77l248 720h98l248 -720h-77zM181 244h271l-136 393z" />
    <glyph glyph-name="Agrave" unicode="&#xc0;" horiz-adv-x="634" 
d="M455 842l-23 -56l-227 94l23 56zM537 0l-60 175h-319l-61 -175h-77l248 720h98l248 -720h-77zM182 244h271l-135 393z" />
    <glyph glyph-name="Amacron" unicode="&#x100;" horiz-adv-x="634" 
d="M443 903v-63h-251v63h251zM537 0l-61 175h-319l-60 -175h-77l248 720h98l248 -720h-77zM181 244h271l-136 393z" />
    <glyph glyph-name="Aogonek" unicode="&#x104;" horiz-adv-x="634" 
d="M584 -156l33 -40c-12 -14 -27 -27 -46 -35c-40 -18 -85 -7 -110 23c-25 26 -30 66 -17 105c15 45 48 87 87 119l-55 159h-319l-60 -175h-77l248 720h98l248 -720h-16c-21 -16 -41 -35 -57 -55c-17 -21 -31 -44 -39 -67c-4 -14 -6 -33 6 -45c22 -23 54 -8 76 11zM181 244
h271l-136 393z" />
    <glyph glyph-name="Aring" unicode="&#xc5;" horiz-adv-x="634" 
d="M537 0l-61 175h-319l-60 -175h-77l234 681c-32 21 -54 57 -54 99c0 64 53 118 117 118c65 0 118 -54 118 -118c0 -42 -22 -79 -55 -100l234 -680h-77zM317 840c-33 0 -60 -27 -60 -60s27 -60 60 -60c34 0 60 27 60 60s-26 60 -60 60zM181 244h271l-136 393z" />
    <glyph glyph-name="Atilde" unicode="&#xc3;" horiz-adv-x="634" 
d="M220 843h-50c-5 19 -4 43 7 61c11 20 32 32 52 34c32 5 61 -4 88 -16c32 -14 53 -27 75 -25c24 2 28 24 22 39h50c5 -19 4 -43 -7 -61c-11 -20 -32 -32 -52 -34c-32 -5 -61 4 -88 16c-32 14 -53 27 -75 25c-24 -2 -28 -24 -22 -39zM537 0l-61 175h-319l-60 -175h-77
l248 720h98l248 -720h-77zM181 244h271l-136 393z" />
    <glyph glyph-name="AE" unicode="&#xc6;" horiz-adv-x="938" 
d="M868 650h-376v-250h316v-70h-316v-260h376v-70h-450v142h-272l-49 -142h-77l248 720h600v-70zM170 211h248v436h-98z" />
    <glyph glyph-name="B" unicode="B" horiz-adv-x="616" 
d="M537 327c31 -33 48 -81 46 -127c-2 -51 -17 -102 -51 -137c-46 -48 -90 -63 -179 -63h-283v720h278c60 0 107 -18 148 -56c35 -34 52 -84 53 -132c0 -43 -16 -82 -41 -111c-13 -16 -29 -29 -46 -39c29 -12 55 -30 75 -55zM347 650h-203v-237h203c40 0 79 18 102 49
c17 22 24 49 24 76c0 30 -11 56 -32 77c-23 23 -56 35 -94 35zM472 114c24 23 35 53 35 86c0 31 -9 63 -28 88c-26 36 -75 55 -113 55h-222v-272h209c50 0 83 9 119 43z" />
    <glyph glyph-name="C" unicode="C" horiz-adv-x="720" 
d="M606 234l72 -19c-13 -48 -35 -93 -73 -133c-59 -68 -143 -97 -236 -97c-102 0 -192 37 -251 115c-56 75 -79 172 -78 260c1 93 20 186 78 260c60 78 150 115 251 115c93 0 178 -32 236 -98c42 -44 65 -95 78 -150l-75 -11c-8 36 -24 70 -45 98c-47 62 -114 89 -191 90
c-76 1 -148 -29 -194 -89s-61 -138 -60 -215c0 -77 10 -150 60 -216c45 -60 116 -87 194 -88c76 -1 146 30 191 89c19 27 34 57 43 89z" />
    <glyph glyph-name="Cacute" unicode="&#x106;" horiz-adv-x="720" 
d="M267 786l227 94l-23 56l-227 -94zM606 234l72 -19c-13 -48 -35 -93 -73 -133c-59 -68 -143 -97 -236 -97c-102 0 -192 37 -251 115c-56 75 -79 172 -78 260c1 93 20 186 78 260c60 78 150 115 251 115c93 0 178 -32 236 -98c42 -44 65 -95 78 -150l-75 -11
c-8 36 -24 70 -45 98c-47 62 -114 89 -191 90c-76 1 -148 -29 -194 -89s-61 -138 -60 -215c0 -77 10 -150 60 -216c45 -60 116 -87 194 -88c76 -1 146 30 191 89c19 27 34 57 43 89z" />
    <glyph glyph-name="Ccaron" unicode="&#x10c;" horiz-adv-x="720" 
d="M265 930l-31 -52l142 -92l142 92l-31 52l-111 -72zM606 234l72 -19c-13 -48 -35 -93 -73 -133c-59 -68 -143 -97 -236 -97c-102 0 -192 37 -251 115c-56 75 -79 172 -78 260c1 93 20 186 78 260c60 78 150 115 251 115c93 0 178 -32 236 -98c42 -44 65 -95 78 -150
l-75 -11c-8 36 -24 70 -45 98c-47 62 -114 89 -191 90c-76 1 -148 -29 -194 -89s-61 -138 -60 -215c0 -77 10 -150 60 -216c45 -60 116 -87 194 -88c76 -1 146 30 191 89c19 27 34 57 43 89z" />
    <glyph glyph-name="Ccedilla" unicode="&#xc7;" horiz-adv-x="720" 
d="M563 145c19 27 34 57 43 89l72 -19c-13 -48 -35 -93 -73 -133c-51 -59 -121 -89 -200 -95l-16 -46c18 -9 36 -23 48 -43c16 -29 14 -70 -5 -97c-19 -29 -54 -44 -87 -41c-20 2 -38 8 -54 16l19 50c13 -4 26 -8 36 -8c16 -1 29 5 36 16c7 12 9 24 3 37
c-8 21 -30 26 -62 37l28 77c-95 5 -177 42 -233 115c-56 75 -79 172 -78 260c1 93 20 186 78 260c60 78 150 115 251 115c93 0 178 -32 236 -98c42 -44 65 -95 78 -150l-75 -11c-8 36 -24 70 -45 98c-47 62 -114 89 -191 90c-76 1 -148 -29 -194 -89s-61 -138 -60 -215
c0 -77 10 -150 60 -216c45 -60 116 -87 194 -88c76 -1 146 30 191 89z" />
    <glyph glyph-name="Cdotaccent" unicode="&#x10a;" horiz-adv-x="720" 
d="M327 945h85v-85h-85v85zM606 234l72 -19c-13 -48 -35 -93 -73 -133c-59 -68 -143 -97 -236 -97c-102 0 -192 37 -251 115c-56 75 -79 172 -78 260c1 93 20 186 78 260c60 78 150 115 251 115c93 0 178 -32 236 -98c42 -44 65 -95 78 -150l-75 -11c-8 36 -24 70 -45 98
c-47 62 -114 89 -191 90c-76 1 -148 -29 -194 -89s-61 -138 -60 -215c0 -77 10 -150 60 -216c45 -60 116 -87 194 -88c76 -1 146 30 191 89c19 27 34 57 43 89z" />
    <glyph glyph-name="D" unicode="D" horiz-adv-x="671" 
d="M628 357c0 101 -23 197 -89 269c-56 63 -138 94 -229 94l-240 1v-720h238c87 0 172 28 230 92c61 66 90 167 90 264zM550 357c-1 -74 -17 -158 -64 -211c-44 -50 -108 -74 -178 -75l-162 2v575l163 1c70 -1 131 -22 175 -72c49 -56 67 -138 66 -220z" />
    <glyph glyph-name="Eth" unicode="&#xd0;" horiz-adv-x="665" 
d="M533 626c66 -72 89 -168 89 -269c0 -97 -29 -198 -90 -264c-58 -64 -143 -92 -230 -92h-238v328h-54v63h54v329l240 -1c91 0 173 -31 229 -94zM480 146c47 53 63 137 64 211c1 82 -17 164 -66 220c-44 50 -105 71 -175 72l-163 -1v-256h185v-63h-185v-256l162 -2
c70 1 134 25 178 75z" />
    <glyph glyph-name="Dcaron" unicode="&#x10e;" horiz-adv-x="671" 
d="M163 930l-32 -52l142 -92l142 92l-31 52l-111 -72zM628 357c0 101 -23 197 -89 269c-56 63 -138 94 -229 94l-240 1v-720h238c87 0 172 28 230 92c61 66 90 167 90 264zM550 357c-1 -74 -17 -158 -64 -211c-44 -50 -108 -74 -178 -75l-162 2v575l163 1
c70 -1 131 -22 175 -72c49 -56 67 -138 66 -220z" />
    <glyph glyph-name="Dcroat" unicode="&#x110;" horiz-adv-x="665" 
d="M533 626c66 -72 89 -168 89 -269c0 -97 -29 -198 -90 -264c-58 -64 -143 -92 -230 -92h-238v328h-54v63h54v329l240 -1c91 0 173 -31 229 -94zM480 146c47 53 63 137 64 211c1 82 -17 164 -66 220c-44 50 -105 71 -175 72l-163 -1v-256h185v-63h-185v-256l162 -2
c70 1 134 25 178 75z" />
    <glyph glyph-name="E" unicode="E" horiz-adv-x="590" 
d="M520 650h-377v-250h317v-70h-317v-260h377v-70h-450v720h450v-70z" />
    <glyph glyph-name="Eacute" unicode="&#xc9;" horiz-adv-x="590" 
d="M415 880l-227 -94l-23 56l227 94zM520 650h-377v-250h317v-70h-317v-260h377v-70h-450v720h450v-70z" />
    <glyph glyph-name="Ecaron" unicode="&#x11a;" horiz-adv-x="590" 
d="M439 878l-142 -92l-142 92l31 52l111 -72l110 72zM520 650h-377v-250h317v-70h-317v-260h377v-70h-450v720h450v-70z" />
    <glyph glyph-name="Ecircumflex" unicode="&#xca;" horiz-adv-x="590" 
d="M286 858l-111 -72l-31 52l142 92l142 -92l-31 -52zM520 650h-377v-250h317v-70h-317v-260h377v-70h-450v720h450v-70z" />
    <glyph glyph-name="Edieresis" unicode="&#xcb;" horiz-adv-x="590" 
d="M229 920v-80h-80v80h80zM420 920v-80h-80v80h80zM520 650h-377v-250h317v-70h-317v-260h377v-70h-450v720h450v-70z" />
    <glyph glyph-name="Edotaccent" unicode="&#x116;" horiz-adv-x="590" 
d="M341 920v-85h-86v85h86zM520 650h-377v-250h317v-70h-317v-260h377v-70h-450v720h450v-70z" />
    <glyph glyph-name="Egrave" unicode="&#xc8;" horiz-adv-x="590" 
d="M408 842l-22 -56l-227 94l22 56zM520 650h-377v-250h317v-70h-317v-260h377v-70h-450v720h450v-70z" />
    <glyph glyph-name="Emacron" unicode="&#x112;" horiz-adv-x="590" 
d="M422 903v-63h-251v63h251zM520 650h-377v-250h317v-70h-317v-260h377v-70h-450v720h450v-70z" />
    <glyph glyph-name="Eogonek" unicode="&#x118;" horiz-adv-x="590" 
d="M506 -156l33 -40c-11 -14 -27 -27 -46 -35c-39 -18 -85 -7 -109 23c-26 26 -31 66 -18 105c13 38 38 73 69 103h-365v720h450v-70h-377v-250h317v-70h-317v-260h377v-70c-21 -16 -41 -35 -57 -55c-16 -21 -31 -44 -38 -67c-5 -14 -6 -33 6 -45c21 -23 54 -8 75 11z" />
    <glyph glyph-name="F" unicode="F" horiz-adv-x="503" 
d="M483 647h-340v-250h280v-74h-280v-323h-73v720h413v-73z" />
    <glyph glyph-name="G" unicode="G" horiz-adv-x="738" 
d="M697 367l1 -23c0 -87 -25 -179 -79 -248c-64 -80 -154 -111 -251 -111c-101 0 -194 38 -252 119c-57 79 -76 168 -76 256c0 92 20 185 77 260c59 75 148 115 251 115c94 0 178 -30 237 -98c30 -28 49 -63 61 -100l-77 -19c-9 22 -21 45 -38 64c-42 51 -109 78 -180 78
c-74 0 -148 -30 -192 -89c-43 -58 -57 -136 -58 -211c1 -75 12 -150 58 -211c45 -61 118 -89 192 -89c71 0 137 24 181 80c40 49 57 107 61 164h-176v63h260z" />
    <glyph glyph-name="Gbreve" unicode="&#x11e;" horiz-adv-x="738" 
d="M378 780c-71 0 -129 58 -129 129h61c0 -37 31 -68 68 -68c38 0 68 31 68 68h61c0 -71 -58 -129 -129 -129zM697 367l1 -23c0 -87 -25 -179 -79 -248c-64 -80 -154 -111 -251 -111c-101 0 -194 38 -252 119c-57 79 -76 168 -76 256c0 92 20 185 77 260
c59 75 148 115 251 115c94 0 178 -30 237 -98c30 -28 49 -63 61 -100l-77 -19c-9 22 -21 45 -38 64c-42 51 -109 78 -180 78c-74 0 -148 -30 -192 -89c-43 -58 -57 -136 -58 -211c1 -75 12 -150 58 -211c45 -61 118 -89 192 -89c71 0 137 24 181 80c40 49 57 107 61 164
h-176v63h260z" />
    <glyph glyph-name="uni0122" unicode="&#x122;" horiz-adv-x="738" 
d="M697 367l1 -23c0 -87 -25 -179 -79 -248c-64 -80 -154 -111 -251 -111c-101 0 -194 38 -252 119c-57 79 -76 168 -76 256c0 92 20 185 77 260c59 75 148 115 251 115c94 0 178 -30 237 -98c30 -28 49 -63 61 -100l-77 -19c-9 22 -21 45 -38 64c-42 51 -109 78 -180 78
c-74 0 -148 -30 -192 -89c-43 -58 -57 -136 -58 -211c1 -75 12 -150 58 -211c45 -61 118 -89 192 -89c71 0 137 24 181 80c40 49 57 107 61 164h-176v63h260zM325 -163v83h82v-83c0 -56 -41 -83 -82 -83v39c12 0 46 8 44 44h-44z" />
    <glyph glyph-name="Gdotaccent" unicode="&#x120;" horiz-adv-x="738" 
d="M415 920v-85h-86v85h86zM697 367l1 -23c0 -87 -25 -179 -79 -248c-64 -80 -154 -111 -251 -111c-101 0 -194 38 -252 119c-57 79 -76 168 -76 256c0 92 20 185 77 260c59 75 148 115 251 115c94 0 178 -30 237 -98c30 -28 49 -63 61 -100l-77 -19c-9 22 -21 45 -38 64
c-42 51 -109 78 -180 78c-74 0 -148 -30 -192 -89c-43 -58 -57 -136 -58 -211c1 -75 12 -150 58 -211c45 -61 118 -89 192 -89c71 0 137 24 181 80c40 49 57 107 61 164h-176v63h260z" />
    <glyph glyph-name="H" unicode="H" horiz-adv-x="685" 
d="M541 720h74v-720h-74v325h-398v-325h-73v720h73v-325h398v325z" />
    <glyph glyph-name="Hbar" unicode="&#x126;" horiz-adv-x="705" 
d="M695 565v-73h-80v-492h-74v325h-398v-325h-73v492h-60v73h60v155h73v-155h398v155h74v-155h80zM541 395v97h-398v-97h398z" />
    <glyph glyph-name="I" unicode="I" horiz-adv-x="233" 
d="M80 720h73v-720h-73v720z" />
    <glyph glyph-name="Iacute" unicode="&#xcd;" horiz-adv-x="233" 
d="M12 786l227 94l-22 56l-228 -94zM80 720h73v-720h-73v720z" />
    <glyph glyph-name="Icircumflex" unicode="&#xce;" horiz-adv-x="233" 
d="M6 786l111 72l110 -72l32 52l-142 92l-142 -92zM80 720h73v-720h-73v720z" />
    <glyph glyph-name="Idieresis" unicode="&#xcf;" horiz-adv-x="233" 
d="M-19 920h80v-80h-80v80zM172 920h80v-80h-80v80zM80 720h73v-720h-73v720z" />
    <glyph glyph-name="Idotaccent" unicode="&#x130;" horiz-adv-x="233" 
d="M74 920h85v-85h-85v85zM80 720h73v-720h-73v720z" />
    <glyph glyph-name="Igrave" unicode="&#xcc;" horiz-adv-x="233" 
d="M220 786l23 56l-227 94l-23 -56zM80 720h73v-720h-73v720z" />
    <glyph glyph-name="Imacron" unicode="&#x12a;" horiz-adv-x="233" 
d="M-9 903h251v-63h-251v63zM80 720h73v-720h-73v720z" />
    <glyph glyph-name="Iogonek" unicode="&#x12e;" horiz-adv-x="233" 
d="M139 -156l33 -40c-11 -14 -26 -27 -46 -35c-39 -18 -84 -7 -109 23c-25 26 -31 66 -18 105c14 43 45 82 81 114v709h73v-720c-21 -16 -40 -35 -56 -55c-17 -21 -32 -44 -39 -67c-5 -14 -6 -33 6 -45c21 -23 54 -8 75 11z" />
    <glyph glyph-name="J" unicode="J" horiz-adv-x="464" 
d="M383 720h-76v-499c0 -52 0 -74 -14 -104c-20 -39 -61 -61 -103 -61c-23 0 -46 7 -64 19c-26 18 -46 45 -53 75l-73 -17c13 -50 45 -95 90 -121c30 -18 65 -26 101 -26c74 0 131 32 166 92c26 47 26 83 26 143v499z" />
    <glyph glyph-name="K" unicode="K" horiz-adv-x="622" 
d="M622 0h-97l-300 335h-81v-335h-74v720h74v-315h81l256 315h93l-282 -349z" />
    <glyph glyph-name="uni0136" unicode="&#x136;" horiz-adv-x="622" 
d="M622 0h-97l-300 335h-81v-335h-74v720h74v-315h81l256 315h93l-282 -349zM375 -163c0 -56 -41 -83 -83 -83v39c12 0 47 8 45 44h-45v83h83v-83z" />
    <glyph glyph-name="L" unicode="L" horiz-adv-x="510" 
d="M153 720h-73v-720h415v70h-342v650z" />
    <glyph glyph-name="Lacute" unicode="&#x139;" horiz-adv-x="510" 
d="M103 786l227 94l-23 56l-227 -94zM153 720h-73v-720h415v70h-342v650z" />
    <glyph glyph-name="Lcaron" unicode="&#x13d;" horiz-adv-x="510" 
d="M406 601c0 -59 -29 -94 -85 -84l4 36c40 -2 43 31 41 68h-45v106h85v-126zM153 720h-73v-720h415v70h-342v650z" />
    <glyph glyph-name="uni013B" unicode="&#x13b;" horiz-adv-x="510" 
d="M153 720h-73v-720h415v70h-342v650zM329 -163c0 -56 -41 -83 -83 -83v39c12 0 47 8 45 44h-45v83h83v-83z" />
    <glyph glyph-name="Lslash" unicode="&#x141;" horiz-adv-x="517" 
d="M160 70h342v-70h-415v230l-45 -26v82l45 26v408h73v-366l177 101v-81l-177 -102v-202z" />
    <glyph glyph-name="M" unicode="M" horiz-adv-x="841" 
d="M771 720v-719h-71v555l-256 -556h-47l-257 556v-556h-70v720h67l284 -605l281 605h69z" />
    <glyph glyph-name="N" unicode="N" horiz-adv-x="684" 
d="M144 720l396 -590v590h74v-720h-74l-396 591v-591h-74v720h74z" />
    <glyph glyph-name="Nacute" unicode="&#x143;" horiz-adv-x="684" 
d="M262 786l227 94l-22 56l-228 -94zM144 720l396 -590v590h74v-720h-74l-396 591v-591h-74v720h74z" />
    <glyph glyph-name="Ncaron" unicode="&#x147;" horiz-adv-x="684" 
d="M244 930l-31 -52l142 -92l142 92l-31 52l-111 -72zM144 720l396 -590v590h74v-720h-74l-396 591v-591h-74v720h74z" />
    <glyph glyph-name="uni0145" unicode="&#x145;" horiz-adv-x="684" 
d="M144 720l396 -590v590h74v-720h-74l-396 591v-591h-74v720h74zM394 -163c0 -56 -42 -83 -83 -83v39c12 0 46 8 44 44h-44v83h83v-83z" />
    <glyph glyph-name="Eng" unicode="&#x14a;" horiz-adv-x="684" 
d="M540 720h74v-813c0 -64 -26 -95 -67 -104c-35 -5 -62 -2 -87 5v60c53 -7 89 -2 89 73c0 19 -4 42 -16 69l-389 581v-591h-74v720h74l396 -590v590z" />
    <glyph glyph-name="Ntilde" unicode="&#xd1;" horiz-adv-x="684" 
d="M502 911c5 -19 4 -43 -6 -61c-12 -20 -33 -32 -52 -34c-32 -5 -61 4 -88 16c-33 14 -54 27 -76 25c-24 -2 -27 -24 -21 -39h-51c-4 19 -3 43 7 61c12 20 33 32 52 34c32 5 61 -4 88 -16c32 -14 53 -27 76 -25c24 2 27 24 21 39h50zM144 720l396 -590v590h74v-720h-74
l-396 591v-591h-74v720h74z" />
    <glyph glyph-name="O" unicode="O" horiz-adv-x="743" 
d="M372 -15c-103 0 -195 37 -253 115c-58 74 -78 168 -79 260s21 186 79 260c58 77 153 116 253 114c100 -1 193 -37 253 -114c59 -75 77 -168 78 -260c0 -93 -19 -185 -78 -260c-59 -77 -151 -115 -253 -115zM372 56c76 0 150 29 193 89c46 59 60 138 60 215
c1 76 -14 156 -60 214c-43 60 -117 90 -193 90c-76 -1 -151 -30 -195 -90c-45 -58 -59 -138 -59 -214c-1 -77 14 -156 59 -215c44 -60 119 -90 195 -89z" />
    <glyph glyph-name="Oacute" unicode="&#xd3;" horiz-adv-x="743" 
d="M280 786l227 94l-22 56l-228 -94zM372 -15c-103 0 -195 37 -253 115c-58 74 -78 168 -79 260s21 186 79 260c58 77 153 116 253 114c100 -1 193 -37 253 -114c59 -75 77 -168 78 -260c0 -93 -19 -185 -78 -260c-59 -77 -151 -115 -253 -115zM372 56c76 0 150 29 193 89
c46 59 60 138 60 215c1 76 -14 156 -60 214c-43 60 -117 90 -193 90c-76 -1 -151 -30 -195 -90c-45 -58 -59 -138 -59 -214c-1 -77 14 -156 59 -215c44 -60 119 -90 195 -89z" />
    <glyph glyph-name="Ocircumflex" unicode="&#xd4;" horiz-adv-x="743" 
d="M261 786l111 72l110 -72l32 52l-142 92l-142 -92zM372 -15c-103 0 -195 37 -253 115c-58 74 -78 168 -79 260s21 186 79 260c58 77 153 116 253 114c100 -1 193 -37 253 -114c59 -75 77 -168 78 -260c0 -93 -19 -185 -78 -260c-59 -77 -151 -115 -253 -115zM372 56
c76 0 150 29 193 89c46 59 60 138 60 215c1 76 -14 156 -60 214c-43 60 -117 90 -193 90c-76 -1 -151 -30 -195 -90c-45 -58 -59 -138 -59 -214c-1 -77 14 -156 59 -215c44 -60 119 -90 195 -89z" />
    <glyph glyph-name="Odieresis" unicode="&#xd6;" horiz-adv-x="743" 
d="M236 920h80v-80h-80v80zM427 920h80v-80h-80v80zM372 -15c-103 0 -195 37 -253 115c-58 74 -78 168 -79 260s21 186 79 260c58 77 153 116 253 114c100 -1 193 -37 253 -114c59 -75 77 -168 78 -260c0 -93 -19 -185 -78 -260c-59 -77 -151 -115 -253 -115zM372 56
c76 0 150 29 193 89c46 59 60 138 60 215c1 76 -14 156 -60 214c-43 60 -117 90 -193 90c-76 -1 -151 -30 -195 -90c-45 -58 -59 -138 -59 -214c-1 -77 14 -156 59 -215c44 -60 119 -90 195 -89z" />
    <glyph glyph-name="Ograve" unicode="&#xd2;" horiz-adv-x="743" 
d="M494 786l23 56l-227 94l-23 -56zM372 -15c-103 0 -195 37 -253 115c-58 74 -78 168 -79 260s21 186 79 260c58 77 153 116 253 114c100 -1 193 -37 253 -114c59 -75 77 -168 78 -260c0 -93 -19 -185 -78 -260c-59 -77 -151 -115 -253 -115zM372 56c76 0 150 29 193 89
c46 59 60 138 60 215c1 76 -14 156 -60 214c-43 60 -117 90 -193 90c-76 -1 -151 -30 -195 -90c-45 -58 -59 -138 -59 -214c-1 -77 14 -156 59 -215c44 -60 119 -90 195 -89z" />
    <glyph glyph-name="Ohungarumlaut" unicode="&#x150;" horiz-adv-x="743" 
d="M309 792l106 104l-39 40l-106 -103zM455 792l106 104l-39 40l-106 -103zM372 -15c-103 0 -195 37 -253 115c-58 74 -78 168 -79 260s21 186 79 260c58 77 153 116 253 114c100 -1 193 -37 253 -114c59 -75 77 -168 78 -260c0 -93 -19 -185 -78 -260
c-59 -77 -151 -115 -253 -115zM372 56c76 0 150 29 193 89c46 59 60 138 60 215c1 76 -14 156 -60 214c-43 60 -117 90 -193 90c-76 -1 -151 -30 -195 -90c-45 -58 -59 -138 -59 -214c-1 -77 14 -156 59 -215c44 -60 119 -90 195 -89z" />
    <glyph glyph-name="Omacron" unicode="&#x14c;" horiz-adv-x="743" 
d="M243 903h251v-63h-251v63zM372 -15c-103 0 -195 37 -253 115c-58 74 -78 168 -79 260s21 186 79 260c58 77 153 116 253 114c100 -1 193 -37 253 -114c59 -75 77 -168 78 -260c0 -93 -19 -185 -78 -260c-59 -77 -151 -115 -253 -115zM372 56c76 0 150 29 193 89
c46 59 60 138 60 215c1 76 -14 156 -60 214c-43 60 -117 90 -193 90c-76 -1 -151 -30 -195 -90c-45 -58 -59 -138 -59 -214c-1 -77 14 -156 59 -215c44 -60 119 -90 195 -89z" />
    <glyph glyph-name="Oslash" unicode="&#xd8;" horiz-adv-x="743" 
d="M752 670l-97 -96c35 -66 47 -140 48 -214c0 -93 -19 -185 -78 -260c-59 -77 -151 -115 -253 -115c-87 0 -166 27 -224 82l-67 -67l-50 50l72 72c-46 70 -62 155 -63 238c-1 92 21 186 79 260c58 77 153 116 253 114c94 -1 182 -33 243 -101l87 87zM118 360
c-1 -64 9 -130 39 -184l404 403c-43 57 -115 85 -189 85c-76 -1 -151 -30 -195 -90c-45 -58 -59 -138 -59 -214zM625 360c1 53 -6 108 -27 157l-398 -398c45 -43 108 -64 172 -63c76 0 150 29 193 89c46 59 60 138 60 215z" />
    <glyph glyph-name="Otilde" unicode="&#xd5;" horiz-adv-x="743" 
d="M519 936c5 -19 4 -43 -7 -61c-11 -20 -32 -32 -52 -34c-32 -5 -61 4 -88 16c-32 14 -53 27 -75 25c-24 -2 -28 -24 -22 -39h-50c-5 19 -4 43 7 61c11 20 32 32 52 34c32 5 61 -4 88 -16c32 -14 53 -27 75 -25c24 2 28 24 22 39h50zM372 -15c-103 0 -195 37 -253 115
c-58 74 -78 168 -79 260s21 186 79 260c58 77 153 116 253 114c100 -1 193 -37 253 -114c59 -75 77 -168 78 -260c0 -93 -19 -185 -78 -260c-59 -77 -151 -115 -253 -115zM372 56c76 0 150 29 193 89c46 59 60 138 60 215c1 76 -14 156 -60 214c-43 60 -117 90 -193 90
c-76 -1 -151 -30 -195 -90c-45 -58 -59 -138 -59 -214c-1 -77 14 -156 59 -215c44 -60 119 -90 195 -89z" />
    <glyph glyph-name="OE" unicode="&#x152;" horiz-adv-x="1155" 
d="M1085 650h-376v-250h316v-70h-316v-260h376v-70h-450v113l-10 -13c-59 -77 -151 -115 -253 -115c-103 0 -195 37 -253 115c-58 74 -78 168 -79 260s21 186 79 260c58 77 153 116 253 114c100 -1 193 -37 253 -114l10 -13v113h450v-70zM625 360c1 76 -14 156 -60 214
c-43 60 -117 90 -193 90c-76 -1 -151 -30 -195 -90c-45 -58 -59 -138 -59 -214c-1 -77 14 -156 59 -215c44 -60 119 -90 195 -89c76 0 150 29 193 89c46 59 60 138 60 215z" />
    <glyph glyph-name="P" unicode="P" horiz-adv-x="604" 
d="M504 660c46 -44 70 -100 70 -163c0 -59 -23 -114 -60 -154c-41 -45 -102 -69 -166 -69h-205v-274h-73v720h278c66 0 118 -24 156 -60zM463 398c23 27 36 63 35 99c-1 40 -15 80 -43 110c-26 27 -65 42 -106 42h-206v-305h206c42 0 86 20 114 54z" />
    <glyph glyph-name="Thorn" unicode="&#xde;" horiz-adv-x="595" 
d="M503 511c39 -40 61 -96 62 -151c0 -53 -21 -104 -54 -144c-40 -48 -105 -79 -171 -79h-196v-137h-74v720h74v-137h196c26 0 52 -4 76 -13c33 -12 64 -33 87 -59zM454 263c22 27 36 62 35 97c-1 40 -17 79 -44 107c-27 27 -67 46 -105 46h-196v-306h196c42 0 86 22 114 56
z" />
    <glyph glyph-name="Q" unicode="Q" horiz-adv-x="743" 
d="M625 100c-1 -1 -1 -2 -2 -2l62 -62l-49 -50l-63 62c-55 -42 -125 -63 -201 -63c-103 0 -195 37 -253 115c-58 74 -78 168 -79 260s21 186 79 260c58 77 153 116 253 114c100 -1 193 -37 253 -114c59 -75 77 -168 78 -260c0 -93 -19 -185 -78 -260zM372 56
c54 0 107 15 149 45l-77 76l50 50l76 -76c42 59 55 135 55 209c1 76 -14 156 -60 214c-43 60 -117 90 -193 90c-76 -1 -151 -30 -195 -90c-45 -58 -59 -138 -59 -214c-1 -77 14 -156 59 -215c44 -60 119 -90 195 -89z" />
    <glyph glyph-name="R" unicode="R" horiz-adv-x="611" 
d="M591 0h-85l-133 275c-9 -1 -17 -1 -25 -1h-205v-274h-73v720h278c66 0 118 -24 156 -60c46 -44 70 -100 70 -163c0 -59 -23 -114 -60 -154c-19 -20 -41 -37 -67 -48zM143 344h206c42 0 86 20 114 54c23 27 36 63 35 99c-1 40 -15 80 -43 110c-26 27 -65 42 -106 42h-206
v-305z" />
    <glyph glyph-name="Racute" unicode="&#x154;" horiz-adv-x="611" 
d="M426 880l-227 -94l-23 56l227 94zM591 0h-85l-133 275c-9 -1 -17 -1 -25 -1h-205v-274h-73v720h278c66 0 118 -24 156 -60c46 -44 70 -100 70 -163c0 -59 -23 -114 -60 -154c-19 -20 -41 -37 -67 -48zM143 344h206c42 0 86 20 114 54c23 27 36 63 35 99
c-1 40 -15 80 -43 110c-26 27 -65 42 -106 42h-206v-305z" />
    <glyph glyph-name="Rcaron" unicode="&#x158;" horiz-adv-x="611" 
d="M440 878l-142 -92l-142 92l32 52l110 -72l111 72zM591 0h-85l-133 275c-9 -1 -17 -1 -25 -1h-205v-274h-73v720h278c66 0 118 -24 156 -60c46 -44 70 -100 70 -163c0 -59 -23 -114 -60 -154c-19 -20 -41 -37 -67 -48zM143 344h206c42 0 86 20 114 54c23 27 36 63 35 99
c-1 40 -15 80 -43 110c-26 27 -65 42 -106 42h-206v-305z" />
    <glyph glyph-name="uni0156" unicode="&#x156;" horiz-adv-x="611" 
d="M591 0h-85l-133 275c-9 -1 -17 -1 -25 -1h-205v-274h-73v720h278c66 0 118 -24 156 -60c46 -44 70 -100 70 -163c0 -59 -23 -114 -60 -154c-19 -20 -41 -37 -67 -48zM143 344h206c42 0 86 20 114 54c23 27 36 63 35 99c-1 40 -15 80 -43 110c-26 27 -65 42 -106 42h-206
v-305zM267 -163v83h83v-83c0 -56 -42 -83 -83 -83v39c12 0 46 8 44 44h-44z" />
    <glyph glyph-name="S" unicode="S" horiz-adv-x="617" 
d="M578 539l-73 -20c-19 48 -46 89 -89 115c-30 18 -72 30 -112 30c-38 1 -76 -7 -106 -23c-36 -20 -59 -57 -59 -95c0 -26 9 -51 27 -68c22 -23 61 -39 101 -51l129 -38c51 -14 95 -35 130 -69s58 -83 57 -133c0 -59 -32 -120 -81 -155c-50 -35 -117 -47 -185 -47
c-92 0 -162 28 -222 92c-32 36 -52 84 -62 124l74 22c8 -34 20 -65 48 -98c37 -44 99 -70 165 -70c48 0 104 13 138 37c33 24 47 62 47 97c0 30 -11 57 -33 78c-24 24 -56 40 -94 50l-132 39c-47 15 -95 32 -133 67c-35 32 -52 82 -52 125c0 66 45 128 103 157
c45 24 94 30 140 30c51 0 106 -12 149 -38c59 -34 101 -90 125 -158z" />
    <glyph glyph-name="Sacute" unicode="&#x15a;" horiz-adv-x="617" 
d="M204 786l227 94l-22 56l-227 -94zM578 539l-73 -20c-19 48 -46 89 -89 115c-30 18 -72 30 -112 30c-38 1 -76 -7 -106 -23c-36 -20 -59 -57 -59 -95c0 -26 9 -51 27 -68c22 -23 61 -39 101 -51l129 -38c51 -14 95 -35 130 -69s58 -83 57 -133c0 -59 -32 -120 -81 -155
c-50 -35 -117 -47 -185 -47c-92 0 -162 28 -222 92c-32 36 -52 84 -62 124l74 22c8 -34 20 -65 48 -98c37 -44 99 -70 165 -70c48 0 104 13 138 37c33 24 47 62 47 97c0 30 -11 57 -33 78c-24 24 -56 40 -94 50l-132 39c-47 15 -95 32 -133 67c-35 32 -52 82 -52 125
c0 66 45 128 103 157c45 24 94 30 140 30c51 0 106 -12 149 -38c59 -34 101 -90 125 -158z" />
    <glyph glyph-name="Scaron" unicode="&#x160;" horiz-adv-x="617" 
d="M202 930l-31 -52l142 -92l142 92l-32 52l-110 -72zM578 539l-73 -20c-19 48 -46 89 -89 115c-30 18 -72 30 -112 30c-38 1 -76 -7 -106 -23c-36 -20 -59 -57 -59 -95c0 -26 9 -51 27 -68c22 -23 61 -39 101 -51l129 -38c51 -14 95 -35 130 -69s58 -83 57 -133
c0 -59 -32 -120 -81 -155c-50 -35 -117 -47 -185 -47c-92 0 -162 28 -222 92c-32 36 -52 84 -62 124l74 22c8 -34 20 -65 48 -98c37 -44 99 -70 165 -70c48 0 104 13 138 37c33 24 47 62 47 97c0 30 -11 57 -33 78c-24 24 -56 40 -94 50l-132 39c-47 15 -95 32 -133 67
c-35 32 -52 82 -52 125c0 66 45 128 103 157c45 24 94 30 140 30c51 0 106 -12 149 -38c59 -34 101 -90 125 -158z" />
    <glyph glyph-name="Scedilla" unicode="&#x15e;" horiz-adv-x="617" 
d="M526 320c35 -34 58 -83 57 -133c0 -59 -32 -120 -81 -155c-44 -31 -101 -44 -161 -46l-16 -45c18 -9 36 -23 48 -43c16 -29 14 -70 -5 -97c-19 -29 -54 -44 -87 -41c-20 2 -38 8 -54 16l19 50c13 -4 26 -8 36 -8c16 -1 29 5 36 16c7 12 9 24 3 37c-8 21 -30 26 -62 37
l28 78c-77 6 -139 34 -192 91c-32 36 -52 84 -62 124l74 22c8 -34 20 -65 48 -98c37 -44 99 -70 165 -70c48 0 104 13 138 37c33 24 47 62 47 97c0 30 -11 57 -33 78c-24 24 -56 40 -94 50l-132 39c-47 15 -95 32 -133 67c-35 32 -52 82 -52 125c0 66 45 128 103 157
c45 24 94 30 140 30c51 0 106 -12 149 -38c59 -34 101 -90 125 -158l-73 -20c-19 48 -46 89 -89 115c-30 18 -72 30 -112 30c-38 1 -76 -7 -106 -23c-36 -20 -59 -57 -59 -95c0 -26 9 -51 27 -68c22 -23 61 -39 101 -51l129 -38c51 -14 95 -35 130 -69z" />
    <glyph glyph-name="uni0218" unicode="&#x218;" horiz-adv-x="617" 
d="M578 539l-73 -20c-19 48 -46 89 -89 115c-30 18 -72 30 -112 30c-38 1 -76 -7 -106 -23c-36 -20 -59 -57 -59 -95c0 -26 9 -51 27 -68c22 -23 61 -39 101 -51l129 -38c51 -14 95 -35 130 -69s58 -83 57 -133c0 -59 -32 -120 -81 -155c-50 -35 -117 -47 -185 -47
c-92 0 -162 28 -222 92c-32 36 -52 84 -62 124l74 22c8 -34 20 -65 48 -98c37 -44 99 -70 165 -70c48 0 104 13 138 37c33 24 47 62 47 97c0 30 -11 57 -33 78c-24 24 -56 40 -94 50l-132 39c-47 15 -95 32 -133 67c-35 32 -52 82 -52 125c0 66 45 128 103 157
c45 24 94 30 140 30c51 0 106 -12 149 -38c59 -34 101 -90 125 -158zM349 -163c0 -56 -41 -83 -83 -83v39c12 0 47 8 45 44h-45v83h83v-83z" />
    <glyph glyph-name="T" unicode="T" horiz-adv-x="597" 
d="M587 720v-70h-252v-650h-73v650h-252v70h577z" />
    <glyph glyph-name="Tbar" unicode="&#x166;" horiz-adv-x="597" 
d="M587 650h-252v-253h183v-74h-183v-323h-73v323h-184v74h184v253h-252v70h577v-70z" />
    <glyph glyph-name="Tcaron" unicode="&#x164;" horiz-adv-x="597" 
d="M440 878l-142 -92l-142 92l32 52l110 -72l111 72zM587 720v-70h-252v-650h-73v650h-252v70h577z" />
    <glyph glyph-name="uni0162" unicode="&#x162;" horiz-adv-x="597" 
d="M335 0h-9l-23 -59c19 -9 37 -23 48 -43c17 -29 15 -70 -5 -97c-18 -29 -53 -44 -87 -41c-20 2 -37 8 -54 16l19 50c14 -4 26 -8 37 -8c16 -1 29 5 36 16c7 12 9 24 3 37c-8 21 -31 26 -63 37l35 92h-10v650h-252v70h577v-70h-252v-650z" />
    <glyph glyph-name="uni021A" unicode="&#x21a;" horiz-adv-x="597" 
d="M10 720h577v-70h-252v-650h-73v650h-252v70zM257 -163v83h83v-83c0 -56 -42 -83 -83 -83v39c12 0 46 8 44 44h-44z" />
    <glyph glyph-name="U" unicode="U" horiz-adv-x="702" 
d="M632 720v-461c0 -61 -22 -127 -61 -175c-52 -65 -136 -100 -220 -99c-83 -1 -167 34 -219 99c-38 47 -62 115 -62 175v461h74v-426c0 -66 3 -108 45 -163c38 -49 100 -77 162 -77s124 28 162 77c41 52 45 97 45 163v426h74z" />
    <glyph glyph-name="Uacute" unicode="&#xda;" horiz-adv-x="702" 
d="M250 786l227 94l-22 56l-228 -94zM632 720v-461c0 -61 -22 -127 -61 -175c-52 -65 -136 -100 -220 -99c-83 -1 -167 34 -219 99c-38 47 -62 115 -62 175v461h74v-426c0 -66 3 -108 45 -163c38 -49 100 -77 162 -77s124 28 162 77c41 52 45 97 45 163v426h74z" />
    <glyph glyph-name="Ucircumflex" unicode="&#xdb;" horiz-adv-x="702" 
d="M235 786l111 72l111 -72l31 52l-142 92l-142 -92zM632 720v-461c0 -61 -22 -127 -61 -175c-52 -65 -136 -100 -220 -99c-83 -1 -167 34 -219 99c-38 47 -62 115 -62 175v461h74v-426c0 -66 3 -108 45 -163c38 -49 100 -77 162 -77s124 28 162 77c41 52 45 97 45 163v426
h74z" />
    <glyph glyph-name="Udieresis" unicode="&#xdc;" horiz-adv-x="702" 
d="M216 920h80v-80h-80v80zM406 920h80v-80h-80v80zM632 720v-461c0 -61 -22 -127 -61 -175c-52 -65 -136 -100 -220 -99c-83 -1 -167 34 -219 99c-38 47 -62 115 -62 175v461h74v-426c0 -66 3 -108 45 -163c38 -49 100 -77 162 -77s124 28 162 77c41 52 45 97 45 163v426
h74z" />
    <glyph glyph-name="Ugrave" unicode="&#xd9;" horiz-adv-x="702" 
d="M458 786l22 56l-227 94l-22 -56zM632 720v-461c0 -61 -22 -127 -61 -175c-52 -65 -136 -100 -220 -99c-83 -1 -167 34 -219 99c-38 47 -62 115 -62 175v461h74v-426c0 -66 3 -108 45 -163c38 -49 100 -77 162 -77s124 28 162 77c41 52 45 97 45 163v426h74z" />
    <glyph glyph-name="Uhungarumlaut" unicode="&#x170;" horiz-adv-x="702" 
d="M277 792l105 104l-39 40l-105 -103zM423 792l105 104l-39 40l-105 -103zM632 720v-461c0 -61 -22 -127 -61 -175c-52 -65 -136 -100 -220 -99c-83 -1 -167 34 -219 99c-38 47 -62 115 -62 175v461h74v-426c0 -66 3 -108 45 -163c38 -49 100 -77 162 -77s124 28 162 77
c41 52 45 97 45 163v426h74z" />
    <glyph glyph-name="Umacron" unicode="&#x16a;" horiz-adv-x="702" 
d="M226 903h250v-63h-250v63zM632 720v-461c0 -61 -22 -127 -61 -175c-52 -65 -136 -100 -220 -99c-83 -1 -167 34 -219 99c-38 47 -62 115 -62 175v461h74v-426c0 -66 3 -108 45 -163c38 -49 100 -77 162 -77s124 28 162 77c41 52 45 97 45 163v426h74z" />
    <glyph glyph-name="Uogonek" unicode="&#x172;" horiz-adv-x="702" 
d="M558 720h74v-461c0 -61 -22 -127 -61 -175c-11 -14 -24 -27 -38 -38c-43 -46 -70 -71 -86 -94c-17 -25 -33 -51 -40 -74c-5 -14 -6 -33 6 -45c21 -23 54 -8 75 11l33 -40c-11 -14 -26 -27 -46 -35c-39 -18 -84 -7 -109 23c-25 26 -31 66 -18 105c10 28 26 55 45 80l10 12
c-17 -3 -34 -4 -52 -4c-83 -1 -167 34 -219 99c-38 47 -62 115 -62 175v461h74v-426c0 -66 3 -108 45 -163c38 -49 100 -77 162 -77s124 28 162 77c41 52 45 97 45 163v426z" />
    <glyph glyph-name="Uring" unicode="&#x16e;" horiz-adv-x="702" 
d="M351 956c65 0 118 -53 118 -118s-53 -117 -118 -117c-64 0 -118 52 -118 117s54 118 118 118zM351 898c-33 0 -60 -27 -60 -60s27 -60 60 -60c34 0 60 27 60 60s-26 60 -60 60zM632 720v-461c0 -61 -22 -127 -61 -175c-52 -65 -136 -100 -220 -99c-83 -1 -167 34 -219 99
c-38 47 -62 115 -62 175v461h74v-426c0 -66 3 -108 45 -163c38 -49 100 -77 162 -77s124 28 162 77c41 52 45 97 45 163v426h74z" />
    <glyph glyph-name="V" unicode="V" horiz-adv-x="604" 
d="M253 0l-248 720h77l219 -637l221 637h77l-248 -720h-98z" />
    <glyph glyph-name="W" unicode="W" horiz-adv-x="936" 
d="M842 720h77l-208 -720h-74l-170 591l-169 -591h-74l-207 720h76l168 -594l168 594h77l168 -594z" />
    <glyph glyph-name="Wacute" unicode="&#x1e82;" horiz-adv-x="936" 
d="M349 786l227 94l-22 56l-228 -94zM842 720h77l-208 -720h-74l-170 591l-169 -591h-74l-207 720h76l168 -594l168 594h77l168 -594z" />
    <glyph glyph-name="Wcircumflex" unicode="&#x174;" horiz-adv-x="936" 
d="M358 786l110 72l111 -72l31 52l-142 92l-142 -92zM842 720h77l-208 -720h-74l-170 591l-169 -591h-74l-207 720h76l168 -594l168 594h77l168 -594z" />
    <glyph glyph-name="Wdieresis" unicode="&#x1e84;" horiz-adv-x="936" 
d="M333 920h80v-80h-80v80zM524 920h80v-80h-80v80zM842 720h77l-208 -720h-74l-170 591l-169 -591h-74l-207 720h76l168 -594l168 594h77l168 -594z" />
    <glyph glyph-name="Wgrave" unicode="&#x1e80;" horiz-adv-x="936" 
d="M570 786l23 56l-228 94l-22 -56zM842 720h77l-208 -720h-74l-170 591l-169 -591h-74l-207 720h76l168 -594l168 594h77l168 -594z" />
    <glyph glyph-name="X" unicode="X" horiz-adv-x="606" 
d="M347 365l249 -365h-89l-204 303l-204 -303h-89l249 365l-243 355h89l198 -294l198 294h89z" />
    <glyph glyph-name="Y" unicode="Y" horiz-adv-x="556" 
d="M471 720h85l-241 -418v-302h-74v302l-241 418h85l193 -334z" />
    <glyph glyph-name="Yacute" unicode="&#xdd;" horiz-adv-x="556" 
d="M186 786l227 94l-22 56l-228 -94zM471 720h85l-241 -418v-302h-74v302l-241 418h85l193 -334z" />
    <glyph glyph-name="Ycircumflex" unicode="&#x176;" horiz-adv-x="556" 
d="M168 786l110 72l111 -72l31 52l-142 92l-142 -92zM471 720h85l-241 -418v-302h-74v302l-241 418h85l193 -334z" />
    <glyph glyph-name="Ydieresis" unicode="&#x178;" horiz-adv-x="556" 
d="M143 920h80v-80h-80v80zM334 920h80v-80h-80v80zM471 720h85l-241 -418v-302h-74v302l-241 418h85l193 -334z" />
    <glyph glyph-name="Ygrave" unicode="&#x1ef2;" horiz-adv-x="556" 
d="M394 786l22 56l-227 94l-22 -56zM471 720h85l-241 -418v-302h-74v302l-241 418h85l193 -334z" />
    <glyph glyph-name="Z" unicode="Z" horiz-adv-x="621" 
d="M152 70h409v-70h-501v71l408 579h-408v70h501v-71z" />
    <glyph glyph-name="Zacute" unicode="&#x179;" horiz-adv-x="621" 
d="M230 786l227 94l-22 56l-228 -94zM152 70h409v-70h-501v71l408 579h-408v70h501v-71z" />
    <glyph glyph-name="Zcaron" unicode="&#x17d;" horiz-adv-x="621" 
d="M215 930l-31 -52l142 -92l142 92l-32 52l-110 -72zM152 70h409v-70h-501v71l408 579h-408v70h501v-71z" />
    <glyph glyph-name="Zdotaccent" unicode="&#x17b;" horiz-adv-x="621" 
d="M287 920h85v-85h-85v85zM152 70h409v-70h-501v71l408 579h-408v70h501v-71z" />
    <glyph glyph-name="a" unicode="a" horiz-adv-x="556" 
d="M496 0h-66v87c-48 -74 -120 -102 -213 -102c-103 0 -177 63 -177 163c0 68 28 115 95 149c66 34 171 42 286 60c-1 87 -60 127 -140 127c-57 0 -110 -12 -158 -71l-48 50c56 67 129 92 215 92c54 0 106 -20 141 -51c50 -42 65 -108 65 -171v-333zM401 143
c21 41 22 82 22 152c-90 -14 -153 -24 -187 -32c-68 -14 -122 -50 -122 -108c0 -63 48 -104 115 -104c78 0 140 31 172 92z" />
    <glyph glyph-name="aacute" unicode="&#xe1;" horiz-adv-x="556" 
d="M190 606l227 94l-22 56l-227 -94zM496 0h-66v87c-48 -74 -120 -102 -213 -102c-103 0 -177 63 -177 163c0 68 28 115 95 149c66 34 171 42 286 60c-1 87 -60 127 -140 127c-57 0 -110 -12 -158 -71l-48 50c56 67 129 92 215 92c54 0 106 -20 141 -51
c50 -42 65 -108 65 -171v-333zM401 143c21 41 22 82 22 152c-90 -14 -153 -24 -187 -32c-68 -14 -122 -50 -122 -108c0 -63 48 -104 115 -104c78 0 140 31 172 92z" />
    <glyph glyph-name="abreve" unicode="&#x103;" horiz-adv-x="556" 
d="M353 729h61c0 -71 -57 -129 -129 -129c-71 0 -129 58 -129 129h61c0 -37 31 -68 68 -68c38 0 68 31 68 68zM496 0h-66v87c-48 -74 -120 -102 -213 -102c-103 0 -177 63 -177 163c0 68 28 115 95 149c66 34 171 42 286 60c-1 87 -60 127 -140 127c-57 0 -110 -12 -158 -71
l-48 50c56 67 129 92 215 92c54 0 106 -20 141 -51c50 -42 65 -108 65 -171v-333zM401 143c21 41 22 82 22 152c-90 -14 -153 -24 -187 -32c-68 -14 -122 -50 -122 -108c0 -63 48 -104 115 -104c78 0 140 31 172 92z" />
    <glyph glyph-name="acircumflex" unicode="&#xe2;" horiz-adv-x="556" 
d="M182 606l111 72l110 -72l32 52l-142 92l-142 -92zM496 0h-66v87c-48 -74 -120 -102 -213 -102c-103 0 -177 63 -177 163c0 68 28 115 95 149c66 34 171 42 286 60c-1 87 -60 127 -140 127c-57 0 -110 -12 -158 -71l-48 50c56 67 129 92 215 92c54 0 106 -20 141 -51
c50 -42 65 -108 65 -171v-333zM401 143c21 41 22 82 22 152c-90 -14 -153 -24 -187 -32c-68 -14 -122 -50 -122 -108c0 -63 48 -104 115 -104c78 0 140 31 172 92z" />
    <glyph glyph-name="adieresis" unicode="&#xe4;" horiz-adv-x="556" 
d="M154 725h80v-80h-80v80zM345 725h80v-80h-80v80zM496 0h-66v87c-48 -74 -120 -102 -213 -102c-103 0 -177 63 -177 163c0 68 28 115 95 149c66 34 171 42 286 60c-1 87 -60 127 -140 127c-57 0 -110 -12 -158 -71l-48 50c56 67 129 92 215 92c54 0 106 -20 141 -51
c50 -42 65 -108 65 -171v-333zM401 143c21 41 22 82 22 152c-90 -14 -153 -24 -187 -32c-68 -14 -122 -50 -122 -108c0 -63 48 -104 115 -104c78 0 140 31 172 92z" />
    <glyph glyph-name="agrave" unicode="&#xe0;" horiz-adv-x="556" 
d="M420 606l22 56l-227 94l-22 -56zM496 0h-66v87c-48 -74 -120 -102 -213 -102c-103 0 -177 63 -177 163c0 68 28 115 95 149c66 34 171 42 286 60c-1 87 -60 127 -140 127c-57 0 -110 -12 -158 -71l-48 50c56 67 129 92 215 92c54 0 106 -20 141 -51
c50 -42 65 -108 65 -171v-333zM401 143c21 41 22 82 22 152c-90 -14 -153 -24 -187 -32c-68 -14 -122 -50 -122 -108c0 -63 48 -104 115 -104c78 0 140 31 172 92z" />
    <glyph glyph-name="amacron" unicode="&#x101;" horiz-adv-x="556" 
d="M174 723h251v-63h-251v63zM496 0h-66v87c-48 -74 -120 -102 -213 -102c-103 0 -177 63 -177 163c0 68 28 115 95 149c66 34 171 42 286 60c-1 87 -60 127 -140 127c-57 0 -110 -12 -158 -71l-48 50c56 67 129 92 215 92c54 0 106 -20 141 -51c50 -42 65 -108 65 -171
v-333zM401 143c21 41 22 82 22 152c-90 -14 -153 -24 -187 -32c-68 -14 -122 -50 -122 -108c0 -63 48 -104 115 -104c78 0 140 31 172 92z" />
    <glyph glyph-name="aogonek" unicode="&#x105;" horiz-adv-x="556" 
d="M501 -156l33 -40c-11 -14 -27 -27 -46 -35c-39 -18 -85 -7 -109 23c-26 26 -31 66 -18 105c13 38 38 73 69 103v87c-48 -74 -120 -102 -213 -102c-103 0 -177 63 -177 163c0 68 28 115 95 149c66 34 171 42 286 60c-1 87 -60 127 -140 127c-57 0 -110 -12 -158 -71
l-48 50c56 67 129 92 215 92c54 0 106 -20 141 -51c50 -42 65 -108 65 -171v-306l19 -27c-21 -16 -41 -35 -57 -55c-16 -21 -31 -44 -38 -67c-5 -14 -6 -33 6 -45c21 -23 54 -8 75 11zM401 143c21 41 22 82 22 152c-90 -14 -153 -24 -187 -32c-68 -14 -122 -50 -122 -108
c0 -63 48 -104 115 -104c78 0 140 31 172 92z" />
    <glyph glyph-name="aring" unicode="&#xe5;" horiz-adv-x="556" 
d="M431 504c50 -42 65 -108 65 -171v-333h-66v87c-48 -74 -120 -102 -213 -102c-103 0 -177 63 -177 163c0 68 28 115 95 149c66 34 171 42 286 60c-1 87 -60 127 -140 127c-57 0 -110 -12 -158 -71l-48 50c33 40 73 65 118 79c-16 20 -26 45 -26 73c0 64 54 118 118 118
c65 0 118 -54 118 -118c0 -29 -11 -56 -28 -77c21 -8 40 -20 56 -34zM285 675c-33 0 -60 -27 -60 -60s27 -60 60 -60c34 0 60 27 60 60s-26 60 -60 60zM401 143c21 41 22 82 22 152c-90 -14 -153 -24 -187 -32c-68 -14 -122 -50 -122 -108c0 -63 48 -104 115 -104
c78 0 140 31 172 92z" />
    <glyph glyph-name="atilde" unicode="&#xe3;" horiz-adv-x="556" 
d="M443 731c4 -19 3 -43 -7 -61c-12 -20 -33 -32 -52 -34c-32 -5 -61 4 -88 16c-32 14 -53 27 -75 25c-25 -2 -28 -24 -22 -39h-50c-5 19 -4 43 6 61c12 20 33 32 52 34c32 5 61 -4 88 -16c33 -14 54 -27 76 -25c24 2 27 24 21 39h51zM496 0h-66v87
c-48 -74 -120 -102 -213 -102c-103 0 -177 63 -177 163c0 68 28 115 95 149c66 34 171 42 286 60c-1 87 -60 127 -140 127c-57 0 -110 -12 -158 -71l-48 50c56 67 129 92 215 92c54 0 106 -20 141 -51c50 -42 65 -108 65 -171v-333zM401 143c21 41 22 82 22 152
c-90 -14 -153 -24 -187 -32c-68 -14 -122 -50 -122 -108c0 -63 48 -104 115 -104c78 0 140 31 172 92z" />
    <glyph glyph-name="ae" unicode="&#xe6;" horiz-adv-x="954" 
d="M511 249c3 -48 13 -95 39 -131c29 -41 77 -63 128 -63c37 0 70 9 98 28c27 19 47 44 62 76l65 -26c-20 -49 -53 -87 -92 -112c-39 -24 -85 -36 -130 -36c-73 0 -144 30 -187 88c-12 16 -21 33 -29 50c-3 -4 -5 -9 -8 -13c-26 -45 -61 -78 -105 -98
c-51 -24 -115 -29 -165 -21c-49 9 -95 30 -119 70c-32 46 -36 100 -14 152c19 47 63 76 112 86c50 12 98 14 169 14h103c0 70 -16 108 -50 136c-30 24 -73 35 -116 35c-48 1 -93 -16 -124 -52c-9 -7 -15 -17 -20 -25l-68 32c5 9 11 18 17 26c45 60 118 89 196 89
c51 0 107 -9 156 -45c22 -16 40 -36 53 -59l12 18c45 58 111 87 184 87s136 -27 180 -86s57 -137 55 -220h-402zM550 426c-23 -32 -34 -72 -37 -114h328c-4 45 -12 83 -36 115c-28 40 -77 61 -127 61c-49 0 -98 -20 -128 -62zM408 149c18 30 26 63 29 98h-81
c-61 0 -117 0 -147 -3c-39 -5 -69 -24 -84 -51c-14 -26 -14 -63 5 -92c20 -28 58 -45 87 -47c35 -4 78 4 111 20c33 15 63 45 80 75z" />
    <glyph glyph-name="b" unicode="b" horiz-adv-x="609" 
d="M510 468c43 -55 59 -128 59 -197c0 -70 -14 -141 -59 -199c-45 -57 -113 -87 -187 -87c-78 0 -145 31 -187 91v-76h-66v720h74v-243c44 49 111 78 182 78c73 0 141 -31 184 -87zM451 118c30 40 40 96 40 153c0 56 -11 112 -41 152c-31 43 -81 64 -136 64
c-53 0 -103 -20 -134 -60c-32 -41 -44 -99 -44 -156c0 -58 12 -117 44 -157c31 -40 82 -61 135 -61s105 22 136 65z" />
    <glyph glyph-name="c" unicode="c" horiz-adv-x="554" 
d="M520 406l-72 -24c-11 30 -34 59 -61 76c-27 19 -59 27 -93 27c-54 0 -103 -21 -134 -63c-32 -41 -41 -97 -42 -152c1 -55 10 -111 42 -152c31 -41 80 -63 134 -63c34 0 67 8 95 27c27 17 45 42 58 72l73 -21c-18 -44 -47 -84 -85 -109c-41 -27 -85 -39 -141 -39
c-81 0 -147 28 -193 88c-46 58 -60 128 -61 197c1 71 16 141 61 198c47 59 112 87 194 87c51 0 93 -10 134 -35c41 -26 76 -66 91 -114z" />
    <glyph glyph-name="cacute" unicode="&#x107;" horiz-adv-x="554" 
d="M191 606l227 94l-22 56l-228 -94zM520 406l-72 -24c-11 30 -34 59 -61 76c-27 19 -59 27 -93 27c-54 0 -103 -21 -134 -63c-32 -41 -41 -97 -42 -152c1 -55 10 -111 42 -152c31 -41 80 -63 134 -63c34 0 67 8 95 27c27 17 45 42 58 72l73 -21c-18 -44 -47 -84 -85 -109
c-41 -27 -85 -39 -141 -39c-81 0 -147 28 -193 88c-46 58 -60 128 -61 197c1 71 16 141 61 198c47 59 112 87 194 87c51 0 93 -10 134 -35c41 -26 76 -66 91 -114z" />
    <glyph glyph-name="ccaron" unicode="&#x10d;" horiz-adv-x="554" 
d="M190 750l-31 -52l142 -92l142 92l-32 52l-110 -72zM520 406l-72 -24c-11 30 -34 59 -61 76c-27 19 -59 27 -93 27c-54 0 -103 -21 -134 -63c-32 -41 -41 -97 -42 -152c1 -55 10 -111 42 -152c31 -41 80 -63 134 -63c34 0 67 8 95 27c27 17 45 42 58 72l73 -21
c-18 -44 -47 -84 -85 -109c-41 -27 -85 -39 -141 -39c-81 0 -147 28 -193 88c-46 58 -60 128 -61 197c1 71 16 141 61 198c47 59 112 87 194 87c51 0 93 -10 134 -35c41 -26 76 -66 91 -114z" />
    <glyph glyph-name="ccedilla" unicode="&#xe7;" horiz-adv-x="554" 
d="M389 82c27 17 45 42 58 72l73 -21c-18 -44 -47 -84 -85 -109c-30 -20 -62 -32 -99 -36l-17 -47c19 -9 37 -23 48 -43c17 -29 15 -70 -5 -97c-18 -29 -53 -44 -87 -41c-20 2 -37 8 -54 16l19 50c14 -4 26 -8 37 -8c16 -1 29 5 36 16c7 12 9 24 3 37c-8 21 -31 26 -63 37
l28 77c-75 3 -136 31 -180 88c-46 58 -60 128 -61 197c1 71 16 141 61 198c47 59 112 87 194 87c51 0 93 -10 134 -35c41 -26 76 -66 91 -114l-72 -24c-11 30 -34 59 -61 76c-27 19 -59 27 -93 27c-54 0 -103 -21 -134 -63c-32 -41 -41 -97 -42 -152c1 -55 10 -111 42 -152
c31 -41 80 -63 134 -63c34 0 67 8 95 27z" />
    <glyph glyph-name="cdotaccent" unicode="&#x10b;" horiz-adv-x="554" 
d="M261 740h85v-85h-85v85zM520 406l-72 -24c-11 30 -34 59 -61 76c-27 19 -59 27 -93 27c-54 0 -103 -21 -134 -63c-32 -41 -41 -97 -42 -152c1 -55 10 -111 42 -152c31 -41 80 -63 134 -63c34 0 67 8 95 27c27 17 45 42 58 72l73 -21c-18 -44 -47 -84 -85 -109
c-41 -27 -85 -39 -141 -39c-81 0 -147 28 -193 88c-46 58 -60 128 -61 197c1 71 16 141 61 198c47 59 112 87 194 87c51 0 93 -10 134 -35c41 -26 76 -66 91 -114z" />
    <glyph glyph-name="d" unicode="d" horiz-adv-x="609" 
d="M465 720h74v-720h-66v76c-42 -60 -109 -91 -187 -91c-74 0 -142 30 -187 87c-45 58 -59 129 -59 199c0 69 16 142 59 197c43 56 111 87 184 87c71 0 138 -29 182 -78v243zM429 114c32 40 44 99 44 157c0 57 -12 115 -44 156c-31 40 -81 60 -134 60
c-55 0 -105 -21 -136 -64c-30 -40 -41 -96 -41 -152c0 -57 10 -113 40 -153c31 -43 83 -65 136 -65s104 21 135 61z" />
    <glyph glyph-name="eth" unicode="&#xf0;" horiz-adv-x="582" 
d="M479 599c55 -86 63 -182 63 -345c0 -73 -19 -142 -63 -191c-44 -57 -118 -79 -187 -78c-71 -1 -142 25 -189 78c-46 52 -62 122 -63 189c1 67 17 137 63 188c47 55 119 79 189 79c54 0 114 -15 156 -57c7 -5 16 -13 20 -18c-5 39 -16 78 -40 115c-18 29 -40 53 -66 72
l-53 -68l-49 39l47 59c-27 11 -56 17 -87 19l11 62c43 -2 83 -11 118 -27l59 75l49 -39l-53 -67c29 -22 55 -51 75 -85zM424 109c32 37 43 90 43 144c0 52 -11 105 -43 142c-31 38 -81 56 -132 56c-52 0 -103 -18 -134 -56c-32 -37 -43 -90 -43 -143s11 -106 43 -143
c31 -38 82 -56 134 -56c51 0 101 18 132 56z" />
    <glyph glyph-name="dcaron" unicode="&#x10f;" horiz-adv-x="718" 
d="M623 727h86v-126c0 -59 -30 -94 -86 -84l5 36c39 -2 43 31 41 68h-46v106zM465 477v243h74v-720h-66v76c-42 -60 -109 -91 -187 -91c-74 0 -142 30 -187 87c-45 58 -59 129 -59 199c0 69 16 142 59 197c43 56 111 87 184 87c71 0 138 -29 182 -78zM429 114
c32 40 44 99 44 157c0 57 -12 115 -44 156c-31 40 -81 60 -134 60c-55 0 -105 -21 -136 -64c-30 -40 -41 -96 -41 -152c0 -57 10 -113 40 -153c31 -43 83 -65 136 -65s104 21 135 61z" />
    <glyph glyph-name="dcroat" unicode="&#x111;" horiz-adv-x="609" 
d="M592 656v-63h-53v-593h-66v76c-42 -60 -109 -91 -187 -91c-74 0 -142 30 -187 87c-45 58 -59 129 -59 199c0 69 16 142 59 197c43 56 111 87 184 87c71 0 138 -29 182 -78v116h-123v63h123v64h74v-64h53zM429 114c32 40 44 99 44 157c0 57 -12 115 -44 156
c-31 40 -81 60 -134 60c-55 0 -105 -21 -136 -64c-30 -40 -41 -96 -41 -152c0 -57 10 -113 40 -153c31 -43 83 -65 136 -65s104 21 135 61z" />
    <glyph glyph-name="e" unicode="e" horiz-adv-x="585" 
d="M119 249c2 -48 13 -95 40 -131c31 -41 83 -63 137 -63c38 0 73 9 103 28c28 19 50 44 66 76l69 -26c-22 -49 -57 -87 -98 -112c-41 -24 -90 -36 -138 -36c-77 0 -152 30 -197 88c-45 57 -61 127 -61 195c0 71 16 143 61 200c47 58 117 87 195 87c77 0 143 -27 190 -86
s60 -137 58 -220h-425zM296 488c-53 0 -104 -20 -136 -62c-25 -32 -36 -72 -40 -114h347c-3 45 -12 83 -37 115c-30 40 -82 61 -134 61z" />
    <glyph glyph-name="eacute" unicode="&#xe9;" horiz-adv-x="585" 
d="M420 700l-227 -94l-23 56l228 94zM119 249c2 -48 13 -95 40 -131c31 -41 83 -63 137 -63c38 0 73 9 103 28c28 19 50 44 66 76l69 -26c-22 -49 -57 -87 -98 -112c-41 -24 -90 -36 -138 -36c-77 0 -152 30 -197 88c-45 57 -61 127 -61 195c0 71 16 143 61 200
c47 58 117 87 195 87c77 0 143 -27 190 -86s60 -137 58 -220h-425zM296 488c-53 0 -104 -20 -136 -62c-25 -32 -36 -72 -40 -114h347c-3 45 -12 83 -37 115c-30 40 -82 61 -134 61z" />
    <glyph glyph-name="ecaron" unicode="&#x11b;" horiz-adv-x="585" 
d="M453 698l-142 -92l-142 92l32 52l110 -72l111 72zM119 249c2 -48 13 -95 40 -131c31 -41 83 -63 137 -63c38 0 73 9 103 28c28 19 50 44 66 76l69 -26c-22 -49 -57 -87 -98 -112c-41 -24 -90 -36 -138 -36c-77 0 -152 30 -197 88c-45 57 -61 127 -61 195
c0 71 16 143 61 200c47 58 117 87 195 87c77 0 143 -27 190 -86s60 -137 58 -220h-425zM296 488c-53 0 -104 -20 -136 -62c-25 -32 -36 -72 -40 -114h347c-3 45 -12 83 -37 115c-30 40 -82 61 -134 61z" />
    <glyph glyph-name="ecircumflex" unicode="&#xea;" horiz-adv-x="585" 
d="M293 678l-111 -72l-31 52l142 92l142 -92l-32 -52zM119 249c2 -48 13 -95 40 -131c31 -41 83 -63 137 -63c38 0 73 9 103 28c28 19 50 44 66 76l69 -26c-22 -49 -57 -87 -98 -112c-41 -24 -90 -36 -138 -36c-77 0 -152 30 -197 88c-45 57 -61 127 -61 195
c0 71 16 143 61 200c47 58 117 87 195 87c77 0 143 -27 190 -86s60 -137 58 -220h-425zM296 488c-53 0 -104 -20 -136 -62c-25 -32 -36 -72 -40 -114h347c-3 45 -12 83 -37 115c-30 40 -82 61 -134 61z" />
    <glyph glyph-name="edieresis" unicode="&#xeb;" horiz-adv-x="585" 
d="M240 725v-80h-80v80h80zM431 725v-80h-80v80h80zM119 249c2 -48 13 -95 40 -131c31 -41 83 -63 137 -63c38 0 73 9 103 28c28 19 50 44 66 76l69 -26c-22 -49 -57 -87 -98 -112c-41 -24 -90 -36 -138 -36c-77 0 -152 30 -197 88c-45 57 -61 127 -61 195
c0 71 16 143 61 200c47 58 117 87 195 87c77 0 143 -27 190 -86s60 -137 58 -220h-425zM296 488c-53 0 -104 -20 -136 -62c-25 -32 -36 -72 -40 -114h347c-3 45 -12 83 -37 115c-30 40 -82 61 -134 61z" />
    <glyph glyph-name="edotaccent" unicode="&#x117;" horiz-adv-x="585" 
d="M339 740v-85h-86v85h86zM119 249c2 -48 13 -95 40 -131c31 -41 83 -63 137 -63c38 0 73 9 103 28c28 19 50 44 66 76l69 -26c-22 -49 -57 -87 -98 -112c-41 -24 -90 -36 -138 -36c-77 0 -152 30 -197 88c-45 57 -61 127 -61 195c0 71 16 143 61 200c47 58 117 87 195 87
c77 0 143 -27 190 -86s60 -137 58 -220h-425zM296 488c-53 0 -104 -20 -136 -62c-25 -32 -36 -72 -40 -114h347c-3 45 -12 83 -37 115c-30 40 -82 61 -134 61z" />
    <glyph glyph-name="egrave" unicode="&#xe8;" horiz-adv-x="585" 
d="M445 662l-23 -56l-227 94l23 56zM119 249c2 -48 13 -95 40 -131c31 -41 83 -63 137 -63c38 0 73 9 103 28c28 19 50 44 66 76l69 -26c-22 -49 -57 -87 -98 -112c-41 -24 -90 -36 -138 -36c-77 0 -152 30 -197 88c-45 57 -61 127 -61 195c0 71 16 143 61 200
c47 58 117 87 195 87c77 0 143 -27 190 -86s60 -137 58 -220h-425zM296 488c-53 0 -104 -20 -136 -62c-25 -32 -36 -72 -40 -114h347c-3 45 -12 83 -37 115c-30 40 -82 61 -134 61z" />
    <glyph glyph-name="emacron" unicode="&#x113;" horiz-adv-x="585" 
d="M431 723v-63h-251v63h251zM119 249c2 -48 13 -95 40 -131c31 -41 83 -63 137 -63c38 0 73 9 103 28c28 19 50 44 66 76l69 -26c-22 -49 -57 -87 -98 -112c-41 -24 -90 -36 -138 -36c-77 0 -152 30 -197 88c-45 57 -61 127 -61 195c0 71 16 143 61 200
c47 58 117 87 195 87c77 0 143 -27 190 -86s60 -137 58 -220h-425zM296 488c-53 0 -104 -20 -136 -62c-25 -32 -36 -72 -40 -114h347c-3 45 -12 83 -37 115c-30 40 -82 61 -134 61z" />
    <glyph glyph-name="eogonek" unicode="&#x119;" horiz-adv-x="585" 
d="M119 249c2 -48 13 -95 40 -131c31 -41 83 -63 137 -63c38 0 73 9 103 28c28 19 50 44 66 76l69 -26l-9 -18h1c-29 -58 -90 -132 -107 -158c-17 -28 -32 -55 -39 -79c-4 -14 -6 -32 7 -45c22 -23 54 -8 75 11l33 -40c-11 -14 -27 -27 -46 -35c-40 -17 -84 -6 -109 23
c-25 27 -31 66 -18 105c10 30 28 60 46 84c3 4 7 10 12 16c-26 -8 -54 -12 -82 -12c-77 0 -152 30 -197 88c-45 57 -61 127 -61 195c0 71 16 143 61 200c47 58 117 87 195 87c77 0 143 -27 190 -86s60 -137 58 -220h-425zM296 488c-53 0 -104 -20 -136 -62
c-25 -32 -36 -72 -40 -114h347c-3 45 -12 83 -37 115c-30 40 -82 61 -134 61z" />
    <glyph glyph-name="f" unicode="f" horiz-adv-x="370" 
d="M276 666c-51 -10 -70 -40 -70 -91v-35h154v-63h-154v-477h-73v477h-123v63h123v31c0 45 11 92 49 125c49 40 112 43 178 36v-65c-28 4 -58 5 -84 -1z" />
    <glyph glyph-name="g" unicode="g" horiz-adv-x="609" 
d="M473 540h66v-532c0 -109 -20 -164 -81 -211c-52 -40 -113 -52 -170 -52c-63 0 -125 23 -166 68c-18 13 -36 31 -47 51l68 33c5 -10 12 -19 19 -27c30 -36 79 -53 126 -53s95 12 128 40c41 35 49 72 49 151v57c-42 -53 -106 -80 -179 -80c-74 0 -142 30 -187 87
c-45 58 -59 129 -59 199c0 69 16 142 59 197c43 56 111 87 184 87c75 0 147 -32 190 -88v73zM429 114c32 40 44 99 44 157c0 57 -12 115 -44 156c-31 40 -81 60 -134 60c-55 0 -105 -21 -136 -64c-30 -40 -41 -96 -41 -152c0 -57 10 -113 40 -153c31 -43 83 -65 136 -65
s104 21 135 61z" />
    <glyph glyph-name="gbreve" unicode="&#x11f;" horiz-adv-x="609" 
d="M316 600c-71 0 -129 58 -129 129h61c0 -37 31 -68 68 -68c38 0 68 31 68 68h61c0 -71 -57 -129 -129 -129zM473 540h66v-532c0 -109 -20 -164 -81 -211c-52 -40 -113 -52 -170 -52c-63 0 -125 23 -166 68c-18 13 -36 31 -47 51l68 33c5 -10 12 -19 19 -27
c30 -36 79 -53 126 -53s95 12 128 40c41 35 49 72 49 151v57c-42 -53 -106 -80 -179 -80c-74 0 -142 30 -187 87c-45 58 -59 129 -59 199c0 69 16 142 59 197c43 56 111 87 184 87c75 0 147 -32 190 -88v73zM429 114c32 40 44 99 44 157c0 57 -12 115 -44 156
c-31 40 -81 60 -134 60c-55 0 -105 -21 -136 -64c-30 -40 -41 -96 -41 -152c0 -57 10 -113 40 -153c31 -43 83 -65 136 -65s104 21 135 61z" />
    <glyph glyph-name="uni0123" unicode="&#x123;" horiz-adv-x="609" 
d="M354 683v-83h-82v83c0 56 41 83 82 83v-39c-12 0 -46 -8 -44 -44h44zM473 540h66v-532c0 -109 -20 -164 -81 -211c-52 -40 -113 -52 -170 -52c-63 0 -125 23 -166 68c-18 13 -36 31 -47 51l68 33c5 -10 12 -19 19 -27c30 -36 79 -53 126 -53s95 12 128 40
c41 35 49 72 49 151v57c-42 -53 -106 -80 -179 -80c-74 0 -142 30 -187 87c-45 58 -59 129 -59 199c0 69 16 142 59 197c43 56 111 87 184 87c75 0 147 -32 190 -88v73zM429 114c32 40 44 99 44 157c0 57 -12 115 -44 156c-31 40 -81 60 -134 60c-55 0 -105 -21 -136 -64
c-30 -40 -41 -96 -41 -152c0 -57 10 -113 40 -153c31 -43 83 -65 136 -65s104 21 135 61z" />
    <glyph glyph-name="gdotaccent" unicode="&#x121;" horiz-adv-x="609" 
d="M357 740v-85h-86v85h86zM473 540h66v-532c0 -109 -20 -164 -81 -211c-52 -40 -113 -52 -170 -52c-63 0 -125 23 -166 68c-18 13 -36 31 -47 51l68 33c5 -10 12 -19 19 -27c30 -36 79 -53 126 -53s95 12 128 40c41 35 49 72 49 151v57c-42 -53 -106 -80 -179 -80
c-74 0 -142 30 -187 87c-45 58 -59 129 -59 199c0 69 16 142 59 197c43 56 111 87 184 87c75 0 147 -32 190 -88v73zM429 114c32 40 44 99 44 157c0 57 -12 115 -44 156c-31 40 -81 60 -134 60c-55 0 -105 -21 -136 -64c-30 -40 -41 -96 -41 -152c0 -57 10 -113 40 -153
c31 -43 83 -65 136 -65s104 21 135 61z" />
    <glyph glyph-name="h" unicode="h" 
d="M450 510c75 -56 85 -152 84 -248v-262h-74v260c0 84 -9 154 -63 194c-29 21 -65 31 -105 29c-35 -1 -68 -13 -92 -35c-26 -23 -43 -56 -50 -93c-5 -23 -6 -49 -6 -77v-278h-74v720h66v-256c7 11 16 22 26 32c36 37 87 54 135 56c53 4 108 -6 153 -42z" />
    <glyph glyph-name="hbar" unicode="&#x127;" 
d="M450 510c75 -56 85 -152 84 -248v-262h-74v260c0 84 -9 154 -63 194c-29 21 -65 31 -105 29c-35 -1 -68 -13 -92 -35c-26 -23 -43 -56 -50 -93c-5 -23 -6 -49 -6 -77v-278h-74v593h-64v63h64v64h66v-64h121v-63h-121v-129c7 11 16 22 26 32c36 37 87 54 135 56
c53 4 108 -6 153 -42z" />
    <glyph glyph-name="i" unicode="i" horiz-adv-x="233" 
d="M80 718h73v-82h-73v82zM80 540h73v-540h-73v540z" />
    <glyph glyph-name="dotlessi" unicode="&#x131;" horiz-adv-x="233" 
d="M80 540h73v-540h-73v540z" />
    <glyph glyph-name="iacute" unicode="&#xed;" horiz-adv-x="233" 
d="M14 606l227 94l-22 56l-228 -94zM80 540h73v-540h-73v540z" />
    <glyph glyph-name="icircumflex" unicode="&#xee;" horiz-adv-x="233" 
d="M9 606l111 72l111 -72l31 52l-142 92l-142 -92zM80 540h73v-540h-73v540z" />
    <glyph glyph-name="idieresis" unicode="&#xef;" horiz-adv-x="233" 
d="M-19 725h80v-80h-80v80zM172 725h80v-80h-80v80zM80 540h73v-540h-73v540z" />
    <glyph glyph-name="i.loclTRK" horiz-adv-x="233" 
d="M80 718h73v-82h-73v82zM80 540h73v-540h-73v540z" />
    <glyph glyph-name="igrave" unicode="&#xec;" horiz-adv-x="233" 
d="M219 606l23 56l-227 94l-23 -56zM80 540h73v-540h-73v540z" />
    <glyph glyph-name="imacron" unicode="&#x12b;" horiz-adv-x="233" 
d="M-9 723h251v-63h-251v63zM80 540h73v-540h-73v540z" />
    <glyph glyph-name="iogonek" unicode="&#x12f;" horiz-adv-x="233" 
d="M153 718v-82h-73v82h73zM139 -156l33 -40c-11 -14 -26 -27 -46 -35c-39 -18 -84 -7 -109 23c-25 26 -31 66 -18 105c14 43 45 82 81 114v529h73v-540c-21 -16 -40 -35 -56 -55c-17 -21 -32 -44 -39 -67c-5 -14 -6 -33 6 -45c21 -23 54 -8 75 11z" />
    <glyph glyph-name="j" unicode="j" horiz-adv-x="250" 
d="M100 713h74v-82h-74v82zM0 -184v-71c52 -2 99 13 129 47c45 48 45 101 45 187v561h-74v-555c0 -76 1 -115 -30 -146c-18 -18 -48 -23 -70 -23z" />
    <glyph glyph-name="k" unicode="k" horiz-adv-x="498" 
d="M144 256v-256h-74v720h74v-393h60l179 213h88l-205 -249l232 -291h-88l-206 256h-60z" />
    <glyph glyph-name="uni0137" unicode="&#x137;" horiz-adv-x="498" 
d="M144 256v-256h-74v720h74v-393h60l179 213h88l-205 -249l232 -291h-88l-206 256h-60zM313 -163c0 -56 -41 -83 -82 -83v39c12 0 46 8 44 44h-44v83h82v-83z" />
    <glyph glyph-name="l" unicode="l" horiz-adv-x="213" 
d="M70 0h73v735h-73v-735z" />
    <glyph glyph-name="lacute" unicode="&#x13a;" horiz-adv-x="213" 
d="M4 786l227 94l-22 56l-228 -94zM70 0h73v735h-73v-735z" />
    <glyph glyph-name="lcaron" unicode="&#x13e;" horiz-adv-x="331" 
d="M70 0h73v735h-73v-735zM322 601c0 -59 -29 -94 -85 -84l4 36c40 -2 43 31 41 68h-45v106h85v-126z" />
    <glyph glyph-name="uni013C" unicode="&#x13c;" horiz-adv-x="213" 
d="M70 0h73v735h-73v-735zM149 -163c0 -56 -41 -83 -82 -83v39c12 0 46 8 44 44h-44v83h82v-83z" />
    <glyph glyph-name="lslash" unicode="&#x142;" horiz-adv-x="376" 
d="M336 493v-81l-111 -64v-348h-73v306l-112 -64v82l112 64v347h73v-305z" />
    <glyph glyph-name="m" unicode="m" horiz-adv-x="847" 
d="M726 514c59 -49 61 -103 61 -182l-1 -332h-72v329c0 60 -3 96 -44 130c-21 19 -49 30 -78 30c-39 0 -75 -17 -98 -46c-25 -30 -29 -60 -29 -95v-16v-332h-73l1 329c0 60 -3 96 -44 130c-21 19 -50 30 -79 30c-38 0 -74 -17 -98 -46c-24 -30 -28 -60 -28 -95v-348h-74v540
h66v-59c34 47 92 73 150 73c40 0 85 -12 118 -40c20 -16 33 -33 42 -51l9 14c34 49 92 77 153 77c40 0 85 -12 118 -40z" />
    <glyph glyph-name="n" unicode="n" 
d="M450 510c75 -56 85 -152 84 -248v-262h-74v260c0 84 -9 154 -63 194c-29 21 -65 31 -105 29c-35 -1 -68 -13 -92 -35c-26 -23 -43 -56 -50 -93c-5 -23 -6 -49 -6 -77v-278h-74v540h66v-76c7 11 16 22 26 32c36 37 87 54 135 56c53 4 108 -6 153 -42z" />
    <glyph glyph-name="nacute" unicode="&#x144;" 
d="M439 700l-227 -94l-23 56l227 94zM450 510c75 -56 85 -152 84 -248v-262h-74v260c0 84 -9 154 -63 194c-29 21 -65 31 -105 29c-35 -1 -68 -13 -92 -35c-26 -23 -43 -56 -50 -93c-5 -23 -6 -49 -6 -77v-278h-74v540h66v-76c7 11 16 22 26 32c36 37 87 54 135 56
c53 4 108 -6 153 -42z" />
    <glyph glyph-name="ncaron" unicode="&#x148;" 
d="M453 698l-142 -92l-142 92l31 52l111 -72l110 72zM450 510c75 -56 85 -152 84 -248v-262h-74v260c0 84 -9 154 -63 194c-29 21 -65 31 -105 29c-35 -1 -68 -13 -92 -35c-26 -23 -43 -56 -50 -93c-5 -23 -6 -49 -6 -77v-278h-74v540h66v-76c7 11 16 22 26 32
c36 37 87 54 135 56c53 4 108 -6 153 -42z" />
    <glyph glyph-name="uni0146" unicode="&#x146;" 
d="M450 510c75 -56 85 -152 84 -248v-262h-74v260c0 84 -9 154 -63 194c-29 21 -65 31 -105 29c-35 -1 -68 -13 -92 -35c-26 -23 -43 -56 -50 -93c-5 -23 -6 -49 -6 -77v-278h-74v540h66v-76c7 11 16 22 26 32c36 37 87 54 135 56c53 4 108 -6 153 -42zM262 -163v83h83v-83
c0 -56 -42 -83 -83 -83v39c12 0 46 8 44 44h-44z" />
    <glyph glyph-name="eng" unicode="&#x14b;" 
d="M450 510c75 -56 85 -152 84 -248v-355c0 -64 -28 -95 -70 -104c-35 -5 -59 -2 -85 5v59c54 -8 81 0 81 74v319c0 84 -9 154 -63 194c-29 21 -65 31 -105 29c-35 -1 -68 -13 -92 -35c-26 -23 -43 -56 -50 -93c-5 -23 -6 -49 -6 -77v-278h-74v540h66v-76c7 11 16 22 26 32
c36 37 87 54 135 56c53 4 108 -6 153 -42z" />
    <glyph glyph-name="ntilde" unicode="&#xf1;" 
d="M215 638h-50c-5 19 -4 43 7 61c11 20 32 32 52 34c32 5 61 -4 88 -16c32 -14 53 -27 75 -25c24 2 28 24 22 39h50c5 -19 4 -43 -7 -61c-11 -20 -32 -32 -52 -34c-32 -5 -61 4 -88 16c-32 14 -53 27 -75 25c-24 -2 -28 -24 -22 -39zM450 510c75 -56 85 -152 84 -248v-262
h-74v260c0 84 -9 154 -63 194c-29 21 -65 31 -105 29c-35 -1 -68 -13 -92 -35c-26 -23 -43 -56 -50 -93c-5 -23 -6 -49 -6 -77v-278h-74v540h66v-76c7 11 16 22 26 32c36 37 87 54 135 56c53 4 108 -6 153 -42z" />
    <glyph glyph-name="o" unicode="o" horiz-adv-x="592" 
d="M296 -15c-78 0 -149 29 -195 88c-46 57 -61 127 -61 198c0 70 16 141 61 197c44 56 117 87 195 87c76 0 149 -29 195 -87s61 -128 61 -197c0 -72 -16 -140 -61 -198c-47 -60 -117 -88 -195 -88zM474 271c0 54 -10 111 -42 152c-31 41 -82 62 -136 62s-106 -21 -136 -62
c-32 -41 -42 -98 -42 -152c0 -56 10 -112 42 -153c30 -41 82 -63 136 -63s105 22 136 63c32 41 42 97 42 153z" />
    <glyph glyph-name="oacute" unicode="&#xf3;" horiz-adv-x="592" 
d="M181 606l227 94l-23 56l-227 -94zM296 -15c-78 0 -149 29 -195 88c-46 57 -61 127 -61 198c0 70 16 141 61 197c44 56 117 87 195 87c76 0 149 -29 195 -87s61 -128 61 -197c0 -72 -16 -140 -61 -198c-47 -60 -117 -88 -195 -88zM474 271c0 54 -10 111 -42 152
c-31 41 -82 62 -136 62s-106 -21 -136 -62c-32 -41 -42 -98 -42 -152c0 -56 10 -112 42 -153c30 -41 82 -63 136 -63s105 22 136 63c32 41 42 97 42 153z" />
    <glyph glyph-name="ocircumflex" unicode="&#xf4;" horiz-adv-x="592" 
d="M185 606l111 72l111 -72l31 52l-142 92l-142 -92zM296 -15c-78 0 -149 29 -195 88c-46 57 -61 127 -61 198c0 70 16 141 61 197c44 56 117 87 195 87c76 0 149 -29 195 -87s61 -128 61 -197c0 -72 -16 -140 -61 -198c-47 -60 -117 -88 -195 -88zM474 271
c0 54 -10 111 -42 152c-31 41 -82 62 -136 62s-106 -21 -136 -62c-32 -41 -42 -98 -42 -152c0 -56 10 -112 42 -153c30 -41 82 -63 136 -63s105 22 136 63c32 41 42 97 42 153z" />
    <glyph glyph-name="odieresis" unicode="&#xf6;" horiz-adv-x="592" 
d="M161 725h80v-80h-80v80zM351 725h80v-80h-80v80zM296 -15c-78 0 -149 29 -195 88c-46 57 -61 127 -61 198c0 70 16 141 61 197c44 56 117 87 195 87c76 0 149 -29 195 -87s61 -128 61 -197c0 -72 -16 -140 -61 -198c-47 -60 -117 -88 -195 -88zM474 271
c0 54 -10 111 -42 152c-31 41 -82 62 -136 62s-106 -21 -136 -62c-32 -41 -42 -98 -42 -152c0 -56 10 -112 42 -153c30 -41 82 -63 136 -63s105 22 136 63c32 41 42 97 42 153z" />
    <glyph glyph-name="ograve" unicode="&#xf2;" horiz-adv-x="592" 
d="M411 606l23 56l-227 94l-23 -56zM296 -15c-78 0 -148 28 -195 88c-45 58 -61 126 -61 198c0 69 15 139 61 197s119 87 195 87c78 0 151 -31 195 -87c45 -56 61 -127 61 -197c0 -71 -15 -141 -61 -198c-46 -59 -117 -88 -195 -88zM118 271c0 -56 10 -112 42 -153
c31 -41 82 -63 136 -63s106 22 136 63c32 41 42 97 42 153c0 54 -10 111 -42 152c-30 41 -82 62 -136 62s-105 -21 -136 -62c-32 -41 -42 -98 -42 -152z" />
    <glyph glyph-name="ohungarumlaut" unicode="&#x151;" horiz-adv-x="592" 
d="M219 612l106 104l-39 40l-106 -103zM365 612l106 104l-39 40l-106 -103zM296 -15c-78 0 -149 29 -195 88c-46 57 -61 127 -61 198c0 70 16 141 61 197c44 56 117 87 195 87c76 0 149 -29 195 -87s61 -128 61 -197c0 -72 -16 -140 -61 -198c-47 -60 -117 -88 -195 -88z
M474 271c0 54 -10 111 -42 152c-31 41 -82 62 -136 62s-106 -21 -136 -62c-32 -41 -42 -98 -42 -152c0 -56 10 -112 42 -153c30 -41 82 -63 136 -63s105 22 136 63c32 41 42 97 42 153z" />
    <glyph glyph-name="omacron" unicode="&#x14d;" horiz-adv-x="592" 
d="M171 723h250v-63h-250v63zM296 -15c-78 0 -149 29 -195 88c-46 57 -61 127 -61 198c0 70 16 141 61 197c44 56 117 87 195 87c76 0 149 -29 195 -87s61 -128 61 -197c0 -72 -16 -140 -61 -198c-47 -60 -117 -88 -195 -88zM474 271c0 54 -10 111 -42 152
c-31 41 -82 62 -136 62s-106 -21 -136 -62c-32 -41 -42 -98 -42 -152c0 -56 10 -112 42 -153c30 -41 82 -63 136 -63s105 22 136 63c32 41 42 97 42 153z" />
    <glyph glyph-name="oslash" unicode="&#xf8;" horiz-adv-x="592" 
d="M572 495l-59 -59c29 -51 39 -108 39 -165c0 -72 -16 -140 -61 -198c-47 -60 -117 -88 -195 -88c-66 0 -127 21 -172 63l-54 -53l-50 50l59 59c-29 51 -39 109 -39 167c0 70 16 141 61 197c44 56 117 87 195 87c65 0 127 -21 173 -63l53 53zM118 271c0 -38 5 -77 18 -110
l281 279c-31 30 -75 45 -121 45c-54 0 -106 -21 -136 -62c-32 -41 -42 -98 -42 -152zM474 271c0 37 -5 75 -18 109l-280 -280c30 -29 74 -45 120 -45c54 0 105 22 136 63c32 41 42 97 42 153z" />
    <glyph glyph-name="otilde" unicode="&#xf5;" horiz-adv-x="592" 
d="M443 731c5 -19 4 -43 -6 -61c-12 -20 -33 -32 -52 -34c-32 -5 -61 4 -88 16c-33 14 -54 27 -76 25c-24 -2 -27 -24 -21 -39h-51c-4 19 -3 43 7 61c12 20 33 32 52 34c32 5 61 -4 88 -16c32 -14 53 -27 76 -25c24 2 27 24 21 39h50zM296 -15c-78 0 -149 29 -195 88
c-46 57 -61 127 -61 198c0 70 16 141 61 197c44 56 117 87 195 87c76 0 149 -29 195 -87s61 -128 61 -197c0 -72 -16 -140 -61 -198c-47 -60 -117 -88 -195 -88zM474 271c0 54 -10 111 -42 152c-31 41 -82 62 -136 62s-106 -21 -136 -62c-32 -41 -42 -98 -42 -152
c0 -56 10 -112 42 -153c30 -41 82 -63 136 -63s105 22 136 63c32 41 42 97 42 153z" />
    <glyph glyph-name="oe" unicode="&#x153;" horiz-adv-x="1019" 
d="M553 249c2 -48 14 -95 41 -131c30 -41 82 -63 136 -63c39 0 74 9 104 28c28 19 49 44 65 76l69 -26c-22 -49 -57 -87 -97 -112c-42 -24 -90 -36 -138 -36c-78 0 -152 30 -198 88c-8 11 -16 22 -22 33c-6 -11 -14 -22 -22 -33c-47 -60 -117 -88 -195 -88s-149 29 -195 88
c-46 57 -61 127 -61 198c0 70 16 141 61 197c44 56 117 87 195 87c76 0 149 -29 195 -87c8 -11 16 -22 22 -33c7 11 14 22 22 33c47 58 118 87 195 87s143 -27 190 -86s61 -137 58 -220h-425zM730 488c-52 0 -104 -20 -136 -62c-24 -32 -36 -72 -40 -114h347
c-3 45 -12 83 -37 115c-30 40 -82 61 -134 61zM432 118c32 41 42 97 42 153c0 54 -10 111 -42 152c-31 41 -82 62 -136 62s-106 -21 -136 -62c-32 -41 -42 -98 -42 -152c0 -56 10 -112 42 -153c30 -41 82 -63 136 -63s105 22 136 63z" />
    <glyph glyph-name="p" unicode="p" horiz-adv-x="609" 
d="M510 468c43 -55 59 -128 59 -197c0 -70 -14 -141 -59 -199c-45 -57 -113 -87 -187 -87c-73 0 -137 27 -179 80v-305h-74v780h66v-73c43 56 115 88 190 88c73 0 141 -31 184 -87zM451 118c30 40 40 96 40 153c0 56 -11 112 -41 152c-31 43 -81 64 -136 64
c-53 0 -103 -20 -134 -60c-32 -41 -44 -99 -44 -156c0 -58 12 -117 44 -157c31 -40 82 -61 135 -61s105 22 136 65z" />
    <glyph glyph-name="thorn" unicode="&#xfe;" horiz-adv-x="609" 
d="M510 468c43 -55 59 -128 59 -197c0 -70 -14 -141 -59 -199c-45 -57 -113 -87 -187 -87c-73 0 -137 27 -179 80v-305h-74v960h74v-243c44 49 111 78 182 78c73 0 141 -31 184 -87zM451 118c30 40 40 96 40 153c0 56 -11 112 -41 152c-31 43 -81 64 -136 64
c-53 0 -103 -20 -134 -60c-32 -41 -44 -99 -44 -156c0 -58 12 -117 44 -157c31 -40 82 -61 135 -61s105 22 136 65z" />
    <glyph glyph-name="q" unicode="q" horiz-adv-x="609" 
d="M473 540h66v-780h-74v305c-42 -53 -106 -80 -179 -80c-74 0 -142 30 -187 87c-45 58 -59 129 -59 199c0 69 16 142 59 197c43 56 111 87 184 87c75 0 147 -32 190 -88v73zM429 114c32 40 44 99 44 157c0 57 -12 115 -44 156c-31 40 -81 60 -134 60
c-55 0 -105 -21 -136 -64c-30 -40 -41 -96 -41 -152c0 -57 10 -113 40 -153c31 -43 83 -65 136 -65s104 21 135 61z" />
    <glyph glyph-name="r" unicode="r" horiz-adv-x="406" 
d="M308 555c25 0 49 -3 73 -10v-71c-23 9 -49 13 -78 12c-43 -1 -81 -16 -107 -41c-51 -48 -52 -110 -52 -188v-257h-74v540h66v-81c11 19 26 35 45 51c35 30 82 44 127 45z" />
    <glyph glyph-name="racute" unicode="&#x155;" horiz-adv-x="406" 
d="M320 700l-227 -94l-23 56l227 94zM308 555c25 0 49 -3 73 -10v-71c-23 9 -49 13 -78 12c-43 -1 -81 -16 -107 -41c-51 -48 -52 -110 -52 -188v-257h-74v540h66v-81c11 19 26 35 45 51c35 30 82 44 127 45z" />
    <glyph glyph-name="rcaron" unicode="&#x159;" horiz-adv-x="406" 
d="M354 698l-142 -92l-142 92l31 52l111 -72l111 72zM308 555c25 0 49 -3 73 -10v-71c-23 9 -49 13 -78 12c-43 -1 -81 -16 -107 -41c-51 -48 -52 -110 -52 -188v-257h-74v540h66v-81c11 19 26 35 45 51c35 30 82 44 127 45z" />
    <glyph glyph-name="uni0157" unicode="&#x157;" horiz-adv-x="406" 
d="M308 555c25 0 49 -3 73 -10v-71c-23 9 -49 13 -78 12c-43 -1 -81 -16 -107 -41c-51 -48 -52 -110 -52 -188v-257h-74v540h66v-81c11 19 26 35 45 51c35 30 82 44 127 45zM66 -163v83h82v-83c0 -56 -41 -83 -82 -83v39c12 0 46 8 44 44h-44z" />
    <glyph glyph-name="s" unicode="s" horiz-adv-x="524" 
d="M483 399l-71 -18c-28 73 -86 106 -158 107c-66 2 -129 -27 -129 -78c0 -45 33 -63 88 -78c28 -8 62 -17 111 -30c90 -24 160 -76 160 -159c0 -46 -27 -96 -69 -121c-42 -28 -95 -36 -148 -36c-63 0 -119 14 -168 59c-29 28 -48 63 -59 94l67 22c10 -26 23 -48 44 -68
c30 -27 72 -40 116 -40c37 0 84 8 110 26c23 15 36 38 36 65c0 53 -51 73 -111 90c-51 15 -78 22 -111 32c-34 11 -71 24 -99 51c-27 24 -38 61 -38 92c0 55 39 103 88 125c39 18 78 22 115 21c38 0 78 -8 114 -26c51 -26 97 -79 112 -130z" />
    <glyph glyph-name="sacute" unicode="&#x15b;" horiz-adv-x="524" 
d="M172 606l227 94l-23 56l-227 -94zM483 399l-71 -18c-28 73 -86 106 -158 107c-66 2 -129 -27 -129 -78c0 -45 33 -63 88 -78c28 -8 62 -17 111 -30c90 -24 160 -76 160 -159c0 -46 -27 -96 -69 -121c-42 -28 -95 -36 -148 -36c-63 0 -119 14 -168 59
c-29 28 -48 63 -59 94l67 22c10 -26 23 -48 44 -68c30 -27 72 -40 116 -40c37 0 84 8 110 26c23 15 36 38 36 65c0 53 -51 73 -111 90c-51 15 -78 22 -111 32c-34 11 -71 24 -99 51c-27 24 -38 61 -38 92c0 55 39 103 88 125c39 18 78 22 115 21c38 0 78 -8 114 -26
c51 -26 97 -79 112 -130z" />
    <glyph glyph-name="scaron" unicode="&#x161;" horiz-adv-x="524" 
d="M163 750l-31 -52l142 -92l142 92l-32 52l-110 -72zM483 399l-71 -18c-28 73 -86 106 -158 107c-66 2 -129 -27 -129 -78c0 -45 33 -63 88 -78c28 -8 62 -17 111 -30c90 -24 160 -76 160 -159c0 -46 -27 -96 -69 -121c-42 -28 -95 -36 -148 -36c-63 0 -119 14 -168 59
c-29 28 -48 63 -59 94l67 22c10 -26 23 -48 44 -68c30 -27 72 -40 116 -40c37 0 84 8 110 26c23 15 36 38 36 65c0 53 -51 73 -111 90c-51 15 -78 22 -111 32c-34 11 -71 24 -99 51c-27 24 -38 61 -38 92c0 55 39 103 88 125c39 18 78 22 115 21c38 0 78 -8 114 -26
c51 -26 97 -79 112 -130z" />
    <glyph glyph-name="scedilla" unicode="&#x15f;" horiz-adv-x="524" 
d="M324 302c90 -24 160 -76 160 -159c0 -46 -27 -96 -69 -121c-31 -21 -69 -31 -108 -34l-17 -47c19 -9 37 -23 48 -43c17 -29 15 -70 -5 -97c-18 -29 -53 -44 -87 -41c-20 2 -37 8 -54 16l19 50c14 -4 26 -8 37 -8c16 -1 29 5 36 16c7 12 9 24 3 37c-8 21 -31 26 -63 37
l28 78c-57 2 -108 18 -153 59c-29 28 -48 63 -59 94l67 22c10 -26 23 -48 44 -68c30 -27 72 -40 116 -40c37 0 84 8 110 26c23 15 36 38 36 65c0 53 -51 73 -111 90c-51 15 -78 22 -111 32c-34 11 -71 24 -99 51c-27 24 -38 61 -38 92c0 55 39 103 88 125
c39 18 78 22 115 21c38 0 78 -8 114 -26c51 -26 97 -79 112 -130l-71 -18c-28 73 -86 106 -158 107c-66 2 -129 -27 -129 -78c0 -45 33 -63 88 -78c28 -8 62 -17 111 -30z" />
    <glyph glyph-name="uni0219" unicode="&#x219;" horiz-adv-x="524" 
d="M483 399l-71 -18c-28 73 -86 106 -158 107c-66 2 -129 -27 -129 -78c0 -45 33 -63 88 -78c28 -8 62 -17 111 -30c90 -24 160 -76 160 -159c0 -46 -27 -96 -69 -121c-42 -28 -95 -36 -148 -36c-63 0 -119 14 -168 59c-29 28 -48 63 -59 94l67 22c10 -26 23 -48 44 -68
c30 -27 72 -40 116 -40c37 0 84 8 110 26c23 15 36 38 36 65c0 53 -51 73 -111 90c-51 15 -78 22 -111 32c-34 11 -71 24 -99 51c-27 24 -38 61 -38 92c0 55 39 103 88 125c39 18 78 22 115 21c38 0 78 -8 114 -26c51 -26 97 -79 112 -130zM308 -163c0 -56 -41 -83 -82 -83
v39c12 0 46 8 44 44h-44v83h82v-83z" />
    <glyph glyph-name="germandbls" unicode="&#xdf;" horiz-adv-x="599" 
d="M70 0v539c0 66 27 121 77 157c39 30 84 39 126 39c44 0 90 -12 125 -38c50 -36 78 -96 78 -155c0 -38 -14 -74 -38 -102c-13 -18 -30 -34 -50 -46c33 -13 64 -30 90 -54c38 -36 61 -83 61 -135c0 -57 -16 -112 -64 -151c-53 -42 -120 -54 -206 -54h-48v76h48
c62 0 115 7 152 37c29 24 41 56 41 92c0 41 -20 76 -51 99c-41 32 -89 42 -138 46v67c39 6 75 25 97 51c20 22 30 49 30 74c0 37 -18 73 -46 95c-23 18 -52 28 -80 28c-30 0 -59 -9 -83 -27c-27 -21 -45 -59 -45 -93v-545h-76z" />
    <glyph glyph-name="t" unicode="t" horiz-adv-x="401" 
d="M199 477v-279c0 -45 -3 -73 11 -97c11 -25 37 -38 65 -41c28 -2 61 -1 89 4v-64c-35 -9 -81 -10 -116 -5c-48 7 -82 27 -105 68c-20 38 -18 80 -18 133v281h-115v63h115v150h74v-150h165v-63h-165z" />
    <glyph glyph-name="tbar" unicode="&#x167;" horiz-adv-x="421" 
d="M199 242v-44c0 -45 -3 -73 11 -97c11 -25 37 -38 65 -41c28 -2 61 -1 89 4v-64c-35 -9 -81 -10 -116 -5c-48 7 -82 27 -105 68c-20 38 -18 80 -18 133v46h-115v63h115v172h-115v63h115v150h74v-150h165v-63h-165v-172h172v-63h-172z" />
    <glyph glyph-name="tcaron" unicode="&#x165;" horiz-adv-x="401" 
d="M309 824h86v-126c0 -59 -30 -94 -86 -84l5 36c39 -2 43 31 41 68h-46v106zM199 690v-150h165v-63h-165v-279c0 -45 -3 -73 11 -97c11 -25 37 -38 65 -41c28 -2 61 -1 89 4v-64c-35 -9 -81 -10 -116 -5c-48 7 -82 27 -105 68c-20 38 -18 80 -18 133v281h-115v63h115v150
h74z" />
    <glyph glyph-name="uni0163" unicode="&#x163;" horiz-adv-x="421" 
d="M199 477v-279c0 -45 -3 -73 11 -97c11 -25 37 -38 65 -41c28 -2 61 -1 89 4v-64c-35 -9 -81 -10 -116 -5c-2 0 -4 1 -6 1l-20 -56c19 -9 37 -23 48 -43c17 -29 14 -70 -5 -97c-19 -29 -54 -44 -87 -41c-20 2 -38 8 -54 16l19 50c14 -4 26 -8 37 -8c16 -1 29 5 35 16
c8 12 10 24 4 37c-9 21 -31 26 -63 37l38 105c-21 11 -38 28 -51 51c-20 38 -18 80 -18 133v281h-115v63h115v150h74v-150h165v-63h-165z" />
    <glyph glyph-name="uni021B" unicode="&#x21b;" horiz-adv-x="401" 
d="M199 477v-279c0 -45 -3 -73 11 -97c11 -25 37 -38 65 -41c28 -2 61 -1 89 4v-64c-35 -9 -81 -10 -116 -5c-48 7 -82 27 -105 68c-20 38 -18 80 -18 133v281h-115v63h115v150h74v-150h165v-63h-165zM167 -163v83h83v-83c0 -56 -41 -83 -83 -83v39c12 0 47 8 45 44h-45z
" />
    <glyph glyph-name="u" unicode="u" 
d="M450 540h74v-540h-66v76c-7 -11 -16 -22 -26 -32c-36 -37 -87 -54 -135 -56c-53 -4 -108 6 -153 42c-75 56 -85 152 -84 248v262h74v-260c0 -84 9 -154 63 -194c29 -21 65 -31 105 -29c35 1 68 13 92 35c26 23 43 56 50 93c5 23 6 49 6 77v278z" />
    <glyph glyph-name="uacute" unicode="&#xfa;" 
d="M419 700l-227 -94l-23 56l227 94zM450 540h74v-540h-66v76c-7 -11 -16 -22 -26 -32c-36 -37 -87 -54 -135 -56c-53 -4 -108 6 -153 42c-75 56 -85 152 -84 248v262h74v-260c0 -84 9 -154 63 -194c29 -21 65 -31 105 -29c35 1 68 13 92 35c26 23 43 56 50 93
c5 23 6 49 6 77v278z" />
    <glyph glyph-name="ucircumflex" unicode="&#xfb;" 
d="M282 678l-110 -72l-32 52l142 92l142 -92l-31 -52zM450 540h74v-540h-66v76c-7 -11 -16 -22 -26 -32c-36 -37 -87 -54 -135 -56c-53 -4 -108 6 -153 42c-75 56 -85 152 -84 248v262h74v-260c0 -84 9 -154 63 -194c29 -21 65 -31 105 -29c35 1 68 13 92 35
c26 23 43 56 50 93c5 23 6 49 6 77v278z" />
    <glyph glyph-name="udieresis" unicode="&#xfc;" 
d="M226 725v-80h-80v80h80zM417 725v-80h-80v80h80zM450 540h74v-540h-66v76c-7 -11 -16 -22 -26 -32c-36 -37 -87 -54 -135 -56c-53 -4 -108 6 -153 42c-75 56 -85 152 -84 248v262h74v-260c0 -84 9 -154 63 -194c29 -21 65 -31 105 -29c35 1 68 13 92 35
c26 23 43 56 50 93c5 23 6 49 6 77v278z" />
    <glyph glyph-name="ugrave" unicode="&#xf9;" 
d="M427 662l-23 -56l-227 94l23 56zM450 540h74v-540h-66v76c-7 -11 -16 -22 -26 -32c-36 -37 -87 -54 -135 -56c-53 -4 -108 6 -153 42c-75 56 -85 152 -84 248v262h74v-260c0 -84 9 -154 63 -194c29 -21 65 -31 105 -29c35 1 68 13 92 35c26 23 43 56 50 93
c5 23 6 49 6 77v278z" />
    <glyph glyph-name="uhungarumlaut" unicode="&#x171;" 
d="M317 716l-105 -104l-39 41l105 103zM463 716l-105 -104l-39 41l105 103zM450 540h74v-540h-66v76c-7 -11 -16 -22 -26 -32c-36 -37 -87 -54 -135 -56c-53 -4 -108 6 -153 42c-75 56 -85 152 -84 248v262h74v-260c0 -84 9 -154 63 -194c29 -21 65 -31 105 -29
c35 1 68 13 92 35c26 23 43 56 50 93c5 23 6 49 6 77v278z" />
    <glyph glyph-name="umacron" unicode="&#x16b;" 
d="M420 723v-63h-251v63h251zM450 540h74v-540h-66v76c-7 -11 -16 -22 -26 -32c-36 -37 -87 -54 -135 -56c-53 -4 -108 6 -153 42c-75 56 -85 152 -84 248v262h74v-260c0 -84 9 -154 63 -194c29 -21 65 -31 105 -29c35 1 68 13 92 35c26 23 43 56 50 93c5 23 6 49 6 77v278z
" />
    <glyph glyph-name="uogonek" unicode="&#x173;" 
d="M500 -156l33 -40c-11 -14 -27 -27 -46 -35c-39 -18 -85 -7 -109 23c-26 26 -31 66 -18 105c17 49 54 95 98 128v51c-7 -11 -16 -22 -26 -32c-36 -37 -87 -54 -135 -56c-53 -4 -108 6 -153 42c-75 56 -85 152 -84 248v262h74v-260c0 -84 9 -154 63 -194
c29 -21 65 -31 105 -29c35 1 68 13 92 35c26 23 43 56 50 93c5 23 6 49 6 77v278h74v-540h-10c-21 -16 -41 -35 -57 -55c-16 -21 -31 -44 -38 -67c-5 -14 -6 -33 6 -45c21 -23 54 -8 75 11z" />
    <glyph glyph-name="uring" unicode="&#x16f;" 
d="M291 594c-64 0 -118 53 -118 118c0 64 54 118 118 118c65 0 118 -54 118 -118c0 -65 -53 -118 -118 -118zM291 772c-33 0 -60 -27 -60 -60s27 -60 60 -60c34 0 60 27 60 60s-26 60 -60 60zM450 540h74v-540h-66v76c-7 -11 -16 -22 -26 -32c-36 -37 -87 -54 -135 -56
c-53 -4 -108 6 -153 42c-75 56 -85 152 -84 248v262h74v-260c0 -84 9 -154 63 -194c29 -21 65 -31 105 -29c35 1 68 13 92 35c26 23 43 56 50 93c5 23 6 49 6 77v278z" />
    <glyph glyph-name="v" unicode="v" horiz-adv-x="508" 
d="M413 540h75l-196 -540h-76l-196 540h75l159 -444z" />
    <glyph glyph-name="w" unicode="w" horiz-adv-x="767" 
d="M674 540h73l-165 -540h-67l-131 430l-135 -430h-64l-165 540h74l128 -419l128 419h67l129 -419z" />
    <glyph glyph-name="wacute" unicode="&#x1e83;" horiz-adv-x="767" 
d="M265 606l227 94l-22 56l-227 -94zM674 540h73l-165 -540h-67l-131 430l-135 -430h-64l-165 540h74l128 -419l128 419h67l129 -419z" />
    <glyph glyph-name="wcircumflex" unicode="&#x175;" horiz-adv-x="767" 
d="M273 606l111 72l110 -72l32 52l-142 92l-142 -92zM674 540h73l-165 -540h-67l-131 430l-135 -430h-64l-165 540h74l128 -419l128 419h67l129 -419z" />
    <glyph glyph-name="wdieresis" unicode="&#x1e85;" horiz-adv-x="767" 
d="M248 725h80v-80h-80v80zM439 725h80v-80h-80v80zM674 540h73l-165 -540h-67l-131 430l-135 -430h-64l-165 540h74l128 -419l128 419h67l129 -419z" />
    <glyph glyph-name="wgrave" unicode="&#x1e81;" horiz-adv-x="767" 
d="M473 606l22 56l-227 94l-22 -56zM674 540h73l-165 -540h-67l-131 430l-135 -430h-64l-165 540h74l128 -419l128 419h67l129 -419z" />
    <glyph glyph-name="x" unicode="x" horiz-adv-x="530" 
d="M515 540l-206 -267l211 -273h-90l-164 217l-166 -217h-90l211 273l-206 267h89l162 -211l160 211h89z" />
    <glyph glyph-name="y" unicode="y" horiz-adv-x="549" 
d="M464 539h75l-248 -645c-20 -54 -41 -92 -72 -113c-28 -20 -54 -21 -109 -20v71c36 -1 55 0 74 14c23 17 34 44 70 139l-234 555h76l193 -461z" />
    <glyph glyph-name="yacute" unicode="&#xfd;" horiz-adv-x="549" 
d="M188 606l227 94l-23 56l-227 -94zM464 539h75l-248 -645c-20 -54 -41 -92 -72 -113c-28 -20 -54 -21 -109 -20v71c36 -1 55 0 74 14c23 17 34 44 70 139l-234 555h76l193 -461z" />
    <glyph glyph-name="ycircumflex" unicode="&#x177;" horiz-adv-x="549" 
d="M175 606l111 72l111 -72l31 52l-142 92l-142 -92zM464 539h75l-248 -645c-20 -54 -41 -92 -72 -113c-28 -20 -54 -21 -109 -20v71c36 -1 55 0 74 14c23 17 34 44 70 139l-234 555h76l193 -461z" />
    <glyph glyph-name="ydieresis" unicode="&#xff;" horiz-adv-x="549" 
d="M145 725h80v-80h-80v80zM335 725h80v-80h-80v80zM464 539h75l-248 -645c-20 -54 -41 -92 -72 -113c-28 -20 -54 -21 -109 -20v71c36 -1 55 0 74 14c23 17 34 44 70 139l-234 555h76l193 -461z" />
    <glyph glyph-name="ygrave" unicode="&#x1ef3;" horiz-adv-x="549" 
d="M391 606l23 56l-228 94l-22 -56zM464 539h75l-248 -645c-20 -54 -41 -92 -72 -113c-28 -20 -54 -21 -109 -20v71c36 -1 55 0 74 14c23 17 34 44 70 139l-234 555h76l193 -461z" />
    <glyph glyph-name="z" unicode="z" horiz-adv-x="578" 
d="M508 69v-69h-438v68l340 403h-340v69h438v-69l-340 -402h340z" />
    <glyph glyph-name="zacute" unicode="&#x17a;" horiz-adv-x="578" 
d="M197 606l227 94l-22 56l-228 -94zM508 69v-69h-438v68l340 403h-340v69h438v-69l-340 -402h340z" />
    <glyph glyph-name="zcaron" unicode="&#x17e;" horiz-adv-x="578" 
d="M195 750l-31 -52l142 -92l142 92l-31 52l-111 -72zM508 69v-69h-438v68l340 403h-340v69h438v-69l-340 -402h340z" />
    <glyph glyph-name="zdotaccent" unicode="&#x17c;" horiz-adv-x="578" 
d="M256 740h86v-85h-86v85zM508 69v-69h-438v68l340 403h-340v69h438v-69l-340 -402h340z" />
    <glyph glyph-name="uni0410" unicode="&#x410;" horiz-adv-x="634" 
d="M537 0l-61 175h-319l-60 -175h-77l248 720h98l248 -720h-77zM181 244h271l-136 393z" />
    <glyph glyph-name="uni0411" unicode="&#x411;" horiz-adv-x="604" 
d="M517 374c37 -42 57 -96 57 -151c0 -60 -26 -120 -68 -160c-41 -40 -100 -63 -156 -63h-280v720h449v-70h-376v-208h207c65 0 127 -22 167 -68zM498 223c1 36 -11 72 -34 99c-28 35 -69 54 -116 54h-205v-305h206c38 0 79 17 106 44c27 29 42 68 43 108z" />
    <glyph glyph-name="uni0412" unicode="&#x412;" horiz-adv-x="616" 
d="M537 327c31 -33 48 -81 46 -127c-2 -51 -17 -102 -51 -137c-46 -48 -90 -63 -179 -63h-283v720h278c60 0 107 -18 148 -56c35 -34 52 -84 53 -132c0 -43 -16 -82 -41 -111c-13 -16 -29 -29 -46 -39c29 -12 55 -30 75 -55zM347 650h-203v-237h203c40 0 79 18 102 49
c17 22 24 49 24 76c0 30 -11 56 -32 77c-23 23 -56 35 -94 35zM472 114c24 23 35 53 35 86c0 31 -9 63 -28 88c-26 36 -75 55 -113 55h-222v-272h209c50 0 83 9 119 43z" />
    <glyph glyph-name="uni0413" unicode="&#x413;" horiz-adv-x="530" 
d="M520 720v-70h-377v-650h-73v720h450z" />
    <glyph glyph-name="uni0403" unicode="&#x403;" horiz-adv-x="530" 
d="M370 880l-227 -94l-23 56l227 94zM520 720v-70h-377v-650h-73v720h450z" />
    <glyph glyph-name="uni0490" unicode="&#x490;" horiz-adv-x="540" 
d="M530 803v-151h-10v-2h-377v-650h-73v720h387v83h73z" />
    <glyph glyph-name="uni0414" unicode="&#x414;" horiz-adv-x="763" 
d="M653 70h60v-153h-71v83h-545v-83h-70v153c76 0 123 75 140 221l50 429h436v-650zM582 70v580h-302l-43 -367c-12 -99 -35 -171 -78 -213h423z" />
    <glyph glyph-name="uni0415" unicode="&#x415;" horiz-adv-x="590" 
d="M520 650h-377v-250h317v-70h-317v-260h377v-70h-450v720h450v-70z" />
    <glyph glyph-name="uni0400" unicode="&#x400;" horiz-adv-x="590" 
d="M408 842l-22 -56l-227 94l22 56zM520 650h-377v-250h317v-70h-317v-260h377v-70h-450v720h450v-70z" />
    <glyph glyph-name="uni0401" unicode="&#x401;" horiz-adv-x="590" 
d="M229 920v-80h-80v80h80zM420 920v-80h-80v80h80zM520 650h-377v-250h317v-70h-317v-260h377v-70h-450v720h450v-70z" />
    <glyph glyph-name="uni0416" unicode="&#x416;" horiz-adv-x="944" 
d="M10 0l244 375l-118 225c-11 21 -28 37 -44 43c-17 6 -31 9 -55 7l-6 70c29 7 65 8 101 -10c31 -15 50 -44 66 -75l119 -229h118v314h74v-314h118l118 229c16 31 36 60 66 75c36 18 73 17 101 10l-5 -70c-24 2 -39 -1 -55 -7c-17 -6 -33 -22 -45 -43l-117 -225l244 -375
h-89l-220 343h-116v-343h-74v343h-116l-220 -343h-89z" />
    <glyph glyph-name="uni0417" unicode="&#x417;" horiz-adv-x="632" 
d="M76 639c23 23 51 44 92 64c50 25 106 32 161 32c57 0 119 -11 168 -45c53 -37 78 -91 78 -151c0 -47 -20 -94 -55 -123c-11 -13 -24 -24 -38 -34c19 -12 36 -25 52 -41c40 -36 58 -87 58 -143c0 -66 -30 -126 -83 -163s-120 -50 -179 -50s-127 9 -177 39
c-47 28 -86 63 -113 118l59 38c19 -38 54 -73 90 -93c48 -26 92 -32 140 -32c50 0 99 11 137 40c33 26 49 64 48 103c1 44 -14 84 -48 108c-35 27 -82 38 -129 38h-111v71h111c42 0 83 9 114 31c31 21 47 56 46 92c0 39 -16 72 -48 94c-33 24 -78 33 -121 33
c-45 0 -89 -8 -129 -27c-32 -15 -55 -34 -74 -53z" />
    <glyph glyph-name="uni0418" unicode="&#x418;" horiz-adv-x="685" 
d="M540 720h74v-720h-74v591l-396 -591h-74v720h74v-590z" />
    <glyph glyph-name="uni0419" unicode="&#x419;" horiz-adv-x="685" 
d="M425 909h61c0 -71 -57 -129 -129 -129c-71 0 -129 58 -129 129h61c0 -37 31 -68 68 -68c38 0 68 31 68 68zM540 720h74v-720h-74v591l-396 -591h-74v720h74v-590z" />
    <glyph glyph-name="uni040D" unicode="&#x40d;" horiz-adv-x="685" 
d="M445 786l22 56l-227 94l-22 -56zM540 720h74v-720h-74v591l-396 -591h-74v720h74v-590z" />
    <glyph glyph-name="uni041A" unicode="&#x41a;" horiz-adv-x="622" 
d="M622 0h-97l-300 335h-81v-335h-74v720h74v-315h81l256 315h93l-282 -349z" />
    <glyph glyph-name="uni040C" unicode="&#x40c;" horiz-adv-x="622" 
d="M231 786l227 94l-23 56l-227 -94zM622 0h-97l-300 335h-81v-335h-74v720h74v-315h81l256 315h93l-282 -349z" />
    <glyph glyph-name="uni041B" unicode="&#x41b;" horiz-adv-x="703" 
d="M633 720v-720h-74v650h-299l-48 -408c-15 -136 -50 -248 -192 -242v68c91 1 110 72 124 187l55 465h434z" />
    <glyph glyph-name="uni041C" unicode="&#x41c;" horiz-adv-x="841" 
d="M771 720v-719h-71v555l-256 -556h-47l-257 556v-556h-70v720h67l284 -605l281 605h69z" />
    <glyph glyph-name="uni041D" unicode="&#x41d;" horiz-adv-x="685" 
d="M541 720h74v-720h-74v325h-398v-325h-73v720h73v-325h398v325z" />
    <glyph glyph-name="uni041E" unicode="&#x41e;" horiz-adv-x="743" 
d="M372 -15c-103 0 -195 37 -253 115c-58 74 -78 168 -79 260s21 186 79 260c58 77 153 116 253 114c100 -1 193 -37 253 -114c59 -75 77 -168 78 -260c0 -93 -19 -185 -78 -260c-59 -77 -151 -115 -253 -115zM372 56c76 0 150 29 193 89c46 59 60 138 60 215
c1 76 -14 156 -60 214c-43 60 -117 90 -193 90c-76 -1 -151 -30 -195 -90c-45 -58 -59 -138 -59 -214c-1 -77 14 -156 59 -215c44 -60 119 -90 195 -89z" />
    <glyph glyph-name="uni041F" unicode="&#x41f;" horiz-adv-x="733" 
d="M663 720v-720h-73v650h-447v-650h-73v720h593z" />
    <glyph glyph-name="uni0420" unicode="&#x420;" horiz-adv-x="604" 
d="M504 660c46 -44 70 -100 70 -163c0 -59 -23 -114 -60 -154c-41 -45 -102 -69 -166 -69h-205v-274h-73v720h278c66 0 118 -24 156 -60zM463 398c23 27 36 63 35 99c-1 40 -15 80 -43 110c-26 27 -65 42 -106 42h-206v-305h206c42 0 86 20 114 54z" />
    <glyph glyph-name="uni0421" unicode="&#x421;" horiz-adv-x="720" 
d="M606 234l72 -19c-13 -48 -35 -93 -73 -133c-59 -68 -143 -97 -236 -97c-102 0 -192 37 -251 115c-56 75 -79 172 -78 260c1 93 20 186 78 260c60 78 150 115 251 115c93 0 178 -32 236 -98c42 -44 65 -95 78 -150l-75 -11c-8 36 -24 70 -45 98c-47 62 -114 89 -191 90
c-76 1 -148 -29 -194 -89s-61 -138 -60 -215c0 -77 10 -150 60 -216c45 -60 116 -87 194 -88c76 -1 146 30 191 89c19 27 34 57 43 89z" />
    <glyph glyph-name="uni0422" unicode="&#x422;" horiz-adv-x="597" 
d="M587 720v-70h-252v-650h-73v650h-252v70h577z" />
    <glyph glyph-name="uni0423" unicode="&#x423;" horiz-adv-x="620" 
d="M533 720h77l-280 -603c-25 -51 -55 -94 -95 -115c-24 -12 -56 -17 -78 -17c-28 0 -52 6 -77 15l25 64c13 -5 35 -11 52 -11c18 0 34 3 48 10c29 16 49 51 73 101l-258 556h76l218 -477z" />
    <glyph glyph-name="uni040E" unicode="&#x40e;" horiz-adv-x="620" 
d="M377 909h61c0 -71 -58 -129 -129 -129c-72 0 -129 58 -129 129h61c0 -37 30 -68 68 -68s68 31 68 68zM533 720h77l-280 -603c-25 -51 -55 -94 -95 -115c-24 -12 -56 -17 -78 -17c-28 0 -52 6 -77 15l25 64c13 -5 35 -11 52 -11c18 0 34 3 48 10c29 16 49 51 73 101
l-258 556h76l218 -477z" />
    <glyph glyph-name="uni0424" unicode="&#x424;" horiz-adv-x="761" 
d="M617 605c72 -53 106 -137 104 -223c2 -86 -32 -170 -104 -223c-60 -44 -128 -62 -200 -68v-91h-73v91c-71 5 -140 24 -200 68c-70 53 -106 137 -104 223c-2 86 33 170 104 223c59 44 126 62 200 69v46h73v-46c71 -6 139 -24 200 -69zM574 222c50 39 69 96 69 160
s-19 121 -69 160c-42 32 -98 50 -157 56v-432c58 5 112 21 157 56zM187 222c44 -34 98 -50 157 -56v432c-58 -6 -114 -23 -156 -56c-51 -39 -70 -96 -70 -160s19 -121 69 -160z" />
    <glyph glyph-name="uni0425" unicode="&#x425;" horiz-adv-x="606" 
d="M347 365l249 -365h-89l-204 303l-204 -303h-89l249 365l-243 355h89l198 -294l198 294h89z" />
    <glyph glyph-name="uni0427" unicode="&#x427;" horiz-adv-x="647" 
d="M503 720h74v-720h-74v303c-41 -29 -97 -52 -178 -52c-77 0 -148 26 -195 83c-56 68 -60 135 -60 231v155h74v-145c0 -83 4 -138 48 -192c34 -44 88 -60 140 -60c86 0 138 23 171 52v345z" />
    <glyph glyph-name="uni0426" unicode="&#x426;" horiz-adv-x="746" 
d="M630 68h76v-151h-73v83h-563v720h73v-652h414v645h73v-645z" />
    <glyph glyph-name="uni0428" unicode="&#x428;" horiz-adv-x="907" 
d="M763 720h74v-720h-767v720h73v-650h274v650h73v-650h273v650z" />
    <glyph glyph-name="uni0429" unicode="&#x429;" horiz-adv-x="953" 
d="M837 68h76v-151h-73v83h-770v720h73v-650h274v650h73v-650h273v650h74v-652z" />
    <glyph glyph-name="uni040F" unicode="&#x40f;" horiz-adv-x="733" 
d="M590 720h73v-720h-260v-120h-73v120h-260v720h73v-650h447v650z" />
    <glyph glyph-name="uni042C" unicode="&#x42c;" horiz-adv-x="604" 
d="M514 377c37 -40 60 -95 60 -154c0 -63 -24 -119 -70 -163c-38 -36 -90 -60 -156 -60h-278v720h73v-274h205c64 0 125 -24 166 -69zM498 223c1 36 -12 72 -35 99c-28 34 -72 54 -114 54h-206v-305h206c41 0 80 15 106 42c28 30 42 70 43 110z" />
    <glyph glyph-name="uni042A" unicode="&#x42a;" horiz-adv-x="615" 
d="M528 377c36 -40 60 -95 59 -154c0 -63 -23 -119 -69 -163c-39 -36 -91 -60 -157 -60h-278v657h-93v63h167v-274h204c64 0 125 -24 167 -69zM511 223c1 36 -12 72 -35 99c-28 34 -72 54 -113 54h-206v-305h206c41 0 79 15 105 42c28 30 43 70 43 110z" />
    <glyph glyph-name="uni042B" unicode="&#x42b;" horiz-adv-x="784" 
d="M514 377c37 -40 60 -95 60 -154c0 -63 -24 -119 -70 -163c-38 -36 -90 -60 -156 -60h-278v720h73v-274h205c64 0 125 -24 166 -69zM641 720h73v-720h-73v720zM498 223c1 36 -12 72 -35 99c-28 34 -72 54 -114 54h-206v-305h206c41 0 80 15 106 42c28 30 42 70 43 110z
" />
    <glyph glyph-name="uni0409" unicode="&#x409;" horiz-adv-x="1083" 
d="M994 377c36 -40 60 -95 59 -154c0 -63 -23 -119 -69 -163c-39 -36 -91 -60 -157 -60h-278v650h-299l-48 -408c-15 -136 -50 -248 -192 -242v68c91 1 110 72 124 187l55 465h434v-274h204c64 0 125 -24 167 -69zM977 223c1 36 -12 72 -35 99c-28 34 -72 54 -113 54h-206
v-305h206c41 0 79 15 105 42c28 30 43 70 43 110z" />
    <glyph glyph-name="uni040A" unicode="&#x40a;" horiz-adv-x="1049" 
d="M959 377c37 -40 60 -95 60 -154c-1 -63 -24 -119 -70 -163c-38 -36 -91 -60 -156 -60h-278v376h-372v-376h-73v720h73v-274h372v274h73v-274h205c64 0 125 -24 166 -69zM899 113c28 30 43 70 44 110c0 36 -13 72 -35 99c-29 34 -72 54 -114 54h-206v-305h206
c41 0 79 15 105 42z" />
    <glyph glyph-name="uni0405" unicode="&#x405;" horiz-adv-x="617" 
d="M578 539l-73 -20c-19 48 -46 89 -89 115c-30 18 -72 30 -112 30c-38 1 -76 -7 -106 -23c-36 -20 -59 -57 -59 -95c0 -26 9 -51 27 -68c22 -23 61 -39 101 -51l129 -38c51 -14 95 -35 130 -69s58 -83 57 -133c0 -59 -32 -120 -81 -155c-50 -35 -117 -47 -185 -47
c-92 0 -162 28 -222 92c-32 36 -52 84 -62 124l74 22c8 -34 20 -65 48 -98c37 -44 99 -70 165 -70c48 0 104 13 138 37c33 24 47 62 47 97c0 30 -11 57 -33 78c-24 24 -56 40 -94 50l-132 39c-47 15 -95 32 -133 67c-35 32 -52 82 -52 125c0 66 45 128 103 157
c45 24 94 30 140 30c51 0 106 -12 149 -38c59 -34 101 -90 125 -158z" />
    <glyph glyph-name="uni0404" unicode="&#x404;" horiz-adv-x="729" 
d="M563 145c19 27 34 57 43 89l72 -19c-13 -48 -35 -93 -73 -133c-59 -68 -143 -97 -236 -97c-102 0 -192 37 -251 115c-56 75 -79 172 -78 260c1 93 20 186 78 260c60 78 150 115 251 115c93 0 178 -32 236 -98c42 -44 65 -95 78 -150l-75 -11c-8 36 -24 70 -45 98
c-47 62 -114 89 -191 90c-76 1 -148 -29 -194 -89c-39 -50 -55 -113 -59 -178h264v-74h-264c3 -63 17 -124 59 -179c45 -60 116 -87 194 -88c76 -1 146 30 191 89z" />
    <glyph glyph-name="uni042D" unicode="&#x42d;" horiz-adv-x="728" 
d="M688 360c2 -88 -21 -185 -78 -260c-59 -78 -148 -115 -250 -115c-94 0 -178 29 -237 97c-38 40 -60 85 -73 133l73 19c9 -32 24 -62 43 -89c44 -59 115 -90 191 -89c78 1 148 28 193 88c42 55 56 116 60 179h-265v74h265c-4 65 -21 128 -60 178c-45 60 -118 90 -193 89
c-78 -1 -145 -28 -191 -90c-22 -28 -38 -62 -46 -98l-75 11c13 55 36 106 78 150c58 66 143 98 237 98c100 0 190 -37 250 -115c59 -74 77 -167 78 -260z" />
    <glyph glyph-name="uni0406" unicode="&#x406;" horiz-adv-x="233" 
d="M80 720h73v-720h-73v720z" />
    <glyph glyph-name="uni0407" unicode="&#x407;" horiz-adv-x="233" 
d="M-19 920h80v-80h-80v80zM172 920h80v-80h-80v80zM80 720h73v-720h-73v720z" />
    <glyph glyph-name="uni0408" unicode="&#x408;" horiz-adv-x="464" 
d="M383 720h-76v-499c0 -52 0 -74 -14 -104c-20 -39 -61 -61 -103 -61c-23 0 -46 7 -64 19c-26 18 -46 45 -53 75l-73 -17c13 -50 45 -95 90 -121c30 -18 65 -26 101 -26c74 0 131 32 166 92c26 47 26 83 26 143v499z" />
    <glyph glyph-name="uni040B" unicode="&#x40b;" horiz-adv-x="647" 
d="M517 386c56 -68 60 -135 60 -231v-155h-74v145c0 83 -4 138 -48 192c-35 44 -89 60 -141 60c-86 0 -137 -23 -170 -52v-345h-74v652h-70v68h300v-68h-156v-235c41 29 96 52 178 52c76 0 147 -26 195 -83z" />
    <glyph glyph-name="uni042E" unicode="&#x42e;" horiz-adv-x="1023" 
d="M905 620c59 -75 77 -168 78 -260c0 -93 -19 -185 -78 -260c-59 -77 -151 -115 -253 -115c-103 0 -195 37 -253 115c-50 64 -72 143 -78 223h-178v-323h-73v720h73v-323h178c5 80 28 159 78 223c58 77 153 116 253 114c100 -1 193 -37 253 -114zM845 145
c46 59 60 138 60 215c1 76 -14 156 -60 214c-43 60 -117 90 -193 90c-76 -1 -151 -30 -195 -90c-45 -58 -59 -138 -59 -214c-1 -77 14 -156 59 -215c44 -60 119 -90 195 -89c76 0 150 29 193 89z" />
    <glyph glyph-name="uni042F" unicode="&#x42f;" horiz-adv-x="611" 
d="M541 720v-720h-73v274h-205c-8 0 -16 0 -25 1l-133 -275h-85l144 295c-26 11 -48 28 -67 48c-37 40 -60 95 -60 154c0 63 24 119 70 163c38 36 90 60 156 60h278zM262 344h206v305h-206c-41 0 -80 -15 -106 -42c-28 -30 -42 -70 -43 -110c-1 -36 12 -72 35 -99
c28 -34 72 -54 114 -54z" />
    <glyph glyph-name="uni0402" unicode="&#x402;" horiz-adv-x="646" 
d="M345 555c168 0 261 -93 261 -263c0 -182 -80 -292 -253 -292v74c120 0 179 81 179 215c0 136 -69 194 -190 194c-95 0 -162 -38 -183 -116c-12 -44 -12 -86 -12 -129v-238h-74v652h-73v68h300v-68h-161v-184c44 58 120 87 206 87z" />
    <glyph glyph-name="uni04AE" unicode="&#x4ae;" horiz-adv-x="556" 
d="M471 720h85l-241 -418v-302h-74v302l-241 418h85l193 -334z" />
    <glyph glyph-name="uni04BA" unicode="&#x4ba;" horiz-adv-x="647" 
d="M144 0h-74v720h74v-303c41 29 97 52 178 52c77 0 148 -26 195 -83c56 -68 60 -135 60 -231v-155h-74v145c0 83 -4 138 -48 192c-34 44 -88 60 -140 60c-86 0 -138 -23 -171 -52v-345z" />
    <glyph glyph-name="uni04E8" unicode="&#x4e8;" horiz-adv-x="743" 
d="M625 620c59 -75 77 -168 78 -260c0 -93 -19 -185 -78 -260c-59 -77 -151 -115 -253 -115c-103 0 -195 37 -253 115c-58 74 -78 168 -79 260s21 186 79 260c58 77 153 116 253 114c100 -1 193 -37 253 -114zM177 574c-38 -49 -54 -113 -58 -177h505c-4 64 -20 128 -59 177
c-43 60 -117 90 -193 90c-76 -1 -151 -30 -195 -90zM565 145c39 50 55 113 59 178h-505c4 -65 20 -128 58 -178c44 -60 119 -90 195 -89c76 0 150 29 193 89z" />
    <glyph glyph-name="uni0414.loclBGR" horiz-adv-x="730" 
d="M636 70h57v-153h-71v83h-518v-83h-71v153h58l224 650h97zM167 70h393l-197 567z" />
    <glyph glyph-name="uni0416.loclBGR" horiz-adv-x="944" 
d="M10 0l244 375l-118 225c-11 21 -28 37 -44 43c-17 6 -31 9 -55 7l-6 70c29 7 65 8 101 -10c31 -15 50 -44 66 -75l119 -229h118v314h74v-314h118l118 229c16 31 36 60 66 75c36 18 73 17 101 10l-5 -70c-24 2 -39 -1 -55 -7c-17 -6 -33 -22 -45 -43l-117 -225l244 -375
h-89l-220 343h-116v-343h-74v343h-116l-220 -343h-89z" />
    <glyph glyph-name="uni041A.loclBGR" horiz-adv-x="622" 
d="M622 0h-97l-300 335h-81v-335h-74v720h74v-315h81l256 315h93l-282 -349z" />
    <glyph glyph-name="uni041B.loclBGR" horiz-adv-x="604" 
d="M253 720h98l248 -720h-77l-221 637l-219 -637h-77z" />
    <glyph glyph-name="uni0430" unicode="&#x430;" horiz-adv-x="556" 
d="M496 0h-66v87c-48 -74 -120 -102 -213 -102c-103 0 -177 63 -177 163c0 68 28 115 95 149c66 34 171 42 286 60c-1 87 -60 127 -140 127c-57 0 -110 -12 -158 -71l-48 50c56 67 129 92 215 92c54 0 106 -20 141 -51c50 -42 65 -108 65 -171v-333zM401 143
c21 41 22 82 22 152c-90 -14 -153 -24 -187 -32c-68 -14 -122 -50 -122 -108c0 -63 48 -104 115 -104c78 0 140 31 172 92z" />
    <glyph glyph-name="uni0431" unicode="&#x431;" horiz-adv-x="583" 
d="M297 514c68 1 139 -24 184 -79c45 -52 61 -121 62 -187c0 -67 -19 -136 -65 -188c-48 -53 -119 -76 -188 -75c-68 -1 -140 25 -187 79c-44 52 -61 119 -62 188c-2 102 0 155 9 213c12 81 44 150 109 198c66 48 149 57 228 57c41 0 79 -4 115 -10v-68c-39 5 -79 9 -115 10
c-67 0 -138 -8 -187 -44c-52 -36 -71 -100 -80 -174c46 53 105 81 177 80zM292 446c-51 0 -100 -18 -131 -55c-31 -36 -42 -86 -42 -137c0 -54 11 -107 42 -141c31 -38 80 -55 131 -55s100 17 130 54c32 37 43 88 43 140c0 51 -11 103 -43 139c-30 37 -79 55 -130 55z" />
    <glyph glyph-name="uni0432" unicode="&#x432;" horiz-adv-x="559" 
d="M70 539l261 1c46 0 85 -14 114 -44c30 -27 46 -65 46 -107c0 -33 -11 -65 -31 -89c-6 -8 -12 -14 -19 -20c15 -9 29 -20 40 -34c24 -25 38 -60 38 -95c0 -43 -20 -86 -53 -114c-30 -26 -69 -37 -105 -37h-291v539zM144 477v-176h187c28 0 49 11 65 30c13 17 20 38 20 58
c-1 21 -7 40 -20 57c-17 20 -36 31 -65 31h-187zM144 238v-175h207c28 0 49 7 68 26c16 16 23 39 24 62c1 22 -8 45 -24 61c-24 24 -46 26 -78 26h-197z" />
    <glyph glyph-name="uni0433" unicode="&#x433;" horiz-adv-x="465" 
d="M440 540v-70h-297v-470h-73v540h370z" />
    <glyph glyph-name="uni0453" unicode="&#x453;" horiz-adv-x="465" 
d="M116 606l227 94l-22 56l-228 -94zM440 540v-70h-297v-470h-73v540h370z" />
    <glyph glyph-name="uni0491" unicode="&#x491;" horiz-adv-x="465" 
d="M367 623h73v-153h-297v-470h-73v540h297v83z" />
    <glyph glyph-name="uni0434" unicode="&#x434;" horiz-adv-x="632" 
d="M533 540v-469h49v-154h-71v83h-410v-83h-71v154c34 0 93 20 111 177l34 292h358zM463 71v401h-226l-27 -232c-9 -76 -27 -135 -58 -169h311z" />
    <glyph glyph-name="uni0435" unicode="&#x435;" horiz-adv-x="585" 
d="M119 249c2 -48 13 -95 40 -131c31 -41 83 -63 137 -63c38 0 73 9 103 28c28 19 50 44 66 76l69 -26c-22 -49 -57 -87 -98 -112c-41 -24 -90 -36 -138 -36c-77 0 -152 30 -197 88c-45 57 -61 127 -61 195c0 71 16 143 61 200c47 58 117 87 195 87c77 0 143 -27 190 -86
s60 -137 58 -220h-425zM296 488c-53 0 -104 -20 -136 -62c-25 -32 -36 -72 -40 -114h347c-3 45 -12 83 -37 115c-30 40 -82 61 -134 61z" />
    <glyph glyph-name="uni0450" unicode="&#x450;" horiz-adv-x="585" 
d="M445 662l-23 -56l-227 94l23 56zM119 249c2 -48 13 -95 40 -131c31 -41 83 -63 137 -63c38 0 73 9 103 28c28 19 50 44 66 76l69 -26c-22 -49 -57 -87 -98 -112c-41 -24 -90 -36 -138 -36c-77 0 -152 30 -197 88c-45 57 -61 127 -61 195c0 71 16 143 61 200
c47 58 117 87 195 87c77 0 143 -27 190 -86s60 -137 58 -220h-425zM296 488c-53 0 -104 -20 -136 -62c-25 -32 -36 -72 -40 -114h347c-3 45 -12 83 -37 115c-30 40 -82 61 -134 61z" />
    <glyph glyph-name="uni0451" unicode="&#x451;" horiz-adv-x="585" 
d="M240 725v-80h-80v80h80zM431 725v-80h-80v80h80zM119 249c2 -48 13 -95 40 -131c31 -41 83 -63 137 -63c38 0 73 9 103 28c28 19 50 44 66 76l69 -26c-22 -49 -57 -87 -98 -112c-41 -24 -90 -36 -138 -36c-77 0 -152 30 -197 88c-45 57 -61 127 -61 195
c0 71 16 143 61 200c47 58 117 87 195 87c77 0 143 -27 190 -86s60 -137 58 -220h-425zM296 488c-53 0 -104 -20 -136 -62c-25 -32 -36 -72 -40 -114h347c-3 45 -12 83 -37 115c-30 40 -82 61 -134 61z" />
    <glyph glyph-name="uni0436" unicode="&#x436;" horiz-adv-x="706" 
d="M10 0l175 269l-79 152c-13 23 -22 34 -34 41s-27 9 -47 8v70c27 9 60 6 88 -12c25 -17 37 -39 53 -70l81 -157h72v239h68v-239h72l82 157c16 31 28 52 52 69c26 18 61 20 89 13v-70c-18 1 -33 -1 -47 -8c-14 -6 -23 -19 -35 -41l-79 -152l175 -269l-83 1l-152 237h-74
v-238h-68v238h-74l-152 -237z" />
    <glyph glyph-name="uni0437" unicode="&#x437;" horiz-adv-x="506" 
d="M52 464c21 23 47 44 83 62c34 17 75 29 124 29c46 0 87 -7 126 -31c46 -30 67 -74 67 -124c0 -51 -21 -90 -58 -118c49 -23 72 -79 72 -127c0 -60 -28 -109 -79 -139c-42 -26 -80 -31 -128 -31c-57 0 -106 15 -147 41s-71 70 -85 94l59 37c12 -19 34 -51 62 -69
s68 -33 115 -33c35 0 59 6 83 22c31 19 45 49 45 82c0 36 -17 64 -49 77c-20 8 -61 12 -95 12h-58v62h58c32 0 60 3 83 14c27 10 47 35 47 68c0 30 -10 57 -40 75c-21 12 -43 18 -76 18c-41 0 -72 -10 -103 -26c-22 -11 -42 -25 -59 -45z" />
    <glyph glyph-name="uni0438" unicode="&#x438;" horiz-adv-x="569" 
d="M499 540v-540h-71v419l-296 -419h-62v540h71v-415l297 415h61z" />
    <glyph glyph-name="uni0439" unicode="&#x439;" horiz-adv-x="569" 
d="M362 729h61c0 -71 -58 -129 -129 -129s-129 58 -129 129h61c0 -37 31 -68 68 -68c38 0 68 31 68 68zM499 540v-540h-71v419l-296 -419h-62v540h71v-415l297 415h61z" />
    <glyph glyph-name="uni045D" unicode="&#x45d;" horiz-adv-x="569" 
d="M407 606l23 56l-228 94l-22 -56zM499 540v-540h-71v419l-296 -419h-62v540h71v-415l297 415h61z" />
    <glyph glyph-name="uni043A" unicode="&#x43a;" horiz-adv-x="498" 
d="M144 234v-234h-74v540h74v-235h59l177 235h87l-202 -269l233 -271h-90l-204 234h-60z" />
    <glyph glyph-name="uni045C" unicode="&#x45c;" horiz-adv-x="498" 
d="M138 606l227 94l-22 56l-228 -94zM144 234v-234h-74v540h74v-235h59l177 235h87l-202 -269l233 -271h-90l-204 234h-60z" />
    <glyph glyph-name="uni043B" unicode="&#x43b;" horiz-adv-x="573" 
d="M151 540h352v-540h-71v470h-220l-32 -275c-13 -113 -42 -202 -160 -195v68c72 0 81 51 92 140z" />
    <glyph glyph-name="uni043C" unicode="&#x43c;" horiz-adv-x="685" 
d="M558 540h55l2 -540h-72v390l-175 -306h-52l-175 306v-390h-71v540h55l217 -363z" />
    <glyph glyph-name="uni043D" unicode="&#x43d;" horiz-adv-x="591" 
d="M448 540h73v-540h-73v235h-305v-235h-73v540h73v-235h305v235z" />
    <glyph glyph-name="uni043E" unicode="&#x43e;" horiz-adv-x="592" 
d="M296 -15c-78 0 -149 29 -195 88c-46 57 -61 127 -61 198c0 70 16 141 61 197c44 56 117 87 195 87c76 0 149 -29 195 -87s61 -128 61 -197c0 -72 -16 -140 -61 -198c-47 -60 -117 -88 -195 -88zM474 271c0 54 -10 111 -42 152c-31 41 -82 62 -136 62s-106 -21 -136 -62
c-32 -41 -42 -98 -42 -152c0 -56 10 -112 42 -153c30 -41 82 -63 136 -63s105 22 136 63c32 41 42 97 42 153z" />
    <glyph glyph-name="uni043F" unicode="&#x43f;" horiz-adv-x="569" 
d="M499 540v-540h-73v470h-283v-470h-73v540h429z" />
    <glyph glyph-name="uni0440" unicode="&#x440;" horiz-adv-x="609" 
d="M510 468c43 -55 59 -128 59 -197c0 -70 -14 -141 -59 -199c-45 -57 -113 -87 -187 -87c-73 0 -137 27 -179 80v-305h-74v780h66v-73c43 56 115 88 190 88c73 0 141 -31 184 -87zM451 118c30 40 40 96 40 153c0 56 -11 112 -41 152c-31 43 -81 64 -136 64
c-53 0 -103 -20 -134 -60c-32 -41 -44 -99 -44 -156c0 -58 12 -117 44 -157c31 -40 82 -61 135 -61s105 22 136 65z" />
    <glyph glyph-name="uni0441" unicode="&#x441;" horiz-adv-x="554" 
d="M520 406l-72 -24c-11 30 -34 59 -61 76c-27 19 -59 27 -93 27c-54 0 -103 -21 -134 -63c-32 -41 -41 -97 -42 -152c1 -55 10 -111 42 -152c31 -41 80 -63 134 -63c34 0 67 8 95 27c27 17 45 42 58 72l73 -21c-18 -44 -47 -84 -85 -109c-41 -27 -85 -39 -141 -39
c-81 0 -147 28 -193 88c-46 58 -60 128 -61 197c1 71 16 141 61 198c47 59 112 87 194 87c51 0 93 -10 134 -35c41 -26 76 -66 91 -114z" />
    <glyph glyph-name="uni0442" unicode="&#x442;" horiz-adv-x="507" 
d="M482 540v-68h-192v-472h-73v472h-192v68h457z" />
    <glyph glyph-name="uni0443" unicode="&#x443;" horiz-adv-x="549" 
d="M464 539h75l-248 -645c-20 -54 -41 -92 -72 -113c-28 -20 -54 -21 -109 -20v71c36 -1 55 0 74 14c23 17 34 44 70 139l-234 555h76l193 -461z" />
    <glyph glyph-name="uni045E" unicode="&#x45e;" horiz-adv-x="549" 
d="M352 729h61c0 -71 -57 -129 -129 -129c-71 0 -129 58 -129 129h61c0 -37 31 -68 68 -68c38 0 68 31 68 68zM464 539h75l-248 -645c-20 -54 -41 -92 -72 -113c-28 -20 -54 -21 -109 -20v71c36 -1 55 0 74 14c23 17 34 44 70 139l-234 555h76l193 -461z" />
    <glyph glyph-name="uni0444" unicode="&#x444;" horiz-adv-x="720" 
d="M581 490c67 -55 97 -131 99 -221c-2 -86 -30 -164 -99 -221c-49 -39 -118 -60 -187 -64v-209h-68v209c-68 4 -137 24 -187 64c-64 53 -98 129 -99 221c1 87 32 166 99 221c48 40 118 60 187 64v162h68v-162c67 -4 137 -23 187 -64zM530 102c51 41 73 99 74 167
c-1 65 -22 127 -74 168c-34 29 -85 43 -136 46v-429c50 5 101 19 136 48zM190 102c34 -29 84 -43 136 -48v429c-49 -3 -100 -17 -136 -46c-50 -40 -73 -99 -74 -168c1 -65 21 -125 74 -167z" />
    <glyph glyph-name="uni0445" unicode="&#x445;" horiz-adv-x="530" 
d="M515 540l-206 -267l211 -273h-90l-164 217l-166 -217h-90l211 273l-206 267h89l162 -211l160 211h89z" />
    <glyph glyph-name="uni0447" unicode="&#x447;" 
d="M450 540h74v-540h-74v173c-38 -26 -80 -44 -143 -46c-54 0 -108 10 -150 42c-77 59 -87 144 -87 245v126h74v-126c0 -81 8 -149 63 -187c29 -21 68 -30 105 -29c57 2 102 18 138 50v292z" />
    <glyph glyph-name="uni0446" unicode="&#x446;" horiz-adv-x="648" 
d="M499 68h109v-151h-74v83h-464v540h73v-470h283v470h73v-472z" />
    <glyph glyph-name="uni0448" unicode="&#x448;" horiz-adv-x="752" 
d="M70 0v540h71v-472h202v472h67v-472h201v472h71v-540h-612z" />
    <glyph glyph-name="uni0449" unicode="&#x449;" horiz-adv-x="795" 
d="M682 68h73v-151h-73v83h-612v540h71v-472h202v472h67v-472h201v472h71v-472z" />
    <glyph glyph-name="uni045F" unicode="&#x45f;" horiz-adv-x="569" 
d="M426 540h73v-540h-167v-120h-73v120h-189v540h73v-470h283v470z" />
    <glyph glyph-name="uni044C" unicode="&#x44c;" horiz-adv-x="526" 
d="M70 540h75v-203h176c42 0 86 -18 117 -49c30 -32 48 -76 48 -120c0 -43 -18 -88 -48 -118c-31 -31 -75 -50 -117 -50h-250zM145 266v-196h173c25 1 48 13 65 32c17 18 27 42 27 66c0 25 -10 49 -27 67c-16 18 -40 31 -65 31h-173z" />
    <glyph glyph-name="uni044A" unicode="&#x44a;" horiz-adv-x="526" 
d="M438 288c30 -32 48 -76 48 -120c0 -43 -18 -88 -48 -118c-31 -31 -75 -50 -117 -50h-250l-1 477h-73v63h148v-203h176c42 0 86 -18 117 -49zM383 102c17 18 27 42 27 66c0 25 -10 49 -27 67c-16 18 -40 31 -65 31h-173v-196h173c25 1 48 13 65 32z" />
    <glyph glyph-name="uni044B" unicode="&#x44b;" horiz-adv-x="670" 
d="M70 540h75v-203h153c42 0 86 -18 116 -49c31 -32 48 -76 48 -120c0 -43 -17 -88 -48 -118c-30 -31 -74 -50 -116 -50h-227zM527 540h73v-540h-73v540zM145 266v-196h150c25 1 48 13 65 32c17 18 26 42 26 66c0 25 -9 49 -26 67s-40 31 -65 31h-150z" />
    <glyph glyph-name="uni0459" unicode="&#x459;" horiz-adv-x="884" 
d="M796 288c31 -32 48 -76 48 -120c0 -43 -17 -88 -48 -118c-31 -31 -74 -50 -117 -50h-250l-1 470h-216l-32 -275c-13 -113 -42 -202 -160 -195v68c72 0 81 51 92 140l39 332h352v-203h176c43 0 86 -18 117 -49zM741 102c18 18 27 42 27 66c0 25 -9 49 -26 67
s-40 31 -66 31h-173v-196h173c25 1 49 13 65 32z" />
    <glyph glyph-name="uni045A" unicode="&#x45a;" horiz-adv-x="888" 
d="M800 288c30 -32 48 -76 48 -120c0 -43 -18 -88 -48 -118c-31 -31 -75 -50 -117 -50h-250v266h-290v-266h-73v540h73v-203h289v203h75v-203h176c42 0 86 -18 117 -49zM745 102c17 18 27 42 27 66c0 25 -10 49 -27 67c-16 18 -40 31 -65 31h-173v-196h173c25 1 48 13 65 32
z" />
    <glyph glyph-name="uni0455" unicode="&#x455;" horiz-adv-x="524" 
d="M483 399l-71 -18c-28 73 -86 106 -158 107c-66 2 -129 -27 -129 -78c0 -45 33 -63 88 -78c28 -8 62 -17 111 -30c90 -24 160 -76 160 -159c0 -46 -27 -96 -69 -121c-42 -28 -95 -36 -148 -36c-63 0 -119 14 -168 59c-29 28 -48 63 -59 94l67 22c10 -26 23 -48 44 -68
c30 -27 72 -40 116 -40c37 0 84 8 110 26c23 15 36 38 36 65c0 53 -51 73 -111 90c-51 15 -78 22 -111 32c-34 11 -71 24 -99 51c-27 24 -38 61 -38 92c0 55 39 103 88 125c39 18 78 22 115 21c38 0 78 -8 114 -26c51 -26 97 -79 112 -130z" />
    <glyph glyph-name="uni0454" unicode="&#x454;" horiz-adv-x="554" 
d="M389 82c27 17 45 42 58 72l73 -21c-18 -44 -47 -84 -85 -109c-41 -27 -85 -39 -141 -39c-81 0 -147 28 -193 88c-46 58 -60 128 -61 197c1 71 16 141 61 198c47 59 112 87 194 87c51 0 93 -10 134 -35c41 -26 76 -66 91 -114l-72 -24c-11 30 -34 59 -61 76
c-27 19 -59 27 -93 27c-54 0 -103 -21 -134 -63c-26 -33 -37 -76 -40 -120h242v-63h-242c3 -45 14 -88 40 -121c31 -41 80 -63 134 -63c34 0 67 8 95 27z" />
    <glyph glyph-name="uni044D" unicode="&#x44d;" horiz-adv-x="554" 
d="M453 468c45 -57 60 -127 61 -198c-1 -69 -15 -139 -61 -197c-46 -60 -112 -88 -193 -88c-56 0 -100 12 -141 39c-38 25 -67 65 -85 109l73 21c13 -30 31 -55 58 -72c28 -19 61 -27 95 -27c54 0 103 22 134 63c26 33 37 76 40 121h-242v63h242c-3 44 -14 87 -40 120
c-31 42 -80 63 -134 63c-34 0 -66 -8 -93 -27c-27 -17 -50 -46 -61 -76l-72 24c15 48 50 88 91 114c41 25 83 35 134 35c82 0 147 -28 194 -87z" />
    <glyph glyph-name="uni0456" unicode="&#x456;" horiz-adv-x="233" 
d="M80 718h73v-82h-73v82zM80 540h73v-540h-73v540z" />
    <glyph glyph-name="uni0457" unicode="&#x457;" horiz-adv-x="233" 
d="M-19 725h80v-80h-80v80zM172 725h80v-80h-80v80zM80 540h73v-540h-73v540z" />
    <glyph glyph-name="uni0458" unicode="&#x458;" horiz-adv-x="250" 
d="M100 713h74v-82h-74v82zM0 -184v-71c52 -2 99 13 129 47c45 48 45 101 45 187v561h-74v-555c0 -76 1 -115 -30 -146c-18 -18 -48 -23 -70 -23z" />
    <glyph glyph-name="uni045B" unicode="&#x45b;" 
d="M450 510c75 -56 85 -152 84 -248v-262h-74v260c0 84 -9 154 -63 194c-29 21 -65 31 -105 29c-35 -1 -68 -13 -92 -35c-26 -23 -43 -56 -50 -93c-5 -23 -6 -49 -6 -77v-278h-74v593h-64v63h64v64h66v-64h121v-63h-121v-129c7 11 16 22 26 32c36 37 87 54 135 56
c53 4 108 -6 153 -42z" />
    <glyph glyph-name="uni044E" unicode="&#x44e;" horiz-adv-x="791" 
d="M690 468c46 -58 61 -128 61 -197c0 -72 -15 -140 -61 -198c-47 -60 -116 -88 -195 -88c-142 0 -234 97 -247 248h-105v-233h-73v540h73v-233h104c13 153 108 248 248 248c77 0 149 -29 195 -87zM632 118c31 41 41 97 41 153c0 54 -10 111 -41 152s-83 62 -137 62
c-121 0 -177 -88 -177 -214c0 -131 60 -216 177 -216c54 0 106 22 137 63z" />
    <glyph glyph-name="uni044F" unicode="&#x44f;" horiz-adv-x="556" 
d="M486 0h-75v203h-188l-98 -203h-85l105 215c-21 8 -41 21 -57 37c-31 32 -48 76 -48 120c0 43 17 88 48 118c31 31 74 50 117 50h280zM208 274h203v196h-203c-25 -1 -49 -13 -65 -32c-18 -18 -27 -42 -27 -66c0 -25 9 -49 26 -67s40 -31 66 -31z" />
    <glyph glyph-name="uni0452" unicode="&#x452;" 
d="M450 510c75 -56 85 -152 84 -248v-355c0 -64 -28 -95 -70 -104c-35 -5 -59 -2 -85 5v59c54 -8 81 0 81 74v319c0 84 -9 154 -63 194c-29 21 -65 31 -105 29c-35 -1 -68 -13 -92 -35c-26 -23 -43 -56 -50 -93c-5 -23 -6 -49 -6 -77v-278h-74v593h-64v63h64v64h66v-64h121
v-63h-121v-129c7 11 16 22 26 32c36 37 87 54 135 56c53 4 108 -6 153 -42z" />
    <glyph glyph-name="uni04AF" unicode="&#x4af;" horiz-adv-x="508" 
d="M488 540l-196 -540h-5v-180h-73v186l-194 534h75l159 -444l159 444h75z" />
    <glyph glyph-name="uni04BB" unicode="&#x4bb;" 
d="M437 371c77 -59 87 -144 87 -245v-126h-74v126c0 81 -8 149 -63 187c-29 21 -68 30 -105 29c-57 -2 -102 -18 -138 -50v-292h-74v540h74v-173c38 26 80 44 143 46c54 0 108 -10 150 -42z" />
    <glyph glyph-name="uni04E9" unicode="&#x4e9;" horiz-adv-x="592" 
d="M491 468c46 -58 61 -128 61 -197c0 -72 -16 -140 -61 -198c-47 -60 -117 -88 -195 -88s-149 29 -195 88c-46 57 -61 127 -61 198c0 70 16 141 61 197c44 56 117 87 195 87c76 0 149 -29 195 -87zM296 485c-54 0 -106 -21 -136 -62c-26 -33 -37 -77 -41 -121h354
c-4 44 -15 88 -41 121c-31 41 -82 62 -136 62zM296 55c54 0 105 22 136 63c26 33 37 76 41 121h-354c4 -45 15 -88 41 -121c30 -41 82 -63 136 -63z" />
    <glyph glyph-name="uni0432.loclBGR" horiz-adv-x="572" 
d="M273 735c44 0 90 -12 125 -38c50 -36 78 -96 78 -155c0 -38 -14 -74 -38 -102c-13 -18 -30 -34 -50 -46c33 -13 65 -30 91 -54c38 -36 60 -83 60 -135c0 -57 -19 -110 -59 -152c-42 -46 -105 -68 -171 -68c-63 0 -129 16 -174 55c-47 39 -65 101 -65 161v338
c0 66 27 121 77 157c39 30 84 39 126 39zM274 665c-30 0 -59 -9 -83 -27c-27 -21 -45 -59 -45 -93v-344c0 -50 14 -85 47 -111c32 -24 74 -34 119 -34c48 0 89 18 117 52c22 27 35 61 35 95c0 43 -23 78 -55 101c-41 31 -87 42 -136 46v67c39 6 75 25 97 51
c20 22 30 49 30 74c0 37 -18 73 -46 95c-23 18 -52 28 -80 28z" />
    <glyph glyph-name="uni0433.loclBGR" horiz-adv-x="525" 
d="M42 399c15 51 60 104 111 130c36 18 76 26 114 26c38 1 77 -3 115 -21c50 -22 88 -70 88 -125c0 -31 -10 -68 -37 -92c-29 -27 -66 -40 -99 -51c-34 -10 -61 -17 -112 -32c-59 -17 -111 -37 -111 -90c0 -27 13 -50 36 -65c26 -18 73 -26 110 -26c44 0 86 13 116 40
c21 20 34 42 44 68l67 -22c-10 -31 -30 -66 -59 -94c-49 -45 -105 -59 -168 -59c-53 0 -105 8 -148 36c-42 25 -68 75 -68 121c0 83 70 135 160 159c48 13 82 22 110 30c55 15 89 33 89 78c0 51 -64 80 -130 78c-71 -1 -130 -34 -157 -107z" />
    <glyph glyph-name="uni0434.loclBGR" horiz-adv-x="609" 
d="M473 540h66v-532c0 -109 -20 -164 -81 -211c-52 -40 -113 -52 -170 -52c-63 0 -125 23 -166 68c-18 13 -36 31 -47 51l68 33c5 -10 12 -19 19 -27c30 -36 79 -53 126 -53s95 12 128 40c41 35 49 72 49 151v57c-42 -53 -106 -80 -179 -80c-74 0 -142 30 -187 87
c-45 58 -59 129 -59 199c0 69 16 142 59 197c43 56 111 87 184 87c75 0 147 -32 190 -88v73zM429 114c32 40 44 99 44 157c0 57 -12 115 -44 156c-31 40 -81 60 -134 60c-55 0 -105 -21 -136 -64c-30 -40 -41 -96 -41 -152c0 -57 10 -113 40 -153c31 -43 83 -65 136 -65
s104 21 135 61z" />
    <glyph glyph-name="uni0436.loclBGR" horiz-adv-x="706" 
d="M521 269l175 -269l-83 1l-152 237h-74v-238h-68v238h-74l-152 -237l-83 -1l175 269l-79 152c-13 23 -22 34 -34 41s-27 9 -47 8v70c27 9 60 6 88 -12c25 -17 37 -39 53 -70l81 -157h72v239h1v180h68v-419h71l82 157c16 31 28 52 52 69c26 18 61 20 89 13v-70
c-18 1 -33 -1 -47 -8c-14 -6 -23 -19 -35 -41z" />
    <glyph glyph-name="uni0437.loclBGR" horiz-adv-x="632" 
d="M76 459c23 23 51 44 92 64c50 25 106 32 161 32c57 0 119 -11 168 -45c53 -37 78 -91 78 -151c0 -47 -20 -94 -55 -123c-11 -13 -24 -24 -38 -34c19 -12 36 -25 52 -41c40 -36 58 -87 58 -143c0 -66 -30 -126 -83 -163s-120 -50 -179 -50s-127 9 -177 39
c-47 28 -86 63 -113 118l59 38c19 -38 54 -73 90 -93c48 -26 92 -32 140 -32c50 0 99 11 137 40c33 26 49 64 48 103c1 44 -14 84 -48 108c-35 27 -82 38 -129 38h-111v71h111c42 0 83 9 114 31c31 21 47 56 46 92c0 39 -16 72 -48 94c-33 24 -78 33 -121 33
c-45 0 -89 -8 -129 -27c-32 -15 -55 -34 -74 -53z" />
    <glyph glyph-name="uni0438.loclBGR" 
d="M450 540h74v-540h-66v76c-7 -11 -16 -22 -26 -32c-36 -37 -87 -54 -135 -56c-53 -4 -108 6 -153 42c-75 56 -85 152 -84 248v262h74v-260c0 -84 9 -154 63 -194c29 -21 65 -31 105 -29c35 1 68 13 92 35c26 23 43 56 50 93c5 23 6 49 6 77v278z" />
    <glyph glyph-name="uni0439.loclBGR" 
d="M292 600c-72 0 -129 58 -129 129h61c0 -37 30 -68 68 -68s68 31 68 68h61c0 -71 -58 -129 -129 -129zM450 540h74v-540h-66v76c-7 -11 -16 -22 -26 -32c-36 -37 -87 -54 -135 -56c-53 -4 -108 6 -153 42c-75 56 -85 152 -84 248v262h74v-260c0 -84 9 -154 63 -194
c29 -21 65 -31 105 -29c35 1 68 13 92 35c26 23 43 56 50 93c5 23 6 49 6 77v278z" />
    <glyph glyph-name="uni045D.loclBGR" horiz-adv-x="575" 
d="M430 662l-23 -56l-227 94l23 56zM450 540h74v-540h-66v76c-7 -11 -16 -22 -26 -32c-36 -37 -87 -54 -135 -56c-53 -4 -108 6 -153 42c-75 56 -85 152 -84 248v262h74v-260c0 -84 9 -154 63 -194c29 -21 65 -31 105 -29c35 1 68 13 92 35c26 23 43 56 50 93
c5 23 6 49 6 77v278z" />
    <glyph glyph-name="uni043A.loclBGR" horiz-adv-x="498" 
d="M144 256v-256h-74v720h74v-393h60l179 213h88l-205 -249l232 -291h-88l-206 256h-60z" />
    <glyph glyph-name="uni043B.loclBGR" horiz-adv-x="508" 
d="M413 0l-159 444l-159 -444h-75l196 540h76l196 -540h-75z" />
    <glyph glyph-name="uni043D.loclBGR" horiz-adv-x="591" 
d="M448 540h73v-540h-73v235h-305v-235h-73v540h73v-235h305v235z" />
    <glyph glyph-name="uni043F.loclBGR" 
d="M450 510c75 -56 85 -152 84 -248v-262h-74v260c0 84 -9 154 -63 194c-29 21 -65 31 -105 29c-35 -1 -68 -13 -92 -35c-26 -23 -43 -56 -50 -93c-5 -23 -6 -49 -6 -77v-278h-74v540h66v-76c7 11 16 22 26 32c36 37 87 54 135 56c53 4 108 -6 153 -42z" />
    <glyph glyph-name="uni0442.loclBGR" horiz-adv-x="847" 
d="M726 514c59 -49 61 -103 61 -182l-1 -332h-72v329c0 60 -3 96 -44 130c-21 19 -49 30 -78 30c-39 0 -75 -17 -98 -46c-25 -30 -29 -60 -29 -95v-16v-332h-73l1 329c0 60 -3 96 -44 130c-21 19 -50 30 -79 30c-38 0 -74 -17 -98 -46c-24 -30 -28 -60 -28 -95v-348h-74v540
h66v-59c34 47 92 73 150 73c40 0 85 -12 118 -40c20 -16 33 -33 42 -51l9 14c34 49 92 77 153 77c40 0 85 -12 118 -40z" />
    <glyph glyph-name="uni0447.loclBGR" 
d="M450 540h74v-540h-74v173c-38 -26 -80 -44 -143 -46c-54 0 -108 10 -150 42c-77 59 -87 144 -87 245v126h74v-126c0 -81 8 -149 63 -187c29 -21 68 -30 105 -29c57 2 102 18 138 50v292z" />
    <glyph glyph-name="uni0446.loclBGR" horiz-adv-x="641" 
d="M524 68h77v-151h-73v83h-70v76c-7 -11 -16 -22 -26 -32c-36 -37 -87 -54 -135 -56c-53 -4 -108 6 -153 42c-75 56 -85 152 -84 248v262h74v-260c0 -84 9 -154 63 -194c29 -21 65 -31 105 -29c35 1 68 13 92 35c26 23 43 56 50 93c5 23 6 49 6 77v278h74v-472z" />
    <glyph glyph-name="uni0448.loclBGR" horiz-adv-x="847" 
d="M703 540h74v-540h-66v59c-34 -47 -92 -73 -150 -73c-40 0 -85 12 -118 40c-20 16 -33 33 -42 51l-9 -14c-34 -49 -92 -77 -153 -77c-40 0 -85 12 -118 40c-59 49 -61 103 -61 182l1 332h72v-329c0 -60 3 -96 44 -130c21 -19 49 -30 78 -30c39 0 75 17 98 46
c25 30 29 60 29 95v16v332h73l-1 -329c0 -60 3 -96 44 -130c21 -19 50 -30 79 -30c38 0 74 17 98 46c24 30 28 60 28 95v348z" />
    <glyph glyph-name="uni0449.loclBGR" horiz-adv-x="894" 
d="M777 68h77v-151h-73v83h-70v59c-34 -47 -92 -73 -150 -73c-40 0 -85 12 -118 40c-20 16 -33 33 -42 51l-9 -14c-34 -49 -92 -77 -153 -77c-40 0 -85 12 -118 40c-59 49 -61 103 -61 182l1 332h72v-329c0 -60 3 -96 44 -130c21 -19 49 -30 78 -30c39 0 75 17 98 46
c25 30 29 60 29 95v16v332h73l-1 -329c0 -60 3 -96 44 -130c21 -19 50 -30 79 -30c38 0 74 17 98 46c24 30 28 60 28 95v348h74v-472z" />
    <glyph glyph-name="uni044C.loclBGR" horiz-adv-x="526" 
d="M70 540h75v-203h176c42 0 86 -18 117 -49c30 -32 48 -76 48 -120c0 -43 -18 -88 -48 -118c-31 -31 -75 -50 -117 -50h-250zM145 266v-196h173c25 1 48 13 65 32c17 18 27 42 27 66c0 25 -10 49 -27 67c-16 18 -40 31 -65 31h-173z" />
    <glyph glyph-name="uni044E.loclBGR" horiz-adv-x="790" 
d="M690 468c46 -58 61 -128 61 -197c0 -72 -15 -140 -61 -198c-47 -60 -116 -88 -195 -88c-142 0 -234 97 -247 248h-105v-233h-73v720h73v-413h104c13 153 108 248 248 248c77 0 149 -29 195 -87zM632 118c31 41 41 97 41 153c0 54 -10 111 -41 152s-83 62 -137 62
c-121 0 -177 -88 -177 -214c0 -131 60 -216 177 -216c54 0 106 22 137 63z" />
    <glyph glyph-name="uni0431.loclSRB" horiz-adv-x="583" 
d="M297 514c68 1 139 -24 184 -79c45 -52 61 -121 62 -187c0 -67 -19 -136 -65 -188c-48 -53 -119 -76 -188 -75c-68 -1 -140 25 -187 79c-44 52 -61 119 -62 188c-2 102 0 155 9 213c12 81 44 150 109 198c66 48 149 57 228 57c41 0 79 -4 115 -10v-68c-39 5 -79 9 -115 10
c-67 0 -138 -8 -187 -44c-52 -36 -71 -100 -80 -174c46 53 105 81 177 80zM292 446c-51 0 -100 -18 -131 -55c-31 -36 -42 -86 -42 -137c0 -54 11 -107 42 -141c31 -38 80 -55 131 -55s100 17 130 54c32 37 43 88 43 140c0 51 -11 103 -43 139c-30 37 -79 55 -130 55z" />
    <glyph glyph-name="alpha" unicode="&#x3b1;" horiz-adv-x="605" 
d="M551 174c1 -63 10 -95 54 -103v-71c-63 4 -97 32 -114 74v-1c-47 -60 -117 -88 -195 -88s-149 29 -195 88c-46 57 -61 127 -61 198c0 70 16 141 61 197c44 56 117 87 195 87c73 0 143 -27 189 -80v65h66v-239c1 -10 1 -20 1 -30s0 -20 -1 -30v-67zM432 118
c32 41 42 97 42 153c0 54 -10 111 -42 152c-31 41 -82 62 -136 62s-106 -21 -136 -62c-32 -41 -42 -98 -42 -152c0 -56 10 -112 42 -153c30 -41 82 -63 136 -63s105 22 136 63z" />
    <glyph glyph-name="beta" unicode="&#x3b2;" horiz-adv-x="572" 
d="M479 340c38 -36 60 -83 60 -135c0 -57 -19 -110 -59 -152c-42 -46 -105 -68 -171 -68c-59 0 -120 14 -165 48v-273h-74v780c0 66 27 120 77 156c39 30 84 39 126 39c44 0 90 -12 125 -38c50 -36 78 -96 78 -155c0 -38 -14 -74 -38 -102c-13 -18 -30 -34 -50 -46
c33 -13 65 -30 91 -54zM429 108c22 27 35 61 35 95c0 43 -23 78 -55 101c-41 31 -87 42 -136 46v67c39 6 75 25 97 51c20 22 30 49 30 74c0 37 -18 73 -46 95c-23 18 -52 28 -80 28c-30 0 -59 -9 -83 -27c-27 -21 -45 -59 -45 -93v-344c0 -50 14 -85 47 -111
c32 -24 74 -34 119 -34c48 0 89 18 117 52z" />
    <glyph glyph-name="uni03BC" unicode="&#x3bc;" horiz-adv-x="588" 
d="M534 174c1 -63 10 -95 54 -103v-71c-56 3 -88 26 -107 60c-9 -11 -19 -21 -31 -30c-45 -36 -100 -46 -153 -42c-48 2 -99 19 -135 56c-10 10 -19 21 -26 32v-256h-66v720h74v-278c0 -28 1 -54 6 -77c7 -37 24 -70 50 -93c24 -22 57 -34 92 -35c40 -2 76 8 105 29
c54 40 63 110 63 194v260h74v-262v-23v-81z" />
    <glyph glyph-name="zero" unicode="0" horiz-adv-x="610" 
d="M305 -15c69 0 132 28 175 76c42 47 60 101 60 166v267c0 67 -19 122 -62 168c-44 48 -107 74 -173 73c-68 1 -130 -27 -173 -73c-43 -48 -62 -102 -62 -168v-267c0 -66 18 -118 59 -165c44 -50 109 -77 176 -77zM305 664c55 1 105 -28 134 -72c19 -30 27 -61 27 -98v-267
c0 -39 -7 -70 -27 -98c-29 -45 -79 -73 -134 -73s-105 28 -134 72c-20 29 -27 63 -27 99v267c0 38 9 71 27 99c29 43 80 72 134 71z" />
    <glyph glyph-name="one" unicode="1" horiz-adv-x="390" 
d="M196 720h74v-720h-74v638l-136 -82v83z" />
    <glyph glyph-name="two" unicode="2" horiz-adv-x="571" 
d="M56 506c0 70 28 131 81 176c42 35 95 53 153 53c60 0 116 -22 158 -61c46 -42 73 -104 73 -169c0 -90 -32 -141 -102 -203l-256 -231h358v-71h-470l1 68l325 294c56 50 69 93 69 144c0 46 -19 90 -52 119c-28 25 -64 39 -105 39c-39 0 -74 -13 -102 -36
c-34 -29 -57 -74 -57 -122h-74z" />
    <glyph glyph-name="three" unicode="3" horiz-adv-x="553" 
d="M429 388c45 -43 65 -106 64 -168c-1 -74 -28 -143 -84 -186c-41 -33 -95 -48 -146 -48c-51 -1 -104 14 -146 47c-37 27 -64 67 -77 110l70 21c10 -31 28 -58 53 -77c29 -21 64 -31 100 -31c36 1 71 12 98 33c41 32 56 80 56 131c0 48 -15 94 -50 126
c-29 25 -67 37 -106 37c-26 0 -56 -8 -80 -20l-37 58l246 228h-321v71h416v-71l-212 -203c61 1 115 -19 156 -58z" />
    <glyph glyph-name="four" unicode="4" horiz-adv-x="590" 
d="M461 210h79v-71h-79v-139h-74v139h-337v71l241 510h83l-241 -510h254v210h74v-210z" />
    <glyph glyph-name="five" unicode="5" horiz-adv-x="578" 
d="M93 720h384v-70h-318l-14 -241c39 35 92 55 146 55c59 0 116 -22 159 -60c50 -45 78 -108 78 -178c-1 -65 -28 -126 -72 -170s-106 -70 -172 -70c-62 -1 -122 23 -165 64c-33 30 -57 70 -69 114l70 19c9 -32 26 -61 51 -82c30 -27 70 -44 113 -44c46 0 89 18 120 49
s50 73 50 120c0 49 -21 95 -56 126c-31 27 -70 43 -114 44c-67 0 -117 -34 -146 -79l-67 29z" />
    <glyph glyph-name="six" unicode="6" horiz-adv-x="621" 
d="M519 632l-56 -46c-31 47 -84 78 -144 78c-54 0 -103 -25 -133 -65c-27 -32 -42 -73 -42 -119v-102c42 52 106 86 177 86c62 0 121 -25 165 -66c46 -45 72 -105 71 -172c0 -64 -26 -124 -69 -168c-44 -46 -107 -73 -174 -72c-68 -1 -133 28 -177 75
c-48 50 -67 109 -67 180v239c0 72 22 133 70 181c46 49 110 73 179 74c82 0 155 -39 200 -103zM314 56c48 0 93 21 124 55c28 30 45 71 45 115c0 47 -19 90 -51 121c-31 30 -72 48 -118 48c-48 0 -92 -20 -123 -52c-29 -30 -47 -72 -47 -117c0 -44 18 -85 46 -116
c31 -33 75 -53 124 -54z" />
    <glyph glyph-name="seven" unicode="7" horiz-adv-x="502" 
d="M109 0l264 649h-333v71h412v-71l-264 -649h-79z" />
    <glyph glyph-name="eight" unicode="8" horiz-adv-x="580" 
d="M77 541c1 60 22 112 67 148c41 34 95 46 146 46s105 -12 146 -46c46 -35 66 -92 66 -148c0 -44 -14 -88 -46 -121c-11 -13 -24 -25 -38 -34c21 -14 40 -30 54 -49c35 -38 49 -89 48 -135c0 -60 -21 -121 -68 -162c-45 -40 -106 -55 -162 -55c-57 0 -118 16 -162 55
c-46 41 -67 103 -68 162c-1 46 14 97 47 135c15 19 34 35 55 49c-15 9 -28 21 -39 34c-31 33 -46 77 -46 121zM290 663c-36 -1 -72 -9 -98 -31c-25 -22 -36 -55 -37 -91c-1 -35 11 -69 37 -90c25 -22 62 -31 98 -31s73 9 98 31c25 21 36 55 36 90c1 36 -11 69 -37 91
c-24 22 -61 31 -97 31zM290 349c-42 0 -83 -12 -112 -39s-41 -67 -41 -108s12 -81 41 -107c29 -27 70 -39 112 -39s83 12 111 39c29 26 41 66 41 107s-12 81 -41 108c-28 27 -69 39 -111 39z" />
    <glyph glyph-name="nine" unicode="9" horiz-adv-x="621" 
d="M102 88l56 46c31 -47 84 -78 144 -78c54 0 103 25 133 65c27 32 42 73 42 119v102c-42 -52 -106 -86 -177 -86c-62 0 -121 25 -165 66c-46 45 -72 105 -71 172c0 64 26 124 69 168c44 46 107 73 174 72c68 1 133 -28 177 -75c48 -50 67 -109 67 -180v-239
c0 -72 -22 -133 -70 -181c-46 -49 -110 -73 -179 -74c-82 0 -155 39 -200 103zM307 664c-48 0 -93 -21 -124 -55c-28 -30 -45 -71 -45 -115c0 -47 19 -90 51 -121c31 -30 72 -48 118 -48c48 0 92 20 123 52c29 30 47 72 47 117c0 44 -18 85 -46 116c-31 33 -75 53 -124 54z
" />
    <glyph glyph-name="zero.tf" horiz-adv-x="620" 
d="M310 -15c67 0 132 27 176 77c41 47 59 99 59 165v267c0 66 -19 120 -62 168c-43 46 -105 74 -173 73c-66 1 -129 -25 -173 -73c-43 -46 -62 -101 -62 -168v-267c0 -65 18 -119 60 -166c43 -48 106 -76 175 -76zM310 664c54 1 105 -28 134 -71c18 -28 27 -61 27 -99v-267
c0 -36 -7 -70 -27 -99c-29 -44 -79 -72 -134 -72s-105 28 -134 73c-20 28 -27 59 -27 98v267c0 37 8 68 27 98c29 44 79 73 134 72z" />
    <glyph glyph-name="one.tf" horiz-adv-x="620" 
d="M306 720h75v-720h-75v638l-135 -82v83z" />
    <glyph glyph-name="two.tf" horiz-adv-x="620" 
d="M80 506c0 70 28 131 81 176c42 35 96 53 154 53c59 0 115 -22 158 -61c45 -42 72 -104 72 -169c0 -90 -32 -141 -102 -203l-255 -231h357v-71h-470l1 68l325 294c56 50 70 93 70 144c0 46 -20 90 -53 119c-28 25 -64 39 -104 39s-75 -13 -102 -36
c-35 -29 -58 -74 -57 -122h-75z" />
    <glyph glyph-name="three.tf" horiz-adv-x="620" 
d="M463 388c45 -43 64 -106 64 -168c-1 -74 -28 -143 -84 -186c-42 -33 -95 -48 -146 -48c-52 -1 -104 14 -147 47c-37 27 -63 67 -76 110l70 21c10 -31 28 -58 53 -77c28 -21 63 -31 99 -31c36 1 72 12 99 33c40 32 56 80 56 131c0 48 -15 94 -51 126
c-28 25 -66 37 -105 37c-26 0 -56 -8 -81 -20l-37 58l247 228h-322v71h416v-71l-211 -203c60 1 115 -19 156 -58z" />
    <glyph glyph-name="four.tf" horiz-adv-x="620" 
d="M484 210h79v-71h-79v-139h-74v139h-337v71l241 510h83l-241 -510h254v210h74v-210z" />
    <glyph glyph-name="five.tf" horiz-adv-x="620" 
d="M114 720h384v-70h-317l-15 -241c40 35 92 55 146 55c59 0 116 -22 159 -60c51 -45 78 -108 78 -178c0 -65 -28 -126 -71 -170c-45 -44 -107 -70 -172 -70c-63 -1 -123 23 -166 64c-32 30 -57 70 -69 114l71 19c8 -32 25 -61 50 -82c30 -27 71 -44 114 -44
c46 0 88 18 119 49s50 73 50 120c0 49 -21 95 -56 126c-30 27 -70 43 -113 44c-68 0 -118 -34 -147 -79l-67 29z" />
    <glyph glyph-name="six.tf" horiz-adv-x="620" 
d="M516 632l-57 -46c-30 47 -84 78 -144 78c-53 0 -103 -25 -132 -65c-28 -32 -42 -73 -42 -119v-102c42 52 105 86 176 86c62 0 122 -25 166 -66c46 -45 71 -105 71 -172c-1 -64 -27 -124 -70 -168c-44 -46 -107 -73 -174 -72c-68 -1 -132 28 -177 75
c-47 50 -67 109 -67 180v239c0 72 23 133 70 181c47 49 110 73 179 74c82 0 156 -39 201 -103zM310 56c49 0 93 21 124 55c28 30 46 71 46 115c0 47 -20 90 -51 121c-31 30 -73 48 -119 48c-48 0 -91 -20 -122 -52c-30 -30 -47 -72 -47 -117c0 -44 17 -85 45 -116
c31 -33 76 -53 124 -54z" />
    <glyph glyph-name="seven.tf" horiz-adv-x="620" 
d="M176 0l265 649h-334v71h412v-71l-264 -649h-79z" />
    <glyph glyph-name="eight.tf" horiz-adv-x="620" 
d="M97 541c1 60 22 112 67 148c41 34 95 46 146 46s105 -12 146 -46c46 -35 66 -92 66 -148c0 -44 -14 -88 -46 -121c-11 -13 -24 -25 -38 -34c21 -14 40 -30 54 -49c35 -38 49 -89 48 -135c0 -60 -21 -121 -68 -162c-45 -40 -106 -55 -162 -55c-57 0 -118 16 -162 55
c-46 41 -67 103 -68 162c-1 46 14 97 47 135c15 19 34 35 55 49c-15 9 -28 21 -39 34c-31 33 -46 77 -46 121zM310 663c-36 -1 -72 -9 -98 -31c-25 -22 -36 -55 -37 -91c-1 -35 11 -69 37 -90c25 -22 62 -31 98 -31s73 9 98 31c25 21 36 55 36 90c1 36 -11 69 -37 91
c-24 22 -61 31 -97 31zM310 349c-42 0 -83 -12 -112 -39s-41 -67 -41 -108s12 -81 41 -107c29 -27 70 -39 112 -39s83 12 111 39c29 26 41 66 41 107s-12 81 -41 108c-28 27 -69 39 -111 39z" />
    <glyph glyph-name="nine.tf" horiz-adv-x="620" 
d="M104 88l57 46c30 -47 84 -78 144 -78c53 0 103 25 132 65c28 32 42 73 42 119v102c-42 -52 -105 -86 -176 -86c-62 0 -122 25 -166 66c-46 45 -71 105 -71 172c1 64 27 124 70 168c44 46 107 73 174 72c68 1 132 -28 177 -75c47 -50 67 -109 67 -180v-239
c0 -72 -23 -133 -70 -181c-47 -49 -110 -73 -179 -74c-82 0 -156 39 -201 103zM310 664c-49 0 -93 -21 -124 -55c-28 -30 -46 -71 -46 -115c0 -47 20 -90 51 -121c31 -30 73 -48 119 -48c48 0 91 20 122 52c30 30 47 72 47 117c0 44 -17 85 -45 116c-31 33 -76 53 -124 54z
" />
    <glyph glyph-name="fraction" unicode="&#x2044;" horiz-adv-x="721" 
d="M50 0l-50 50l671 670l50 -50z" />
    <glyph glyph-name="period" unicode="." horiz-adv-x="253" 
d="M84 85h85v-85h-85v85z" />
    <glyph glyph-name="comma" unicode="," horiz-adv-x="265" 
d="M145 -20c0 -59 -29 -94 -85 -84l5 36c39 -3 43 31 40 68h-45v105h85v-125z" />
    <glyph glyph-name="colon" unicode=":" horiz-adv-x="299" 
d="M110 460h86v-85h-86v85zM110 165h85v-85h-85v85z" />
    <glyph glyph-name="semicolon" unicode=";" horiz-adv-x="305" 
d="M110 540h85v-85h-85v85zM195 -20c0 -59 -29 -94 -85 -84l5 36c39 -3 43 31 40 68h-45v105h85v-125z" />
    <glyph glyph-name="ellipsis" unicode="&#x2026;" horiz-adv-x="632" 
d="M80 85h85v-85h-85v85zM273 85h86v-85h-86v85zM467 85h85v-85h-85v85z" />
    <glyph glyph-name="exclam" unicode="!" horiz-adv-x="313" 
d="M120 720h73v-540h-73v540zM120 83h73v-83h-73v83z" />
    <glyph glyph-name="exclamdown" unicode="&#xa1;" horiz-adv-x="313" 
d="M120 457v83h73v-83h-73zM120 -180v540h73v-540h-73z" />
    <glyph glyph-name="question" unicode="?" horiz-adv-x="524" 
d="M474 542c0 -55 -23 -105 -59 -142c-35 -37 -89 -64 -111 -104c-17 -31 -15 -56 -15 -100h-78c0 52 2 89 24 129c29 57 85 77 128 123c26 29 33 59 33 94c0 33 -9 60 -26 80c-27 32 -68 42 -109 42c-42 0 -80 -12 -103 -36c-23 -21 -32 -52 -32 -86h-76
c3 53 23 107 62 141c39 36 95 52 148 52c65 0 127 -19 167 -64c32 -35 47 -80 47 -129zM211 0v98h78v-98h-78z" />
    <glyph glyph-name="questiondown" unicode="&#xbf;" horiz-adv-x="524" 
d="M312 540v-98h-77v98h77zM50 -2c0 55 22 105 59 142c34 37 89 64 110 104c18 31 16 56 16 100h78c0 -52 -2 -89 -24 -129c-30 -57 -85 -77 -128 -123c-26 -29 -33 -59 -33 -94c0 -33 8 -60 26 -80c26 -32 68 -42 109 -42c42 0 79 12 102 36c23 21 33 52 33 86h76
c-3 -53 -23 -107 -62 -141c-40 -36 -95 -52 -148 -52c-66 0 -127 19 -167 64c-32 35 -47 80 -47 129z" />
    <glyph glyph-name="periodcentered" unicode="&#xb7;" horiz-adv-x="587" 
d="M295 262c-31 0 -55 22 -55 53s24 53 55 53c28 0 52 -22 52 -53s-24 -53 -52 -53z" />
    <glyph glyph-name="bullet" unicode="&#x2022;" horiz-adv-x="653" 
d="M329 198c-66 0 -119 51 -119 117c0 67 53 117 119 117c62 0 114 -50 114 -117c0 -66 -52 -117 -114 -117z" />
    <glyph glyph-name="asterisk" unicode="*" horiz-adv-x="437" 
d="M377 569l-124 -37l78 -102l-55 -40l-73 105l-73 -105l-55 40l78 102l-123 37l21 65l121 -43l-3 129h68l-3 -129l122 43z" />
    <glyph glyph-name="numbersign" unicode="#" horiz-adv-x="920" 
d="M842 448h-204l-43 -160h203l-18 -71h-204l-58 -217h-72l57 217h-167l-58 -217h-72l57 217h-203l19 71h204l42 160h-203l19 70h203l54 202h73l-54 -202h167l54 202h73l-54 -202h203zM522 288l43 160h-167l-43 -160h167z" />
    <glyph glyph-name="slash" unicode="/" horiz-adv-x="388" 
d="M252 720h75l-192 -720h-75z" />
    <glyph glyph-name="backslash" unicode="\" horiz-adv-x="387" 
d="M135 720l192 -720h-75l-192 720h75z" />
    <glyph glyph-name="colon.case" horiz-adv-x="299" 
d="M110 550h86v-85h-86v85zM110 255h85v-85h-85v85z" />
    <glyph glyph-name="exclamdown.case" horiz-adv-x="313" 
d="M120 637v83h73v-83h-73zM120 0v540h73v-540h-73z" />
    <glyph glyph-name="questiondown.case" horiz-adv-x="524" 
d="M313 720v-98h-78v98h78zM50 178c0 55 23 105 59 142c35 37 89 64 111 104c17 31 15 56 15 100h78c0 -52 -2 -89 -24 -129c-29 -57 -85 -77 -128 -123c-26 -29 -33 -59 -33 -94c0 -33 9 -60 26 -80c27 -32 68 -42 109 -42c42 0 80 12 103 36c23 21 32 52 32 86h76
c-3 -53 -23 -107 -62 -141c-39 -36 -95 -52 -148 -52c-65 0 -127 19 -167 64c-32 35 -47 80 -47 129z" />
    <glyph glyph-name="periodcentered.case" horiz-adv-x="587" 
d="M295 307c-31 0 -55 22 -55 53s24 53 55 53c28 0 52 -22 52 -53s-24 -53 -52 -53z" />
    <glyph glyph-name="parenleft" unicode="(" horiz-adv-x="426" 
d="M383 797l-55 42c-117 -134 -189 -324 -188 -509c-1 -185 71 -375 188 -509l55 42c-116 135 -175 302 -175 467c0 167 58 329 175 467z" />
    <glyph glyph-name="parenright" unicode=")" horiz-adv-x="426" 
d="M43 797c117 -138 175 -300 175 -467c0 -165 -59 -332 -175 -467l55 -42c117 134 189 324 188 509c1 185 -71 375 -188 509z" />
    <glyph glyph-name="braceleft" unicode="{" horiz-adv-x="420" 
d="M376 -218v70h-56c-29 0 -52 23 -52 52v322c0 25 -7 49 -22 70l-28 39l28 39c15 21 22 44 22 70v322c0 28 23 51 52 51h56v71h-59c-70 0 -119 -50 -119 -119v-325c0 -11 -4 -21 -9 -30l-43 -59c-8 -12 -8 -28 0 -40l43 -59c5 -9 9 -19 9 -30v-326c0 -68 49 -118 119 -118
h59z" />
    <glyph glyph-name="braceright" unicode="}" horiz-adv-x="420" 
d="M44 -218h59c70 0 119 50 119 118v326c0 11 4 21 9 30l43 59c8 12 8 28 0 40l-43 59c-5 9 -9 19 -9 30v325c0 69 -49 119 -119 119h-59v-71h56c29 0 52 -23 52 -51v-322c0 -26 7 -49 22 -70l28 -39l-28 -39c-15 -21 -22 -45 -22 -70v-322c0 -29 -23 -52 -52 -52h-56v-70z
" />
    <glyph glyph-name="bracketleft" unicode="[" horiz-adv-x="407" 
d="M327 820h-119v-970h119v-68h-187v1106h187v-68z" />
    <glyph glyph-name="bracketright" unicode="]" horiz-adv-x="407" 
d="M267 888v-1106h-187v68h119v970h-119v68h187z" />
    <glyph glyph-name="parenleft.case" horiz-adv-x="426" 
d="M383 827l-55 42c-117 -134 -189 -324 -188 -509c-1 -185 71 -375 188 -509l55 42c-116 135 -175 302 -175 467c0 167 58 329 175 467z" />
    <glyph glyph-name="parenright.case" horiz-adv-x="426" 
d="M43 827c117 -138 175 -300 175 -467c0 -165 -59 -332 -175 -467l55 -42c117 134 189 324 188 509c1 185 -71 375 -188 509z" />
    <glyph glyph-name="braceleft.case" horiz-adv-x="420" 
d="M376 -193v70h-56c-29 0 -52 23 -52 52v322c0 25 -7 49 -22 70l-28 39l28 39c15 21 22 44 22 70v322c0 28 23 51 52 51h56v71h-59c-70 0 -119 -50 -119 -119v-325c0 -11 -4 -21 -9 -30l-43 -59c-8 -12 -8 -28 0 -40l43 -59c5 -9 9 -19 9 -30v-326c0 -68 49 -118 119 -118
h59z" />
    <glyph glyph-name="braceright.case" horiz-adv-x="420" 
d="M44 -193h59c70 0 119 50 119 118v326c0 11 4 21 9 30l43 59c8 12 8 28 0 40l-43 59c-5 9 -9 19 -9 30v325c0 69 -49 119 -119 119h-59v-71h56c29 0 52 -23 52 -51v-322c0 -26 7 -49 22 -70l28 -39l-28 -39c-15 -21 -22 -45 -22 -70v-322c0 -29 -23 -52 -52 -52h-56v-70z
" />
    <glyph glyph-name="bracketleft.case" horiz-adv-x="407" 
d="M327 845h-119v-970h119v-68h-187v1106h187v-68z" />
    <glyph glyph-name="bracketright.case" horiz-adv-x="407" 
d="M267 913v-1106h-187v68h119v970h-119v68h187z" />
    <glyph glyph-name="hyphen" unicode="-" horiz-adv-x="420" 
d="M60 347h300v-63h-300v63z" />
    <glyph glyph-name="endash" unicode="&#x2013;" horiz-adv-x="540" 
d="M60 347h420v-63h-420v63z" />
    <glyph glyph-name="emdash" unicode="&#x2014;" horiz-adv-x="780" 
d="M60 347h660v-63h-660v63z" />
    <glyph glyph-name="uni2011" unicode="&#x2011;" horiz-adv-x="420" 
d="M60 347h300v-63h-300v63z" />
    <glyph glyph-name="underscore" unicode="_" horiz-adv-x="660" 
d="M0 -43h660v-63h-660v63z" />
    <glyph glyph-name="hyphen.case" horiz-adv-x="420" 
d="M60 392h300v-63h-300v63z" />
    <glyph glyph-name="endash.case" horiz-adv-x="540" 
d="M60 392h420v-63h-420v63z" />
    <glyph glyph-name="emdash.case" horiz-adv-x="780" 
d="M60 392h660v-63h-660v63z" />
    <glyph glyph-name="quotesinglbase" unicode="&#x201a;" horiz-adv-x="265" 
d="M145 -20c0 -59 -29 -94 -85 -84l5 36c39 -3 43 31 40 68h-45v105h85v-125z" />
    <glyph glyph-name="quotedblbase" unicode="&#x201e;" horiz-adv-x="440" 
d="M165 78c0 -59 -29 -94 -85 -84l5 36c39 -2 43 31 40 68h-45v106h85v-126zM292 78c0 -59 -29 -94 -85 -84l5 36c39 -2 43 31 40 68h-45v106h85v-126z" />
    <glyph glyph-name="quotedblleft" unicode="&#x201c;" horiz-adv-x="422" 
d="M130 601v126h85v-106h-45c-3 -37 1 -70 40 -68l5 -36c-56 -10 -85 25 -85 84zM257 601v126h85v-106h-45c-3 -37 1 -70 40 -68l5 -36c-56 -10 -85 25 -85 84z" />
    <glyph glyph-name="quotedblright" unicode="&#x201d;" horiz-adv-x="422" 
d="M165 601c0 -59 -29 -94 -85 -84l5 36c39 -2 43 31 40 68h-45v106h85v-126zM292 601c0 -59 -29 -94 -85 -84l5 36c39 -2 43 31 40 68h-45v106h85v-126z" />
    <glyph glyph-name="quoteleft" unicode="&#x2018;" horiz-adv-x="222" 
d="M67 595v125h85v-105h-45c-3 -38 1 -71 40 -68l5 -37c-56 -9 -85 25 -85 85z" />
    <glyph glyph-name="quoteright" unicode="&#x2019;" horiz-adv-x="222" 
d="M155 595c0 -60 -29 -94 -85 -85l5 37c39 -3 43 30 40 68h-45v105h85v-125z" />
    <glyph glyph-name="guillemotleft" unicode="&#xab;" horiz-adv-x="536" 
d="M253 98l44 35l-145 183l145 182l-44 35l-173 -217zM425 98l44 35l-146 183l146 182l-44 35l-173 -217z" />
    <glyph glyph-name="guillemotright" unicode="&#xbb;" horiz-adv-x="536" 
d="M111 98l173 218l-173 217l-44 -35l146 -182l-146 -183zM283 98l173 218l-173 217l-44 -35l145 -182l-145 -183z" />
    <glyph glyph-name="guilsinglleft" unicode="&#x2039;" horiz-adv-x="614" 
d="M375 80l-235 235l235 235l39 -40l-195 -195l195 -195z" />
    <glyph glyph-name="guilsinglright" unicode="&#x203a;" horiz-adv-x="615" 
d="M240 80l-40 40l195 195l-195 195l40 40l234 -235z" />
    <glyph glyph-name="quotedbl" unicode="&#x22;" horiz-adv-x="392" 
d="M60 720h73v-180h-73v180zM219 720h73v-180h-73v180z" />
    <glyph glyph-name="quotesingle" unicode="'" horiz-adv-x="213" 
d="M60 720h73v-180h-73v180z" />
    <glyph glyph-name="guillemotleft.case" horiz-adv-x="536" 
d="M253 143l44 35l-145 183l145 182l-44 35l-173 -217zM425 143l44 35l-146 183l146 182l-44 35l-173 -217z" />
    <glyph glyph-name="guillemotright.case" horiz-adv-x="536" 
d="M111 143l173 218l-173 217l-44 -35l146 -182l-146 -183zM283 143l173 218l-173 217l-44 -35l145 -182l-145 -183z" />
    <glyph glyph-name="guilsinglleft.case" horiz-adv-x="614" 
d="M375 125l-235 235l235 235l39 -40l-195 -195l195 -195z" />
    <glyph glyph-name="guilsinglright.case" horiz-adv-x="614" 
d="M240 125l-40 40l195 195l-195 195l40 40l234 -235z" />
    <glyph glyph-name="space" unicode=" " horiz-adv-x="200" 
 />
    <glyph glyph-name="uni00A0" unicode="&#xa0;" horiz-adv-x="200" 
 />
    <glyph glyph-name=".null" horiz-adv-x="200" 
 />
    <glyph glyph-name="uni2060" unicode="&#x2060;" horiz-adv-x="0" 
 />
    <glyph glyph-name="cent" unicode="&#xa2;" horiz-adv-x="554" 
d="M389 157c27 17 45 42 58 72l73 -21c-18 -44 -47 -84 -85 -109c-32 -21 -67 -33 -107 -37v-92h-63v91c-68 6 -124 34 -164 87c-46 58 -60 128 -61 197c1 71 16 141 61 198c41 52 96 80 164 86v91h63v-92c37 -3 69 -14 101 -33c41 -26 76 -66 91 -114l-72 -24
c-11 30 -34 59 -61 76c-27 19 -59 27 -93 27c-54 0 -103 -21 -134 -63c-32 -41 -41 -97 -42 -152c1 -55 10 -111 42 -152c31 -41 80 -63 134 -63c34 0 67 8 95 27z" />
    <glyph glyph-name="dollar" unicode="$" horiz-adv-x="574" 
d="M454 310c38 -34 60 -76 60 -131c0 -58 -27 -114 -74 -148c-30 -23 -71 -39 -117 -44v-86h-73v87c-57 9 -106 38 -140 81c-31 39 -50 88 -50 141h74c0 -36 14 -73 37 -99c28 -34 69 -55 115 -55c39 0 84 10 115 38c23 20 37 48 37 87c0 33 -14 59 -43 81
c-40 33 -96 52 -147 74c-48 20 -97 45 -132 86c-26 29 -43 69 -43 117c0 55 24 107 62 142c31 28 71 46 115 52v87h73v-88c46 -8 87 -31 117 -64c37 -38 59 -87 60 -144h-76c0 37 -15 71 -40 97s-59 43 -98 43c-40 0 -74 -14 -99 -37c-24 -22 -38 -53 -38 -88
c0 -27 8 -52 28 -73c22 -28 62 -48 115 -69c70 -28 120 -49 162 -87z" />
    <glyph glyph-name="Euro" unicode="&#x20ac;" horiz-adv-x="655" 
d="M580 89l39 -61c-50 -29 -109 -43 -170 -43c-102 0 -193 38 -253 115c-35 44 -56 94 -68 147h-88v63h79c-2 17 -2 33 -2 50c0 16 1 32 3 48h-80v63h89c11 54 32 105 67 149c59 78 152 115 253 115c61 0 120 -14 169 -43l-39 -62c-39 22 -84 33 -130 34
c-76 1 -150 -30 -194 -89c-24 -30 -39 -66 -48 -104h286v-63h-296c-1 -16 -2 -32 -2 -48c0 -17 1 -33 3 -50h295v-63h-285c9 -37 24 -73 47 -103c44 -59 118 -88 194 -88c46 -1 92 10 131 33z" />
    <glyph glyph-name="florin" unicode="&#x192;" horiz-adv-x="771" 
d="M583 664c-41 0 -122 -16 -138 -116l-26 -156h221v-63h-232l-23 -140c-26 -162 -124 -204 -197 -204c-58 0 -113 23 -128 30l31 63c7 -3 50 -22 94 -22c48 0 108 29 127 144l21 129h-176v63h186l25 150c25 156 137 193 212 193c64 0 118 -22 131 -31l-34 -61
s-40 21 -94 21z" />
    <glyph glyph-name="uni20B4" unicode="&#x20b4;" horiz-adv-x="639" 
d="M517 461h62v-63h-519v63h366c1 2 3 3 4 5c20 21 28 46 28 73c0 35 -14 66 -38 88c-25 23 -59 37 -99 37c-39 0 -73 -17 -98 -43c-22 -22 -35 -50 -39 -82h-76c4 50 25 95 59 129c38 42 94 67 155 67c58 0 111 -19 150 -54c38 -35 62 -87 62 -142c0 -29 -6 -55 -17 -78z
M579 321v-63h-372c-26 -21 -38 -46 -38 -77c0 -39 14 -67 37 -87c31 -28 76 -38 115 -38c46 0 87 21 115 55c17 19 29 43 34 70h75c-5 -42 -22 -80 -48 -112c-41 -53 -106 -84 -178 -84c-59 0 -115 17 -152 46c-47 34 -74 90 -74 148c0 30 7 56 19 79h-52v63h519z" />
    <glyph glyph-name="uni20BD" unicode="&#x20bd;" horiz-adv-x="664" 
d="M566 657c42 -40 68 -100 68 -160c0 -55 -20 -108 -57 -150c-40 -47 -102 -69 -167 -69h-197v-93h244v-63h-244v-122h-73v122h-70v63h70v93h-70v66h70v376h270c58 0 117 -25 156 -63zM524 398c23 27 35 63 34 99c-1 40 -16 79 -43 108c-27 27 -68 44 -106 44h-196v-305
h195c47 0 88 19 116 54z" />
    <glyph glyph-name="sterling" unicode="&#xa3;" horiz-adv-x="624" 
d="M256 330v-260h282v-70h-478v70h51c39 0 71 33 71 72v188h-122v71h122v146c0 110 82 188 189 188c94 0 155 -65 193 -177l-67 -22c-28 86 -66 128 -127 128c-68 0 -114 -47 -114 -119v-144h182v-71h-182z" />
    <glyph glyph-name="yen" unicode="&#xa5;" horiz-adv-x="556" 
d="M556 720l-205 -355h117v-63h-153v-120h153v-63h-153v-119h-74v119h-153v63h153v120h-153v63h117l-205 355h85l193 -334l193 334h85z" />
    <glyph glyph-name="plus" unicode="+" horiz-adv-x="577" 
d="M517 392v-63h-197v-197h-63v197h-197v63h197v196h63v-196h197z" />
    <glyph glyph-name="minus" unicode="&#x2212;" horiz-adv-x="540" 
d="M60 392h420v-63h-420v63z" />
    <glyph glyph-name="multiply" unicode="&#xd7;" horiz-adv-x="488" 
d="M428 499l-139 -139l139 -139l-45 -45l-139 139l-139 -139l-45 45l139 139l-139 139l45 45l139 -139l139 139z" />
    <glyph glyph-name="equal" unicode="=" horiz-adv-x="750" 
d="M120 477v-63h510v63h-510zM120 306v-63h510v63h-510z" />
    <glyph glyph-name="notequal" unicode="&#x2260;" horiz-adv-x="750" 
d="M630 414h-166l-94 -108h260v-63h-315l-81 -93l-49 40l46 53h-111v63h167l94 108h-261v63h317l81 93l48 -39l-47 -54h111v-63z" />
    <glyph glyph-name="greater" unicode="&#x3e;" horiz-adv-x="615" 
d="M240 80l-40 40l195 195l-195 195l40 40l234 -235z" />
    <glyph glyph-name="less" unicode="&#x3c;" horiz-adv-x="614" 
d="M375 80l-235 235l235 235l39 -40l-195 -195l195 -195z" />
    <glyph glyph-name="greaterequal" unicode="&#x2265;" horiz-adv-x="750" 
d="M120 167v66l399 128l-399 128v66l510 -167v-54zM630 63h-510v-63h510v63z" />
    <glyph glyph-name="lessequal" unicode="&#x2264;" horiz-adv-x="750" 
d="M630 167l-510 167v54l510 167v-66l-399 -128l399 -128v-66zM120 63v-63h510v63h-510z" />
    <glyph glyph-name="plusminus" unicode="&#xb1;" horiz-adv-x="600" 
d="M332 412h208v-63h-208v-129h-63v129h-209v63h209v128h63v-128zM60 79v63h480v-63h-480z" />
    <glyph glyph-name="asciitilde" unicode="~" horiz-adv-x="662" 
d="M538 381c7 -27 5 -61 -9 -87c-17 -27 -46 -44 -74 -47c-45 -8 -86 6 -124 23c-45 20 -75 37 -106 34c-34 -3 -39 -33 -30 -55h-71c-7 28 -5 61 9 87c17 28 46 44 73 48c46 7 86 -6 124 -23c46 -20 76 -37 107 -35c34 3 39 34 30 55h71z" />
    <glyph glyph-name="asciicircum" unicode="^" horiz-adv-x="669" 
d="M105 501l235 235l235 -235l-40 -39l-195 195l-195 -196z" />
    <glyph glyph-name="percent" unicode="%" horiz-adv-x="901" 
d="M240 375c-99 0 -180 80 -180 180c0 98 84 180 180 180c99 0 180 -80 180 -180s-81 -180 -180 -180zM140 0l-50 50l671 670l50 -50zM240 441c62 0 114 52 114 114s-52 114 -114 114s-114 -52 -114 -114s52 -114 114 -114zM661 -15c-99 0 -180 80 -180 180
c0 98 84 180 180 180c99 0 180 -80 180 -180s-81 -180 -180 -180zM661 51c62 0 114 52 114 114s-52 114 -114 114c-61 0 -113 -52 -113 -114s52 -114 113 -114z" />
    <glyph glyph-name="greater.case" horiz-adv-x="614" 
d="M240 125l-40 40l195 195l-195 195l40 40l234 -235z" />
    <glyph glyph-name="less.case" horiz-adv-x="614" 
d="M375 125l-235 235l235 235l39 -40l-195 -195l195 -195z" />
    <glyph glyph-name="arrowup" unicode="&#x2191;" horiz-adv-x="709" 
d="M589 486l-39 -39l-164 164v-611h-63v610l-164 -163l-39 39l235 235z" />
    <glyph glyph-name="arrowright" unicode="&#x2192;" horiz-adv-x="1001" 
d="M626 550l235 -235l-235 -235l-39 40l163 163l-610 1v63l611 -1l-164 164z" />
    <glyph glyph-name="arrowdown" unicode="&#x2193;" horiz-adv-x="709" 
d="M550 273l39 -39l-234 -235l-235 235l39 39l164 -163v610h63v-611z" />
    <glyph glyph-name="arrowleft" unicode="&#x2190;" horiz-adv-x="1001" 
d="M861 347v-63l-610 -1l163 -163l-39 -40l-235 235l235 235l39 -40l-164 -164z" />
    <glyph glyph-name="carriagereturn" unicode="&#x21b5;" horiz-adv-x="804" 
d="M681 720h63v-437h-493l163 -163l-39 -40l-235 235l235 235l39 -40l-163 -163h430v373z" />
    <glyph glyph-name="arrowright.case" horiz-adv-x="1001" 
d="M626 580l235 -235l-235 -235l-39 40l163 163l-610 1v63l611 -1l-164 164z" />
    <glyph glyph-name="arrowleft.case" horiz-adv-x="1001" 
d="M861 377v-63l-610 -1l163 -163l-39 -40l-235 235l235 235l39 -40l-164 -164z" />
    <glyph glyph-name="at" unicode="@" horiz-adv-x="913" 
d="M833 269c-1 -66 -16 -125 -55 -163c-24 -24 -60 -36 -92 -36c-37 0 -74 16 -98 38c-16 15 -25 27 -31 43c-27 -24 -67 -37 -105 -37c-37 0 -79 12 -108 40c-34 32 -44 74 -46 115c0 43 14 85 46 116c30 28 71 40 109 40c33 0 73 -10 100 -34v20h53v-175
c0 -33 1 -57 19 -76c16 -17 36 -27 60 -27c20 0 39 8 51 23c23 27 30 72 29 113c-1 74 -17 142 -56 198c-56 78 -155 113 -254 113c-79 0 -157 -24 -213 -72c-69 -57 -96 -149 -95 -242c1 -90 26 -171 87 -228c60 -58 143 -80 226 -80c58 0 116 13 165 42l26 -58
c-58 -33 -126 -47 -193 -47c-105 0 -201 30 -272 99c-73 68 -104 167 -106 271c-3 111 36 222 118 292c67 60 163 88 254 88c127 0 241 -46 311 -140c51 -70 69 -151 70 -236zM543 270c0 25 -5 47 -19 64c-15 18 -41 29 -68 29s-51 -8 -68 -24c-17 -17 -24 -42 -24 -69
s7 -52 24 -68c18 -17 42 -24 67 -24c29 0 54 10 69 29c14 16 19 38 19 63z" />
    <glyph glyph-name="ampersand" unicode="&#x26;" horiz-adv-x="651" 
d="M557 304v-105c0 -22 -2 -45 -10 -66l92 -86l-48 -52l-79 75c-23 -29 -60 -52 -93 -64c-35 -16 -77 -21 -117 -21c-81 0 -152 22 -198 72c-35 38 -52 87 -54 140c-1 50 14 103 47 142c19 24 45 39 70 51c-50 51 -76 89 -76 153c0 75 39 141 106 170c34 16 70 21 105 21
c54 0 109 -14 147 -46c24 -20 43 -47 54 -75l-71 -21c-7 18 -19 33 -35 45c-26 20 -60 27 -93 27c-28 0 -55 -6 -78 -17c-40 -20 -60 -55 -60 -103c0 -39 14 -63 40 -93c14 -16 33 -32 52 -49l227 -212c2 12 4 22 4 34l-1 148h148v-68h-79zM458 122l-234 214
c-28 -9 -53 -24 -70 -44c-20 -25 -29 -57 -28 -92c0 -36 12 -68 33 -92c32 -36 90 -52 143 -52c38 0 68 3 96 18c35 19 50 35 60 48z" />
    <glyph glyph-name="copyright" unicode="&#xa9;" horiz-adv-x="823" 
d="M412 -72c205 0 371 166 371 371c0 206 -166 372 -371 372c-206 0 -372 -166 -372 -372c0 -205 166 -371 372 -371zM412 -1c-167 0 -301 134 -301 301c0 165 134 299 301 299c165 0 299 -134 299 -299c0 -167 -134 -301 -299 -301zM587 396l-62 -18c-8 21 -23 41 -42 55
c-19 13 -43 19 -66 19c-39 0 -72 -16 -94 -44c-23 -29 -30 -69 -30 -108s8 -78 30 -107c20 -30 55 -45 94 -45c23 0 47 6 67 19c19 13 31 31 40 52l63 -17c-13 -33 -35 -64 -64 -83c-32 -21 -64 -30 -106 -30c-61 0 -111 21 -145 65c-34 43 -46 94 -46 146
c1 53 12 105 46 146c36 44 84 65 145 65c39 0 69 -6 101 -25c32 -20 58 -51 69 -90z" />
    <glyph glyph-name="registered" unicode="&#xae;" horiz-adv-x="625" 
d="M313 772c133 0 242 -108 242 -242s-109 -243 -242 -243c-134 0 -243 109 -243 243s109 242 243 242zM313 715c-103 0 -186 -82 -186 -185c0 -102 83 -185 186 -185c102 0 185 83 185 185c0 103 -83 185 -185 185zM231 648h101c43 0 77 -33 78 -76c0 -27 -16 -54 -43 -68
l44 -89h-45l-39 82h-57v-82h-39v233zM270 611v-77h62c20 0 38 17 38 38c0 24 -19 39 -38 39h-62z" />
    <glyph glyph-name="trademark" unicode="&#x2122;" horiz-adv-x="894" 
d="M60 664v56h321v-56h-131v-319h-59v319h-131zM784 720h50v-375h-56v259l-115 -200h-40l-114 200v-259h-57v375h50l141 -242z" />
    <glyph glyph-name="degree" unicode="&#xb0;" horiz-adv-x="450" 
d="M210 375c-99 0 -180 80 -180 180c0 98 84 180 180 180c99 0 180 -80 180 -180s-81 -180 -180 -180zM210 441c62 0 114 52 114 114s-52 114 -114 114s-114 -52 -114 -114s52 -114 114 -114z" />
    <glyph glyph-name="bar" unicode="|" horiz-adv-x="253" 
d="M90 720h73v-720h-73v720z" />
    <glyph glyph-name="uni2116" unicode="&#x2116;" horiz-adv-x="1107" 
d="M877 375c-99 0 -180 80 -180 180c0 98 84 180 180 180c99 0 180 -80 180 -180s-81 -180 -180 -180zM144 720l396 -590v590h74v-720h-74l-396 591v-591h-74v720h74zM877 441c61 0 113 52 113 114s-52 114 -113 114c-62 0 -114 -52 -114 -114s52 -114 114 -114zM727 334
h300v-63h-300v63z" />
    <glyph glyph-name="at.case" horiz-adv-x="913" 
d="M833 359c-1 -66 -16 -125 -55 -163c-24 -24 -60 -36 -92 -36c-37 0 -74 16 -98 38c-16 15 -25 27 -31 43c-27 -24 -67 -37 -105 -37c-37 0 -79 12 -108 40c-34 32 -44 74 -46 115c0 43 14 85 46 116c30 28 71 40 109 40c33 0 73 -10 100 -34v20h53v-175
c0 -33 1 -57 19 -76c16 -17 36 -27 60 -27c20 0 39 8 51 23c23 27 30 72 29 113c-1 74 -17 142 -56 198c-56 78 -155 113 -254 113c-79 0 -157 -24 -213 -72c-69 -57 -96 -149 -95 -242c1 -90 26 -171 87 -228c60 -58 143 -80 226 -80c58 0 116 13 165 42l26 -58
c-58 -33 -126 -47 -193 -47c-105 0 -201 30 -272 99c-73 68 -104 167 -106 271c-3 111 36 222 118 292c67 60 163 88 254 88c127 0 241 -46 311 -140c51 -70 69 -151 70 -236zM543 360c0 25 -5 47 -19 64c-15 18 -41 29 -68 29s-51 -8 -68 -24c-17 -17 -24 -42 -24 -69
s7 -52 24 -68c18 -17 42 -24 67 -24c29 0 54 10 69 29c14 16 19 38 19 63z" />
    <glyph glyph-name="copyright.case" horiz-adv-x="823" 
d="M412 18c205 0 371 167 371 372s-166 372 -371 372c-206 0 -372 -167 -372 -372s166 -372 372 -372zM412 90c-167 0 -301 134 -301 301c0 165 134 299 301 299c165 0 299 -134 299 -299c0 -167 -134 -301 -299 -301zM587 487l-62 -18c-8 20 -23 41 -42 54
c-19 14 -43 20 -66 20c-39 0 -72 -16 -94 -45c-23 -29 -30 -68 -30 -107s8 -78 30 -108c20 -29 55 -44 94 -44c23 0 47 5 67 19c19 13 31 30 40 52l63 -17c-13 -33 -35 -64 -64 -83c-32 -22 -64 -31 -106 -31c-61 0 -111 21 -145 65s-46 95 -46 147c1 53 12 105 46 146
c36 44 84 65 145 65c39 0 69 -7 101 -26s58 -50 69 -89z" />
    <glyph glyph-name="nonmarkingreturn" horiz-adv-x="941" 
 />
    </font>
</defs>
</svg>
